  0
SECTION
  2
HEADER
  9
$ACADVER
  1
AC1006
  9
$EXTMIN
 10
0.000000
 20
0.000000
 30
0.000000
  9
$EXTMAX
 10
595.000000
 20
842.000000
 30
0.000000
  0
ENDSEC
  0
SECTION
  2
ENTITIES
  0
POLYLINE
  8
0
 66
1
 70
1
  0
VERTEX
  8
0
 10
217.323181
 20
712.750000
 42
0.006495
  0
VERTEX
  8
0
 10
216.585930
 20
711.027579
 42
0.000070
  0
VERTEX
  8
0
 10
211.671907
 20
699.117188
 42
0.000221
  0
VERTEX
  8
0
 10
206.012105
 20
685.376566
 42
0.000144
  0
VERTEX
  8
0
 10
199.486035
 20
669.500000
 42
-0.001579
  0
VERTEX
  8
0
 10
192.918417
 20
653.651875
 42
-0.002438
  0
VERTEX
  8
0
 10
187.131893
 20
639.999718
 42
-0.000764
  0
VERTEX
  8
0
 10
182.042172
 20
628.202369
 42
-0.073772
  0
VERTEX
  8
0
 10
181.076050
 20
626.647975
 42
-0.070960
  0
VERTEX
  8
0
 10
180.060730
 20
625.747130
 42
-0.096584
  0
VERTEX
  8
0
 10
178.931747
 20
625.281111
 42
-0.066113
  0
VERTEX
  8
0
 10
177.401353
 20
625.178626
 42
-0.018346
  0
VERTEX
  8
0
 10
175.002681
 20
625.423793
 42
0.001234
  0
VERTEX
  8
0
 10
149.138193
 20
628.965235
 42
0.000829
  0
VERTEX
  8
0
 10
119.571417
 20
632.889400
 42
0.000153
  0
VERTEX
  8
0
 10
89.575788
 20
636.810557
 42
0.032432
  0
VERTEX
  8
0
 10
86.658226
 20
637.000000
 42
0.044186
  0
VERTEX
  8
0
 10
85.608732
 20
636.907073
 42
0.070736
  0
VERTEX
  8
0
 10
84.755733
 20
636.626417
 42
0.095573
  0
VERTEX
  8
0
 10
84.197482
 20
636.202323
 42
0.184698
  0
VERTEX
  8
0
 10
84.000000
 20
635.685953
 42
0.031504
  0
VERTEX
  8
0
 10
84.065161
 20
634.652824
 42
0.000109
  0
VERTEX
  8
0
 10
85.633319
 20
622.292346
 42
0.000595
  0
VERTEX
  8
0
 10
87.428756
 20
608.298275
 42
0.000373
  0
VERTEX
  8
0
 10
89.560236
 20
591.935953
 42
-0.000089
  0
VERTEX
  8
0
 10
91.731330
 20
575.343053
 42
-0.000128
  0
VERTEX
  8
0
 10
93.652234
 20
560.612606
 42
-0.000069
  0
VERTEX
  8
0
 10
95.272663
 20
548.148096
 42
-0.001931
  0
VERTEX
  8
0
 10
95.682449
 20
544.894195
 42
0.000000
  0
VERTEX
  8
0
 10
96.244426
 20
540.288390
 42
0.000000
  0
VERTEX
  8
0
 10
88.872213
 20
537.245243
 42
-0.000836
  0
VERTEX
  8
0
 10
84.862291
 20
535.597845
 42
-0.000203
  0
VERTEX
  8
0
 10
78.231213
 20
532.889685
 42
-0.000208
  0
VERTEX
  8
0
 10
70.623428
 20
529.789924
 42
-0.000207
  0
VERTEX
  8
0
 10
63.000000
 20
526.691164
 42
0.000843
  0
VERTEX
  8
0
 10
39.712369
 20
517.190680
 42
0.001935
  0
VERTEX
  8
0
 10
22.213718
 20
509.938194
 42
0.000487
  0
VERTEX
  8
0
 10
7.998637
 20
503.965762
 42
0.095656
  0
VERTEX
  8
0
 10
6.716271
 20
503.108151
 42
0.351576
  0
VERTEX
  8
0
 10
6.644398
 20
502.482909
 42
0.005357
  0
VERTEX
  8
0
 10
8.755451
 20
499.206848
 42
0.011643
  0
VERTEX
  8
0
 10
11.431212
 20
495.349069
 42
0.007108
  0
VERTEX
  8
0
 10
14.758714
 20
490.916271
 42
-0.000395
  0
VERTEX
  8
0
 10
32.569607
 20
467.841028
 42
-0.000532
  0
VERTEX
  8
0
 10
48.649873
 20
446.927911
 42
-0.000087
  0
VERTEX
  8
0
 10
63.329549
 20
427.787318
 42
-0.029066
  0
VERTEX
  8
0
 10
64.375673
 20
426.244881
 42
-0.275188
  0
VERTEX
  8
0
 10
64.376430
 20
425.254739
 42
-0.010245
  0
VERTEX
  8
0
 10
62.326139
 20
421.961151
 42
-0.014204
  0
VERTEX
  8
0
 10
59.388415
 20
417.719202
 42
-0.006175
  0
VERTEX
  8
0
 10
55.257325
 20
412.244881
 42
-0.000024
  0
VERTEX
  8
0
 10
50.177295
 20
405.683849
 42
-0.000008
  0
VERTEX
  8
0
 10
42.624325
 20
395.930205
 42
-0.000008
  0
VERTEX
  8
0
 10
34.213467
 20
385.069404
 42
-0.000009
  0
VERTEX
  8
0
 10
26.107207
 20
374.602626
 42
0.001060
  0
VERTEX
  8
0
 10
18.683613
 20
364.975558
 42
0.001671
  0
VERTEX
  8
0
 10
12.358267
 20
356.679396
 42
0.000388
  0
VERTEX
  8
0
 10
6.844078
 20
349.385012
 42
0.070143
  0
VERTEX
  8
0
 10
6.380676
 20
348.549642
 42
0.396371
  0
VERTEX
  8
0
 10
6.678289
 20
347.822188
 42
0.001836
  0
VERTEX
  8
0
 10
14.815072
 20
344.149073
 42
0.006105
  0
VERTEX
  8
0
 10
25.017566
 20
339.737135
 42
0.002632
  0
VERTEX
  8
0
 10
38.718613
 20
334.094346
 42
-0.000244
  0
VERTEX
  8
0
 10
79.905758
 20
317.360962
 42
-0.007471
  0
VERTEX
  8
0
 10
90.121121
 20
313.025884
 42
-0.025400
  0
VERTEX
  8
0
 10
94.937873
 20
310.596891
 42
-0.269489
  0
VERTEX
  8
0
 10
96.000000
 20
308.769376
 42
-0.027661
  0
VERTEX
  8
0
 10
95.929360
 20
307.493452
 42
-0.002598
  0
VERTEX
  8
0
 10
95.566323
 20
304.372707
 42
-0.003325
  0
VERTEX
  8
0
 10
95.089029
 20
300.654140
 42
-0.002609
  0
VERTEX
  8
0
 10
94.523653
 20
296.628338
 42
0.003321
  0
VERTEX
  8
0
 10
93.013849
 20
285.765509
 42
0.000324
  0
VERTEX
  8
0
 10
89.557272
 20
259.492764
 42
0.000384
  0
VERTEX
  8
0
 10
86.160249
 20
233.386797
 42
0.002288
  0
VERTEX
  8
0
 10
84.459833
 20
219.750000
 42
0.006038
  0
VERTEX
  8
0
 10
84.051494
 20
215.962660
 42
0.104688
  0
VERTEX
  8
0
 10
84.191169
 20
214.735030
 42
0.264454
  0
VERTEX
  8
0
 10
84.822951
 20
214.167563
 42
0.053739
  0
VERTEX
  8
0
 10
86.377493
 20
214.000000
 42
0.031202
  0
VERTEX
  8
0
 10
88.334735
 20
214.122258
 42
0.000418
  0
VERTEX
  8
0
 10
100.338677
 20
215.637974
 42
0.001192
  0
VERTEX
  8
0
 10
114.242337
 20
217.439077
 42
0.000783
  0
VERTEX
  8
0
 10
130.242716
 20
219.576083
 42
-0.001070
  0
VERTEX
  8
0
 10
146.402499
 20
221.724951
 42
-0.001510
  0
VERTEX
  8
0
 10
160.810475
 20
223.565280
 42
-0.000865
  0
VERTEX
  8
0
 10
172.977468
 20
225.060659
 42
-0.021214
  0
VERTEX
  8
0
 10
176.367413
 20
225.326083
 42
0.000000
  0
VERTEX
  8
0
 10
181.234825
 20
225.500000
 42
0.000000
  0
VERTEX
  8
0
 10
199.570928
 20
181.129818
 42
0.000527
  0
VERTEX
  8
0
 10
206.636912
 20
164.082332
 42
0.000862
  0
VERTEX
  8
0
 10
212.667297
 20
149.646880
 42
0.000078
  0
VERTEX
  8
0
 10
218.093933
 20
136.725039
 42
0.097217
  0
VERTEX
  8
0
 10
218.405744
 20
136.260922
 42
0.371058
  0
VERTEX
  8
0
 10
219.172886
 20
136.203450
 42
0.000928
  0
VERTEX
  8
0
 10
228.601653
 20
143.189913
 42
0.002795
  0
VERTEX
  8
0
 10
242.681625
 20
153.786100
 42
0.000413
  0
VERTEX
  8
0
 10
270.980878
 20
175.369101
 42
-0.002010
  0
VERTEX
  8
0
 10
280.090534
 20
182.270856
 42
-0.003121
  0
VERTEX
  8
0
 10
288.010490
 20
188.144304
 42
-0.000950
  0
VERTEX
  8
0
 10
294.918044
 20
193.180300
 42
-0.099107
  0
VERTEX
  8
0
 10
295.980878
 20
193.668372
 42
-0.218026
  0
VERTEX
  8
0
 10
297.075966
 20
193.450477
 42
-0.000762
  0
VERTEX
  8
0
 10
308.181153
 20
185.399918
 42
-0.003836
  0
VERTEX
  8
0
 10
320.748632
 20
176.111781
 42
-0.002373
  0
VERTEX
  8
0
 10
335.380493
 20
165.014376
 42
0.000775
  0
VERTEX
  8
0
 10
349.951046
 20
153.889943
 42
0.001272
  0
VERTEX
  8
0
 10
362.324451
 20
144.522973
 42
0.000107
  0
VERTEX
  8
0
 10
373.437814
 20
136.158031
 42
0.162664
  0
VERTEX
  8
0
 10
373.910719
 20
136.000000
 42
0.300400
  0
VERTEX
  8
0
 10
374.276652
 20
136.241660
 42
0.000170
  0
VERTEX
  8
0
 10
379.634884
 20
148.804183
 42
0.001976
  0
VERTEX
  8
0
 10
385.565360
 20
162.875450
 42
0.001194
  0
VERTEX
  8
0
 10
392.484849
 20
179.588709
 42
-0.000866
  0
VERTEX
  8
0
 10
399.431175
 20
196.397984
 42
-0.001370
  0
VERTEX
  8
0
 10
405.451034
 20
210.782713
 42
-0.000300
  0
VERTEX
  8
0
 10
410.780307
 20
223.398758
 42
-0.060868
  0
VERTEX
  8
0
 10
411.454623
 20
224.571385
 42
-0.255071
  0
VERTEX
  8
0
 10
412.974025
 20
225.264265
 42
-0.006820
  0
VERTEX
  8
0
 10
420.565097
 20
224.615325
 42
-0.007169
  0
VERTEX
  8
0
 10
432.747460
 20
223.229649
 42
-0.001040
  0
VERTEX
  8
0
 10
457.500000
 20
220.001700
 42
-0.000288
  0
VERTEX
  8
0
 10
474.989891
 20
217.673603
 42
-0.000429
  0
VERTEX
  8
0
 10
490.276837
 20
215.616424
 42
-0.000177
  0
VERTEX
  8
0
 10
503.375988
 20
213.837485
 42
-0.009288
  0
VERTEX
  8
0
 10
505.889231
 20
213.447591
 42
0.000000
  0
VERTEX
  8
0
 10
509.278462
 20
212.857134
 42
0.000000
  0
VERTEX
  8
0
 10
508.675764
 20
216.678567
 42
-0.006788
  0
VERTEX
  8
0
 10
506.831912
 20
229.498151
 42
-0.000481
  0
VERTEX
  8
0
 10
502.206973
 20
265.343784
 42
-0.000129
  0
VERTEX
  8
0
 10
497.223525
 20
304.342305
 42
-0.031721
  0
VERTEX
  8
0
 10
497.000000
 20
307.862101
 42
-0.148698
  0
VERTEX
  8
0
 10
497.564013
 20
309.716671
 42
-0.111208
  0
VERTEX
  8
0
 10
499.122930
 20
311.194868
 42
-0.034827
  0
VERTEX
  8
0
 10
502.601088
 20
312.951578
 42
-0.002699
  0
VERTEX
  8
0
 10
512.250000
 20
316.947964
 42
0.000215
  0
VERTEX
  8
0
 10
541.892756
 20
329.053218
 42
0.000413
  0
VERTEX
  8
0
 10
565.632380
 20
338.782588
 42
0.000026
  0
VERTEX
  8
0
 10
586.340085
 20
347.290629
 42
0.071949
  0
VERTEX
  8
0
 10
586.860852
 20
347.598236
 42
0.405983
  0
VERTEX
  8
0
 10
586.893789
 20
347.866213
 42
0.000099
  0
VERTEX
  8
0
 10
578.784703
 20
358.550798
 42
0.001563
  0
VERTEX
  8
0
 10
569.709886
 20
370.425709
 42
0.000937
  0
VERTEX
  8
0
 10
558.860852
 20
384.476131
 42
-0.000244
  0
VERTEX
  8
0
 10
547.891883
 20
398.641242
 42
-0.000377
  0
VERTEX
  8
0
 10
538.429013
 20
410.892803
 42
-0.000112
  0
VERTEX
  8
0
 10
530.214303
 20
421.549891
 42
-0.011905
  0
VERTEX
  8
0
 10
529.131532
 20
423.026668
 42
-0.048060
  0
VERTEX
  8
0
 10
528.475161
 20
424.192417
 42
-0.127264
  0
VERTEX
  8
0
 10
528.320527
 20
425.129221
 42
-0.099351
  0
VERTEX
  8
0
 10
528.626711
 20
426.164214
 42
-0.022760
  0
VERTEX
  8
0
 10
529.555294
 20
427.744722
 42
-0.019729
  0
VERTEX
  8
0
 10
531.742416
 20
430.833316
 42
-0.000137
  0
VERTEX
  8
0
 10
551.430253
 20
456.417300
 42
-0.000610
  0
VERTEX
  8
0
 10
569.948979
 20
480.407817
 42
-0.001638
  0
VERTEX
  8
0
 10
583.202872
 20
497.419249
 42
0.016050
  0
VERTEX
  8
0
 10
584.625471
 20
499.357909
 42
0.025630
  0
VERTEX
  8
0
 10
585.698683
 20
501.109502
 42
0.023167
  0
VERTEX
  8
0
 10
586.392171
 20
502.537334
 42
0.315123
  0
VERTEX
  8
0
 10
586.280751
 20
503.073930
 42
0.090299
  0
VERTEX
  8
0
 10
585.573913
 20
503.532402
 42
0.000173
  0
VERTEX
  8
0
 10
572.951220
 20
508.794237
 42
0.001245
  0
VERTEX
  8
0
 10
558.733030
 20
514.673870
 42
0.000771
  0
VERTEX
  8
0
 10
542.000000
 20
521.514582
 42
-0.000959
  0
VERTEX
  8
0
 10
525.253565
 20
528.368116
 42
-0.001536
  0
VERTEX
  8
0
 10
510.991065
 20
534.288358
 42
-0.000264
  0
VERTEX
  8
0
 10
498.398886
 20
539.568515
 42
-0.089289
  0
VERTEX
  8
0
 10
497.522774
 20
540.137128
 42
-0.232395
  0
VERTEX
  8
0
 10
496.942143
 20
541.678207
 42
-0.004211
  0
VERTEX
  8
0
 10
497.885125
 20
550.644341
 42
-0.004164
  0
VERTEX
  8
0
 10
499.760964
 20
566.002589
 42
-0.000344
  0
VERTEX
  8
0
 10
505.000732
 20
605.909272
 42
0.001808
  0
VERTEX
  8
0
 10
506.501704
 20
617.606060
 42
0.002949
  0
VERTEX
  8
0
 10
507.680611
 20
627.540869
 42
0.000441
  0
VERTEX
  8
0
 10
508.664386
 20
636.340746
 42
0.227783
  0
VERTEX
  8
0
 10
508.486964
 20
636.846369
 42
0.229627
  0
VERTEX
  8
0
 10
507.498094
 20
637.189475
 42
0.001144
  0
VERTEX
  8
0
 10
496.762090
 20
635.897704
 42
0.002748
  0
VERTEX
  8
0
 10
480.454382
 20
633.806636
 42
0.000397
  0
VERTEX
  8
0
 10
447.206807
 20
629.330743
 42
-0.002090
  0
VERTEX
  8
0
 10
431.921585
 20
627.325670
 42
-0.005871
  0
VERTEX
  8
0
 10
421.202560
 20
626.092822
 42
-0.002463
  0
VERTEX
  8
0
 10
413.020345
 20
625.289678
 42
-0.223177
  0
VERTEX
  8
0
 10
411.909591
 20
625.690409
 42
-0.097522
  0
VERTEX
  8
0
 10
410.885190
 20
627.217177
 42
-0.000084
  0
VERTEX
  8
0
 10
393.722331
 20
668.225270
 42
-0.000284
  0
VERTEX
  8
0
 10
377.315152
 20
707.508983
 42
-0.027296
  0
VERTEX
  8
0
 10
375.281177
 20
713.250000
 42
0.031404
  0
VERTEX
  8
0
 10
375.037808
 20
713.919416
 42
0.042851
  0
VERTEX
  8
0
 10
374.731802
 20
714.483392
 42
0.049572
  0
VERTEX
  8
0
 10
374.411943
 20
714.877441
 42
0.203639
  0
VERTEX
  8
0
 10
374.133369
 20
714.991333
 42
0.160067
  0
VERTEX
  8
0
 10
373.672529
 20
714.832904
 42
0.000098
  0
VERTEX
  8
0
 10
362.398028
 20
706.284001
 42
0.001204
  0
VERTEX
  8
0
 10
349.851766
 20
696.719259
 42
0.000733
  0
VERTEX
  8
0
 10
335.072684
 20
685.361522
 42
-0.001272
  0
VERTEX
  8
0
 10
314.184704
 20
669.344893
 42
-0.008303
  0
VERTEX
  8
0
 10
303.535902
 20
661.498726
 42
-0.008080
  0
VERTEX
  8
0
 10
296.746402
 20
656.831407
 42
-0.294151
  0
VERTEX
  8
0
 10
294.938640
 20
656.806247
 42
-0.023323
  0
VERTEX
  8
0
 10
293.656754
 20
657.692457
 42
-0.000154
  0
VERTEX
  8
0
 10
282.836131
 20
665.949675
 42
-0.000615
  0
VERTEX
  8
0
 10
270.477823
 20
675.410415
 42
-0.000393
  0
VERTEX
  8
0
 10
256.135287
 20
686.436058
 42
0.000438
  0
VERTEX
  8
0
 10
241.885584
 20
697.388284
 42
0.000724
  0
VERTEX
  8
0
 10
229.830393
 20
706.609342
 42
0.000035
  0
VERTEX
  8
0
 10
218.942690
 20
714.911232
 42
0.164301
  0
VERTEX
  8
0
 10
218.679845
 20
715.000000
 42
0.247938
  0
VERTEX
  8
0
 10
218.494772
 20
714.902215
 42
0.014015
  0
VERTEX
  8
0
 10
218.133314
 20
714.339062
 42
0.018834
  0
VERTEX
  8
0
 10
217.731563
 20
713.612204
 42
0.012461
  0
SEQEND
  0
POLYLINE
  8
0
 66
1
 70
1
  0
VERTEX
  8
0
 10
261.957637
 20
666.588064
 42
-0.003165
  0
VERTEX
  8
0
 10
273.039864
 20
657.922380
 42
-0.006196
  0
VERTEX
  8
0
 10
281.735306
 20
650.856768
 42
-0.002751
  0
VERTEX
  8
0
 10
288.683648
 20
645.001277
 42
-0.157713
  0
VERTEX
  8
0
 10
289.551528
 20
643.592673
 42
-0.056576
  0
VERTEX
  8
0
 10
289.748742
 20
642.039676
 42
-0.001268
  0
VERTEX
  8
0
 10
289.829610
 20
634.512894
 42
-0.002847
  0
VERTEX
  8
0
 10
289.851785
 20
625.689613
 42
-0.001920
  0
VERTEX
  8
0
 10
289.781094
 20
615.621434
 42
0.000000
  0
VERTEX
  8
0
 10
289.500000
 20
589.742867
 42
0.000000
  0
VERTEX
  8
0
 10
271.500000
 20
603.739690
 42
-0.001936
  0
VERTEX
  8
0
 10
264.484156
 20
609.238949
 42
-0.002766
  0
VERTEX
  8
0
 10
258.303981
 20
614.177708
 42
-0.001517
  0
VERTEX
  8
0
 10
253.116977
 20
618.396103
 42
-0.041601
  0
VERTEX
  8
0
 10
251.853978
 20
619.618256
 42
-0.104503
  0
VERTEX
  8
0
 10
250.970770
 20
621.195637
 42
-0.001935
  0
VERTEX
  8
0
 10
248.156818
 20
630.347238
 42
-0.004670
  0
VERTEX
  8
0
 10
245.005243
 20
641.100509
 42
-0.003094
  0
VERTEX
  8
0
 10
241.579337
 20
653.500000
 42
0.000207
  0
VERTEX
  8
0
 10
238.230670
 20
665.898459
 42
0.000316
  0
VERTEX
  8
0
 10
235.316035
 20
676.645282
 42
0.000105
  0
VERTEX
  8
0
 10
232.786207
 20
685.942281
 42
0.008806
  0
VERTEX
  8
0
 10
232.374240
 20
687.356279
 42
-0.616920
  0
VERTEX
  8
0
 10
233.044171
 20
688.001193
 42
-0.068336
  0
VERTEX
  8
0
 10
235.529955
 20
686.720868
 42
-0.010781
  0
VERTEX
  8
0
 10
241.733950
 20
682.162737
 42
-0.000525
  0
SEQEND
  0
POLYLINE
  8
0
 66
1
 70
1
  0
VERTEX
  8
0
 10
351.428859
 20
654.451259
 42
-0.000902
  0
VERTEX
  8
0
 10
348.070394
 20
642.120121
 42
-0.001419
  0
VERTEX
  8
0
 10
345.137406
 20
631.545033
 42
-0.000335
  0
VERTEX
  8
0
 10
342.535201
 20
622.288828
 42
-0.058165
  0
VERTEX
  8
0
 10
342.144294
 20
621.340341
 42
-0.094633
  0
VERTEX
  8
0
 10
341.506897
 20
620.577157
 42
-0.000935
  0
VERTEX
  8
0
 10
335.961136
 20
616.052051
 42
-0.003032
  0
VERTEX
  8
0
 10
329.520562
 20
610.881393
 42
-0.001956
  0
VERTEX
  8
0
 10
322.000000
 20
604.966106
 42
0.000000
  0
VERTEX
  8
0
 10
302.500000
 20
589.751530
 42
0.000000
  0
VERTEX
  8
0
 10
302.233329
 20
615.910356
 42
-0.002834
  0
VERTEX
  8
0
 10
302.181472
 20
627.369264
 42
-0.006760
  0
VERTEX
  8
0
 10
302.306266
 20
635.879534
 42
-0.004685
  0
VERTEX
  8
0
 10
302.548038
 20
642.314889
 42
-0.111579
  0
VERTEX
  8
0
 10
303.026581
 20
644.049668
 42
-0.105270
  0
VERTEX
  8
0
 10
305.996179
 20
647.566983
 42
-0.001070
  0
VERTEX
  8
0
 10
331.882647
 20
667.563413
 42
-0.000498
  0
VERTEX
  8
0
 10
358.657100
 20
688.112023
 42
-0.549043
  0
VERTEX
  8
0
 10
359.784565
 20
687.699669
 42
-0.115400
  0
VERTEX
  8
0
 10
359.770649
 20
686.693301
 42
-0.000651
  0
VERTEX
  8
0
 10
357.447460
 20
677.397874
 42
-0.002740
  0
VERTEX
  8
0
 10
354.720360
 20
666.792607
 42
-0.001733
  0
SEQEND
  0
POLYLINE
  8
0
 66
1
 70
1
  0
VERTEX
  8
0
 10
229.414524
 20
652.500000
 42
-0.001773
  0
VERTEX
  8
0
 10
232.705827
 20
640.061407
 42
-0.002666
  0
VERTEX
  8
0
 10
235.479917
 20
629.187988
 42
-0.001070
  0
VERTEX
  8
0
 10
237.788424
 20
619.848726
 42
-0.060295
  0
VERTEX
  8
0
 10
238.001699
 20
618.076130
 42
-0.092413
  0
VERTEX
  8
0
 10
237.500587
 20
615.398431
 42
-0.000819
  0
VERTEX
  8
0
 10
230.004040
 20
596.124590
 42
-0.001966
  0
VERTEX
  8
0
 10
222.857704
 20
578.049867
 42
-0.031545
  0
VERTEX
  8
0
 10
220.039428
 20
572.117690
 42
-0.477917
  0
VERTEX
  8
0
 10
219.389375
 20
572.004390
 42
-0.047131
  0
VERTEX
  8
0
 10
218.135037
 20
573.330712
 42
-0.026308
  0
VERTEX
  8
0
 10
216.336160
 20
575.900601
 42
-0.007281
  0
VERTEX
  8
0
 10
213.787935
 20
580.117690
 42
-0.001003
  0
VERTEX
  8
0
 10
205.294153
 20
594.715198
 42
-0.002104
  0
VERTEX
  8
0
 10
198.760499
 20
606.106277
 42
-0.001120
  0
VERTEX
  8
0
 10
193.645636
 20
615.158509
 42
-0.042083
  0
VERTEX
  8
0
 10
192.670061
 20
617.297205
 42
-0.169941
  0
VERTEX
  8
0
 10
192.659334
 20
618.791870
 42
-0.004143
  0
VERTEX
  8
0
 10
194.976910
 20
625.390243
 42
-0.007574
  0
VERTEX
  8
0
 10
198.153233
 20
633.798065
 42
-0.003360
  0
VERTEX
  8
0
 10
202.585715
 20
644.797205
 42
0.000303
  0
VERTEX
  8
0
 10
206.855374
 20
655.208203
 42
0.000339
  0
VERTEX
  8
0
 10
210.952659
 20
665.235559
 42
0.000311
  0
VERTEX
  8
0
 10
214.430675
 20
673.779108
 42
0.001820
  0
VERTEX
  8
0
 10
216.241152
 20
678.281293
 42
-0.011010
  0
VERTEX
  8
0
 10
217.482095
 20
681.210495
 42
-0.019764
  0
VERTEX
  8
0
 10
218.646472
 20
683.547326
 42
-0.016516
  0
VERTEX
  8
0
 10
219.648844
 20
685.239367
 42
-0.486982
  0
VERTEX
  8
0
 10
220.081532
 20
685.281293
 42
-0.121047
  0
VERTEX
  8
0
 10
220.491369
 20
684.565679
 42
-0.000455
  0
VERTEX
  8
0
 10
223.130046
 20
675.329505
 42
-0.002329
  0
VERTEX
  8
0
 10
226.068329
 20
664.823505
 42
-0.001457
  0
SEQEND
  0
POLYLINE
  8
0
 66
1
 70
1
  0
VERTEX
  8
0
 10
386.931632
 20
652.654436
 42
-0.002124
  0
VERTEX
  8
0
 10
391.940257
 20
640.300035
 42
-0.003263
  0
VERTEX
  8
0
 10
396.161167
 20
629.557643
 42
-0.001109
  0
VERTEX
  8
0
 10
399.722819
 20
620.254908
 42
-0.091107
  0
VERTEX
  8
0
 10
400.000000
 20
618.746360
 42
-0.122426
  0
VERTEX
  8
0
 10
399.441195
 20
616.498347
 42
-0.004255
  0
VERTEX
  8
0
 10
395.122651
 20
608.513542
 42
-0.005595
  0
VERTEX
  8
0
 10
388.682600
 20
597.147112
 42
-0.001489
  0
VERTEX
  8
0
 10
378.160608
 20
579.174730
 42
-0.008108
  0
VERTEX
  8
0
 10
375.752276
 20
575.236470
 42
-0.023222
  0
VERTEX
  8
0
 10
373.910967
 20
572.610353
 42
-0.032283
  0
VERTEX
  8
0
 10
372.564820
 20
571.083177
 42
-0.507083
  0
VERTEX
  8
0
 10
371.978211
 20
571.174730
 42
-0.023097
  0
VERTEX
  8
0
 10
371.509023
 20
572.194561
 42
-0.000312
  0
VERTEX
  8
0
 10
368.923040
 20
578.587539
 42
-0.000887
  0
VERTEX
  8
0
 10
365.944204
 20
586.002832
 42
-0.000583
  0
VERTEX
  8
0
 10
362.540300
 20
594.548808
 42
0.000000
  0
VERTEX
  8
0
 10
353.787927
 20
616.597616
 42
0.000000
  0
VERTEX
  8
0
 10
363.102305
 20
651.290467
 42
-0.002325
  0
VERTEX
  8
0
 10
366.726294
 20
664.542163
 42
-0.003966
  0
VERTEX
  8
0
 10
369.893050
 20
675.574431
 42
-0.000736
  0
VERTEX
  8
0
 10
372.737189
 20
685.142567
 42
-0.572007
  0
VERTEX
  8
0
 10
373.139972
 20
685.241659
 42
-0.093086
  0
VERTEX
  8
0
 10
373.585607
 20
684.572076
 42
-0.000305
  0
VERTEX
  8
0
 10
377.489630
 20
675.363228
 42
-0.001685
  0
VERTEX
  8
0
 10
381.869699
 20
664.915960
 42
-0.001053
  0
SEQEND
  0
POLYLINE
  8
0
 66
1
 70
1
  0
VERTEX
  8
0
 10
143.428290
 20
617.442230
 42
-0.001516
  0
VERTEX
  8
0
 10
156.636120
 20
615.634652
 42
-0.002304
  0
VERTEX
  8
0
 10
168.100773
 20
613.976333
 42
-0.000838
  0
VERTEX
  8
0
 10
177.965414
 20
612.486119
 42
-0.058434
  0
VERTEX
  8
0
 10
179.574341
 20
612.043704
 42
-0.161949
  0
VERTEX
  8
0
 10
181.945231
 20
610.021521
 42
-0.001319
  0
VERTEX
  8
0
 10
194.762400
 20
588.680895
 42
-0.000833
  0
VERTEX
  8
0
 10
207.745394
 20
566.851903
 42
-0.342606
  0
VERTEX
  8
0
 10
207.537985
 20
565.204652
 42
-0.229559
  0
VERTEX
  8
0
 10
206.695915
 20
564.912360
 42
-0.000854
  0
VERTEX
  8
0
 10
196.125936
 20
566.175184
 42
-0.003723
  0
VERTEX
  8
0
 10
183.220385
 20
567.837005
 42
-0.001638
  0
VERTEX
  8
0
 10
166.165696
 20
570.219231
 42
0.000000
  0
VERTEX
  8
0
 10
158.831393
 20
571.268200
 42
0.000000
  0
VERTEX
  8
0
 10
133.165696
 20
596.592631
 42
-0.001772
  0
VERTEX
  8
0
 10
123.389009
 20
606.307962
 42
-0.003037
  0
VERTEX
  8
0
 10
115.311983
 20
614.490191
 42
-0.000506
  0
VERTEX
  8
0
 10
108.316843
 20
621.677597
 42
-0.646975
  0
VERTEX
  8
0
 10
108.428290
 20
621.958531
 42
-0.043153
  0
VERTEX
  8
0
 10
109.162321
 20
621.927971
 42
-0.000117
  0
VERTEX
  8
0
 10
119.092460
 20
620.648973
 42
-0.000716
  0
VERTEX
  8
0
 10
130.299762
 20
619.186490
 42
-0.000447
  0
SEQEND
  0
POLYLINE
  8
0
 66
1
 70
1
  0
VERTEX
  8
0
 10
459.563425
 20
597.063463
 42
-0.003102
  0
VERTEX
  8
0
 10
449.852082
 20
587.466127
 42
-0.004764
  0
VERTEX
  8
0
 10
441.313284
 20
579.289075
 42
-0.001740
  0
VERTEX
  8
0
 10
433.888359
 20
572.361598
 42
-0.126003
  0
VERTEX
  8
0
 10
432.431535
 20
571.572172
 42
-0.026256
  0
VERTEX
  8
0
 10
428.898920
 20
570.880302
 42
-0.000422
  0
VERTEX
  8
0
 10
408.778095
 20
568.043621
 42
-0.000329
  0
VERTEX
  8
0
 10
388.349376
 20
565.194833
 42
-0.034488
  0
VERTEX
  8
0
 10
385.528099
 20
565.000000
 42
-0.575962
  0
VERTEX
  8
0
 10
384.892101
 20
566.096298
 42
-0.001169
  0
VERTEX
  8
0
 10
397.046240
 20
587.237137
 42
-0.002381
  0
VERTEX
  8
0
 10
408.882191
 20
607.490419
 42
-0.101492
  0
VERTEX
  8
0
 10
412.217501
 20
611.173263
 42
-0.108330
  0
VERTEX
  8
0
 10
414.415311
 20
612.146238
 42
-0.006656
  0
VERTEX
  8
0
 10
421.488857
 20
613.489308
 42
-0.007303
  0
VERTEX
  8
0
 10
431.635392
 20
615.123842
 42
-0.002241
  0
VERTEX
  8
0
 10
447.000000
 20
617.298963
 42
-0.000611
  0
VERTEX
  8
0
 10
459.634821
 20
619.014172
 42
-0.000913
  0
VERTEX
  8
0
 10
470.685297
 20
620.480010
 42
-0.000377
  0
VERTEX
  8
0
 10
480.156814
 20
621.711545
 42
-0.019682
  0
VERTEX
  8
0
 10
481.992499
 20
621.875700
 42
-0.642502
  0
VERTEX
  8
0
 10
482.420210
 20
621.051030
 42
-0.017820
  0
VERTEX
  8
0
 10
479.002639
 20
616.988249
 42
-0.010770
  0
VERTEX
  8
0
 10
472.501565
 20
610.100619
 42
-0.001756
  0
SEQEND
  0
POLYLINE
  8
0
 66
1
 70
1
  0
VERTEX
  8
0
 10
153.480807
 20
542.500000
 42
0.000536
  0
VERTEX
  8
0
 10
154.524463
 20
534.840715
 42
0.000618
  0
VERTEX
  8
0
 10
155.536558
 20
527.539062
 42
0.000553
  0
VERTEX
  8
0
 10
156.408707
 20
521.353560
 42
0.003611
  0
VERTEX
  8
0
 10
156.872693
 20
518.250000
 42
-0.008253
  0
VERTEX
  8
0
 10
157.154591
 20
516.236757
 42
-0.013981
  0
VERTEX
  8
0
 10
157.315468
 20
514.542187
 42
-0.007731
  0
VERTEX
  8
0
 10
157.385906
 20
513.168474
 42
-0.424729
  0
VERTEX
  8
0
 10
157.223353
 20
513.000000
 42
-0.127504
  0
VERTEX
  8
0
 10
156.866585
 20
513.092482
 42
-0.000138
  0
VERTEX
  8
0
 10
149.878160
 20
516.979125
 42
-0.001299
  0
VERTEX
  8
0
 10
142.067503
 20
521.352489
 42
-0.000797
  0
VERTEX
  8
0
 10
132.882683
 20
526.545957
 42
-0.002920
  0
VERTEX
  8
0
 10
121.220219
 20
533.255282
 42
-0.011435
  0
VERTEX
  8
0
 10
114.141560
 20
537.602687
 42
-0.011974
  0
VERTEX
  8
0
 10
109.553205
 20
540.725472
 42
-0.182550
  0
VERTEX
  8
0
 10
108.505888
 20
542.295957
 42
-0.022621
  0
VERTEX
  8
0
 10
108.037730
 20
544.842798
 42
-0.000125
  0
VERTEX
  8
0
 10
104.678768
 20
569.332887
 42
-0.000626
  0
VERTEX
  8
0
 10
101.563575
 20
592.301821
 42
-0.001586
  0
VERTEX
  8
0
 10
99.374049
 20
609.000000
 42
0.000000
  0
VERTEX
  8
0
 10
98.798509
 20
613.500000
 42
0.000000
  0
VERTEX
  8
0
 10
124.855556
 20
587.500000
 42
0.000000
  0
VERTEX
  8
0
 10
150.912602
 20
561.500000
 42
0.000000
  0
SEQEND
  0
POLYLINE
  8
0
 66
1
 70
1
  0
VERTEX
  8
0
 10
489.555935
 20
581.347363
 42
-0.000839
  0
VERTEX
  8
0
 10
485.758235
 20
553.053043
 42
-0.020311
  0
VERTEX
  8
0
 10
484.365909
 20
545.211115
 42
-0.081988
  0
VERTEX
  8
0
 10
482.790169
 20
541.265342
 42
-0.114631
  0
VERTEX
  8
0
 10
480.150990
 20
538.553513
 42
-0.012105
  0
VERTEX
  8
0
 10
472.688253
 20
534.013932
 42
-0.001374
  0
VERTEX
  8
0
 10
455.537155
 20
524.204250
 42
-0.000193
  0
VERTEX
  8
0
 10
436.340521
 20
513.304294
 42
-0.129727
  0
VERTEX
  8
0
 10
435.187433
 20
513.000000
 42
-0.453555
  0
VERTEX
  8
0
 10
434.513623
 20
513.769520
 42
-0.000580
  0
VERTEX
  8
0
 10
437.538968
 20
536.281015
 42
-0.001580
  0
VERTEX
  8
0
 10
440.516871
 20
557.737001
 42
-0.087806
  0
VERTEX
  8
0
 10
441.772989
 20
561.575826
 42
-0.069986
  0
VERTEX
  8
0
 10
442.791504
 20
562.969401
 42
-0.001052
  0
VERTEX
  8
0
 10
449.838109
 20
570.193075
 42
-0.002823
  0
VERTEX
  8
0
 10
458.096574
 20
578.528837
 42
-0.001859
  0
VERTEX
  8
0
 10
467.685849
 20
588.028267
 42
-0.001790
  0
VERTEX
  8
0
 10
480.766560
 20
600.798595
 42
-0.011053
  0
VERTEX
  8
0
 10
487.659805
 20
607.190852
 42
-0.015686
  0
VERTEX
  8
0
 10
491.863380
 20
610.690231
 42
-0.575790
  0
VERTEX
  8
0
 10
492.806792
 20
610.311240
 42
-0.062734
  0
VERTEX
  8
0
 10
492.835900
 20
608.750247
 42
-0.001278
  0
VERTEX
  8
0
 10
491.978405
 20
600.930039
 42
-0.002990
  0
VERTEX
  8
0
 10
490.897010
 20
591.788776
 42
-0.002004
  0
SEQEND
  0
POLYLINE
  8
0
 66
1
 70
1
  0
VERTEX
  8
0
 10
269.935785
 20
589.500000
 42
-0.002449
  0
VERTEX
  8
0
 10
279.981353
 20
581.594202
 42
-0.015800
  0
VERTEX
  8
0
 10
284.904378
 20
577.420120
 42
-0.037175
  0
VERTEX
  8
0
 10
287.174173
 20
575.039768
 42
-0.592351
  0
VERTEX
  8
0
 10
286.844484
 20
574.219675
 42
0.010453
  0
VERTEX
  8
0
 10
271.362484
 20
572.039364
 42
0.019577
  0
VERTEX
  8
0
 10
258.969593
 20
569.527682
 42
0.022288
  0
VERTEX
  8
0
 10
247.956662
 20
566.316945
 42
0.019702
  0
VERTEX
  8
0
 10
236.801646
 20
562.020494
 42
-0.005288
  0
VERTEX
  8
0
 10
232.252601
 20
560.116095
 42
-0.032393
  0
VERTEX
  8
0
 10
229.839356
 20
559.313346
 42
-0.120654
  0
VERTEX
  8
0
 10
228.738590
 20
559.295491
 42
-0.449804
  0
VERTEX
  8
0
 10
228.445515
 20
559.830070
 42
-0.009147
  0
VERTEX
  8
0
 10
228.912311
 20
561.062038
 42
-0.000161
  0
VERTEX
  8
0
 10
231.558439
 20
567.671661
 42
-0.000405
  0
VERTEX
  8
0
 10
234.649575
 20
575.367600
 42
-0.000270
  0
VERTEX
  8
0
 10
238.202902
 20
584.179840
 42
-0.001962
  0
VERTEX
  8
0
 10
243.581012
 20
597.347723
 42
-0.018641
  0
VERTEX
  8
0
 10
246.111866
 20
602.881411
 42
-0.048445
  0
VERTEX
  8
0
 10
247.760683
 20
605.493606
 42
-0.401963
  0
VERTEX
  8
0
 10
249.022425
 20
605.679840
 42
-0.009931
  0
VERTEX
  8
0
 10
250.219131
 20
604.793087
 42
-0.000225
  0
VERTEX
  8
0
 10
255.850548
 20
600.440328
 42
-0.000505
  0
VERTEX
  8
0
 10
262.437849
 20
595.333345
 42
-0.000342
  0
SEQEND
  0
POLYLINE
  8
0
 66
1
 70
1
  0
VERTEX
  8
0
 10
345.000000
 20
605.634103
 42
0.095566
  0
VERTEX
  8
0
 10
345.054983
 20
605.349057
 42
0.000076
  0
VERTEX
  8
0
 10
347.779355
 20
598.552943
 42
0.000842
  0
VERTEX
  8
0
 10
350.834028
 20
590.973201
 42
0.000515
  0
VERTEX
  8
0
 10
354.461633
 20
582.041837
 42
-0.002701
  0
VERTEX
  8
0
 10
358.880275
 20
571.025020
 42
-0.011152
  0
VERTEX
  8
0
 10
361.367137
 20
564.290411
 42
-0.012731
  0
VERTEX
  8
0
 10
362.727792
 20
559.983058
 42
-0.627742
  0
VERTEX
  8
0
 10
362.211633
 20
559.520980
 42
0.013543
  0
VERTEX
  8
0
 10
348.091700
 20
564.898451
 42
0.017180
  0
VERTEX
  8
0
 10
334.770653
 20
569.054813
 42
0.018645
  0
VERTEX
  8
0
 10
322.247660
 20
571.997565
 42
0.023892
  0
VERTEX
  8
0
 10
310.533185
 20
573.717022
 42
0.000000
  0
VERTEX
  8
0
 10
302.566370
 20
574.500000
 42
0.000000
  0
VERTEX
  8
0
 10
322.533185
 20
590.179194
 42
-0.002585
  0
VERTEX
  8
0
 10
333.810214
 20
598.940758
 42
-0.013199
  0
VERTEX
  8
0
 10
340.228884
 20
603.610434
 42
-0.019168
  0
VERTEX
  8
0
 10
344.176168
 20
606.108483
 42
-0.578116
  0
SEQEND
  0
POLYLINE
  8
0
 66
1
 70
1
  0
VERTEX
  8
0
 10
293.000000
 20
553.671126
 42
0.000000
  0
VERTEX
  8
0
 10
293.000000
 20
539.342253
 42
0.000000
  0
VERTEX
  8
0
 10
287.250000
 20
539.117231
 42
0.050868
  0
VERTEX
  8
0
 10
271.791650
 20
536.926771
 42
0.034442
  0
VERTEX
  8
0
 10
254.840622
 20
531.473133
 42
0.033755
  0
VERTEX
  8
0
 10
238.337776
 20
523.549894
 42
0.041321
  0
VERTEX
  8
0
 10
224.197624
 20
513.923930
 42
0.000000
  0
VERTEX
  8
0
 10
218.477222
 20
509.295338
 42
0.000000
  0
VERTEX
  8
0
 10
208.269758
 20
518.981691
 42
0.000000
  0
VERTEX
  8
0
 10
198.062294
 20
528.668044
 42
0.000000
  0
VERTEX
  8
0
 10
201.281147
 20
531.692806
 42
-0.036490
  0
VERTEX
  8
0
 10
213.066068
 20
541.249643
 42
-0.026583
  0
VERTEX
  8
0
 10
227.405742
 20
550.145779
 42
-0.026199
  0
VERTEX
  8
0
 10
242.899283
 20
557.624960
 42
-0.031571
  0
VERTEX
  8
0
 10
258.168092
 20
562.927168
 42
-0.016328
  0
VERTEX
  8
0
 10
265.427289
 20
564.691737
 42
-0.010468
  0
VERTEX
  8
0
 10
273.953304
 20
566.286111
 42
-0.010433
  0
VERTEX
  8
0
 10
282.159426
 20
567.468190
 42
-0.025458
  0
VERTEX
  8
0
 10
288.250000
 20
567.903145
 42
0.000000
  0
VERTEX
  8
0
 10
293.000000
 20
568.000000
 42
0.000000
  0
SEQEND
  0
POLYLINE
  8
0
 66
1
 70
1
  0
VERTEX
  8
0
 10
325.752292
 20
564.883395
 42
-0.028610
  0
VERTEX
  8
0
 10
342.494071
 20
560.260716
 42
-0.030555
  0
VERTEX
  8
0
 10
358.223505
 20
553.837298
 42
-0.030476
  0
VERTEX
  8
0
 10
373.089129
 20
545.527425
 42
-0.028161
  0
VERTEX
  8
0
 10
387.250000
 20
535.268177
 42
-0.009626
  0
VERTEX
  8
0
 10
389.834421
 20
533.080174
 42
-0.014193
  0
VERTEX
  8
0
 10
392.009309
 20
531.053407
 42
-0.009372
  0
VERTEX
  8
0
 10
393.717732
 20
529.303868
 42
-0.197083
  0
VERTEX
  8
0
 10
393.973180
 20
528.636541
 42
-0.182758
  0
VERTEX
  8
0
 10
393.682088
 20
527.918438
 42
-0.003931
  0
VERTEX
  8
0
 10
391.037795
 20
525.105530
 42
-0.008510
  0
VERTEX
  8
0
 10
387.824961
 20
521.853872
 42
-0.005575
  0
VERTEX
  8
0
 10
384.018043
 20
518.212072
 42
0.000000
  0
VERTEX
  8
0
 10
374.089726
 20
508.924144
 42
0.000000
  0
VERTEX
  8
0
 10
370.294863
 20
512.266401
 42
0.040654
  0
VERTEX
  8
0
 10
358.119425
 20
521.346772
 42
0.033253
  0
VERTEX
  8
0
 10
343.807275
 20
529.037027
 42
0.033161
  0
VERTEX
  8
0
 10
328.553123
 20
534.783584
 42
0.039704
  0
VERTEX
  8
0
 10
313.559366
 20
538.051778
 42
-0.000226
  0
VERTEX
  8
0
 10
310.246976
 20
538.504042
 42
-0.000231
  0
VERTEX
  8
0
 10
306.958784
 20
538.956062
 42
-0.000224
  0
VERTEX
  8
0
 10
304.103363
 20
539.351234
 42
-0.000965
  0
VERTEX
  8
0
 10
302.406709
 20
539.590151
 42
0.000000
  0
VERTEX
  8
0
 10
299.313417
 20
540.031829
 42
0.000000
  0
VERTEX
  8
0
 10
299.242093
 20
554.146506
 42
0.000000
  0
VERTEX
  8
0
 10
299.170769
 20
568.261183
 42
0.000000
  0
VERTEX
  8
0
 10
307.835385
 20
567.568956
 42
-0.011133
  0
VERTEX
  8
0
 10
311.819626
 20
567.161198
 42
-0.006132
  0
VERTEX
  8
0
 10
316.672630
 20
566.494529
 42
-0.006110
  0
VERTEX
  8
0
 10
321.580485
 20
565.697451
 42
-0.009744
  0
SEQEND
  0
POLYLINE
  8
0
 66
1
 70
1
  0
VERTEX
  8
0
 10
190.000000
 20
554.867156
 42
-0.002070
  0
VERTEX
  8
0
 10
199.059637
 20
553.618141
 42
-0.003284
  0
VERTEX
  8
0
 10
206.805799
 20
552.465560
 42
-0.000779
  0
VERTEX
  8
0
 10
213.570568
 20
551.402745
 42
-0.141713
  0
VERTEX
  8
0
 10
214.211231
 20
551.101959
 42
-0.438987
  0
VERTEX
  8
0
 10
214.221595
 20
550.651158
 42
-0.008884
  0
VERTEX
  8
0
 10
212.363551
 20
548.924726
 42
-0.014925
  0
VERTEX
  8
0
 10
209.939433
 20
546.878438
 42
-0.008730
  0
VERTEX
  8
0
 10
206.922509
 20
544.566949
 42
0.027122
  0
VERTEX
  8
0
 10
199.423353
 20
538.370784
 42
0.011881
  0
VERTEX
  8
0
 10
190.151269
 20
529.406279
 42
0.011830
  0
VERTEX
  8
0
 10
181.367618
 20
520.068742
 42
0.029100
  0
VERTEX
  8
0
 10
175.500000
 20
512.707970
 42
-0.005392
  0
VERTEX
  8
0
 10
173.930364
 20
510.535148
 42
-0.008400
  0
VERTEX
  8
0
 10
172.526684
 20
508.700842
 42
-0.003490
  0
VERTEX
  8
0
 10
171.299998
 20
507.174444
 42
-0.214232
  0
VERTEX
  8
0
 10
170.995096
 20
507.021565
 42
-0.385806
  0
VERTEX
  8
0
 10
170.606407
 20
507.344813
 42
-0.000103
  0
VERTEX
  8
0
 10
167.291484
 20
530.794437
 42
-0.000623
  0
VERTEX
  8
0
 10
164.207301
 20
552.842734
 42
-0.039296
  0
VERTEX
  8
0
 10
163.975786
 20
556.750000
 42
-0.349809
  0
VERTEX
  8
0
 10
164.706508
 20
557.631086
 42
-0.069520
  0
VERTEX
  8
0
 10
166.897376
 20
557.777197
 42
-0.014600
  0
VERTEX
  8
0
 10
171.817917
 20
557.276431
 42
-0.000561
  0
SEQEND
  0
POLYLINE
  8
0
 66
1
 70
1
  0
VERTEX
  8
0
 10
427.991088
 20
557.250000
 42
-0.031268
  0
VERTEX
  8
0
 10
427.817080
 20
554.915425
 42
-0.000192
  0
VERTEX
  8
0
 10
424.913187
 20
533.898241
 42
-0.000256
  0
VERTEX
  8
0
 10
422.033727
 20
513.194861
 42
-0.023041
  0
VERTEX
  8
0
 10
421.465894
 20
510.156902
 42
-0.142913
  0
VERTEX
  8
0
 10
420.945567
 20
509.236978
 42
-0.368779
  0
VERTEX
  8
0
 10
420.240083
 20
509.190684
 42
-0.065839
  0
VERTEX
  8
0
 10
419.033595
 20
510.366611
 42
-0.004497
  0
VERTEX
  8
0
 10
416.105612
 20
514.156902
 42
0.017506
  0
VERTEX
  8
0
 10
409.720293
 20
521.992637
 42
0.015543
  0
VERTEX
  8
0
 10
402.552340
 20
529.689207
 42
0.015449
  0
VERTEX
  8
0
 10
394.870148
 20
536.975681
 42
0.016685
  0
VERTEX
  8
0
 10
386.942243
 20
543.581835
 42
-0.003788
  0
VERTEX
  8
0
 10
381.377265
 20
547.980884
 42
-0.033591
  0
VERTEX
  8
0
 10
379.076673
 20
550.096963
 42
-0.177453
  0
VERTEX
  8
0
 10
378.611889
 20
551.170022
 42
-0.394582
  0
VERTEX
  8
0
 10
379.133976
 20
551.797266
 42
0.003591
  0
VERTEX
  8
0
 10
380.783611
 20
552.016573
 42
0.000149
  0
VERTEX
  8
0
 10
386.679981
 20
552.845384
 42
0.000258
  0
VERTEX
  8
0
 10
393.665912
 20
553.833146
 42
0.000183
  0
VERTEX
  8
0
 10
401.500000
 20
554.947888
 42
-0.002010
  0
VERTEX
  8
0
 10
415.413457
 20
556.875841
 42
-0.011747
  0
VERTEX
  8
0
 10
422.758381
 20
557.688372
 42
-0.013698
  0
VERTEX
  8
0
 10
427.270601
 20
557.956211
 42
-0.427094
  0
SEQEND
  0
POLYLINE
  8
0
 66
1
 70
1
  0
VERTEX
  8
0
 10
318.460903
 20
530.949068
 42
0.000000
  0
VERTEX
  8
0
 10
323.421806
 20
529.748068
 42
0.000000
  0
VERTEX
  8
0
 10
320.460903
 20
527.352605
 42
-0.006097
  0
VERTEX
  8
0
 10
312.927321
 20
521.408223
 42
-0.006120
  0
VERTEX
  8
0
 10
305.260166
 20
515.656729
 42
-0.001962
  0
VERTEX
  8
0
 10
298.043988
 20
510.423650
 42
-0.158136
  0
VERTEX
  8
0
 10
296.735500
 20
510.004748
 42
-0.139953
  0
VERTEX
  8
0
 10
295.947837
 20
510.232903
 42
-0.006090
  0
VERTEX
  8
0
 10
293.512928
 20
511.801252
 42
-0.009952
  0
VERTEX
  8
0
 10
290.654824
 20
513.774710
 42
-0.006897
  0
VERTEX
  8
0
 10
287.500000
 20
516.113838
 42
0.000133
  0
VERTEX
  8
0
 10
284.090953
 20
518.713648
 42
0.000111
  0
VERTEX
  8
0
 10
280.462557
 20
521.477937
 42
0.000112
  0
VERTEX
  8
0
 10
277.137386
 20
524.008875
 42
0.000303
  0
VERTEX
  8
0
 10
274.776789
 20
525.802545
 42
-0.010608
  0
VERTEX
  8
0
 10
272.999946
 20
527.211346
 42
-0.017949
  0
VERTEX
  8
0
 10
271.581420
 20
528.474403
 42
-0.012430
  0
VERTEX
  8
0
 10
270.526962
 20
529.534872
 42
-0.406123
  0
VERTEX
  8
0
 10
270.531532
 20
529.864866
 42
-0.184085
  0
VERTEX
  8
0
 10
274.941418
 20
531.841099
 42
-0.008648
  0
VERTEX
  8
0
 10
291.516582
 20
532.503018
 42
-0.014586
  0
VERTEX
  8
0
 10
307.940702
 20
532.395384
 42
-0.050493
  0
SEQEND
  0
POLYLINE
  8
0
 66
1
 70
1
  0
VERTEX
  8
0
 10
126.667310
 20
516.057493
 42
-0.002741
  0
VERTEX
  8
0
 10
135.411979
 20
511.037117
 42
-0.004496
  0
VERTEX
  8
0
 10
142.753799
 20
506.679647
 42
-0.000865
  0
VERTEX
  8
0
 10
149.144130
 20
502.793650
 42
-0.305525
  0
VERTEX
  8
0
 10
149.366900
 20
502.307493
 42
-0.261478
  0
VERTEX
  8
0
 10
148.372403
 20
501.064693
 42
-0.000715
  0
VERTEX
  8
0
 10
127.648388
 20
492.715211
 42
-0.001634
  0
VERTEX
  8
0
 10
107.742969
 20
484.804048
 42
-0.090798
  0
VERTEX
  8
0
 10
103.823762
 20
484.034333
 42
-0.066050
  0
VERTEX
  8
0
 10
100.187572
 20
484.469387
 42
-0.000444
  0
VERTEX
  8
0
 10
69.365020
 20
492.401242
 42
-0.000232
  0
VERTEX
  8
0
 10
37.804594
 20
500.568472
 42
-0.133716
  0
VERTEX
  8
0
 10
36.154295
 20
501.512371
 42
-0.495368
  0
VERTEX
  8
0
 10
36.251151
 20
502.228293
 42
-0.024156
  0
VERTEX
  8
0
 10
38.726749
 20
503.480060
 42
-0.008040
  0
VERTEX
  8
0
 10
44.036535
 20
505.748628
 42
-0.000359
  0
VERTEX
  8
0
 10
62.500000
 20
513.272835
 42
0.000150
  0
VERTEX
  8
0
 10
72.894820
 20
517.503836
 42
0.000182
  0
VERTEX
  8
0
 10
82.625000
 20
521.471836
 42
0.000153
  0
VERTEX
  8
0
 10
90.808442
 20
524.815464
 42
0.001281
  0
VERTEX
  8
0
 10
94.500000
 20
526.336143
 42
-0.007861
  0
VERTEX
  8
0
 10
96.919452
 20
527.295755
 42
-0.009416
  0
VERTEX
  8
0
 10
99.227272
 20
528.120018
 42
-0.008313
  0
VERTEX
  8
0
 10
101.190054
 20
528.743526
 42
-0.059758
  0
VERTEX
  8
0
 10
102.167310
 20
528.912872
 42
-0.132856
  0
VERTEX
  8
0
 10
103.351560
 20
528.658035
 42
-0.001774
  0
VERTEX
  8
0
 10
110.051951
 20
525.172545
 42
-0.004920
  0
VERTEX
  8
0
 10
117.795731
 20
521.011624
 42
-0.003195
  0
SEQEND
  0
POLYLINE
  8
0
 66
1
 70
1
  0
VERTEX
  8
0
 10
267.000000
 20
528.120105
 42
-0.096716
  0
VERTEX
  8
0
 10
266.679251
 20
526.477425
 42
-0.000685
  0
VERTEX
  8
0
 10
261.318140
 20
513.324377
 42
-0.000792
  0
VERTEX
  8
0
 10
255.958919
 20
500.286254
 42
-0.082337
  0
VERTEX
  8
0
 10
254.938316
 20
498.643352
 42
-0.246720
  0
VERTEX
  8
0
 10
253.628570
 20
498.140110
 42
-0.001135
  0
VERTEX
  8
0
 10
238.586844
 20
499.941795
 42
-0.001476
  0
VERTEX
  8
0
 10
223.746745
 20
501.797991
 42
-0.170022
  0
VERTEX
  8
0
 10
222.021305
 20
502.661921
 42
-0.420015
  0
VERTEX
  8
0
 10
222.044077
 20
503.554207
 42
-0.008775
  0
VERTEX
  8
0
 10
225.682601
 20
506.826470
 42
-0.016330
  0
VERTEX
  8
0
 10
230.101795
 20
510.416511
 42
-0.013771
  0
VERTEX
  8
0
 10
235.000000
 20
513.928510
 42
-0.011539
  0
VERTEX
  8
0
 10
241.450088
 20
518.075799
 42
-0.014916
  0
VERTEX
  8
0
 10
247.562611
 20
521.563587
 42
-0.016270
  0
VERTEX
  8
0
 10
253.358812
 20
524.407586
 42
-0.021073
  0
VERTEX
  8
0
 10
258.854234
 20
526.611935
 42
-0.003088
  0
VERTEX
  8
0
 10
263.758091
 20
528.308956
 42
-0.035993
  0
VERTEX
  8
0
 10
265.719230
 20
528.820236
 42
-0.153797
  0
VERTEX
  8
0
 10
266.620718
 20
528.709587
 42
-0.293916
  0
SEQEND
  0
POLYLINE
  8
0
 66
1
 70
1
  0
VERTEX
  8
0
 10
333.517556
 20
526.529613
 42
-0.019882
  0
VERTEX
  8
0
 10
341.604305
 20
523.112930
 42
-0.019329
  0
VERTEX
  8
0
 10
349.472257
 20
519.035117
 42
-0.019525
  0
VERTEX
  8
0
 10
356.920573
 20
514.408206
 42
-0.021426
  0
VERTEX
  8
0
 10
363.750246
 20
509.347011
 42
-0.003372
  0
VERTEX
  8
0
 10
366.894383
 20
506.766045
 42
-0.005653
  0
VERTEX
  8
0
 10
369.497215
 20
504.549598
 42
-0.001289
  0
VERTEX
  8
0
 10
371.722421
 20
502.600779
 42
-0.432949
  0
VERTEX
  8
0
 10
371.728942
 20
502.395608
 42
-0.159747
  0
VERTEX
  8
0
 10
371.469475
 20
502.264271
 42
-0.000323
  0
VERTEX
  8
0
 10
366.885742
 20
501.566271
 42
-0.002203
  0
VERTEX
  8
0
 10
361.713032
 20
500.805309
 42
-0.001360
  0
VERTEX
  8
0
 10
355.622780
 20
499.953659
 42
-0.003066
  0
VERTEX
  8
0
 10
346.950886
 20
498.819169
 42
-0.019104
  0
VERTEX
  8
0
 10
342.487173
 20
498.435471
 42
-0.035780
  0
VERTEX
  8
0
 10
339.837684
 20
498.499029
 42
-0.186815
  0
VERTEX
  8
0
 10
338.556445
 20
499.141630
 42
-0.081266
  0
VERTEX
  8
0
 10
337.541664
 20
500.709718
 42
-0.001634
  0
VERTEX
  8
0
 10
333.771173
 20
509.410516
 42
-0.004254
  0
VERTEX
  8
0
 10
329.859305
 20
518.737112
 42
-0.004820
  0
VERTEX
  8
0
 10
326.269927
 20
527.750000
 42
-0.192873
  0
VERTEX
  8
0
 10
326.279201
 20
528.542036
 42
-0.349478
  0
VERTEX
  8
0
 10
326.813939
 20
528.838066
 42
-0.045810
  0
VERTEX
  8
0
 10
328.471503
 20
528.400001
 42
-0.002517
  0
SEQEND
  0
POLYLINE
  8
0
 66
1
 70
1
  0
VERTEX
  8
0
 10
524.234933
 20
515.764360
 42
-0.001399
  0
VERTEX
  8
0
 10
536.787443
 20
510.637089
 42
-0.002310
  0
VERTEX
  8
0
 10
547.358405
 20
506.227433
 42
-0.000235
  0
VERTEX
  8
0
 10
556.765377
 20
502.247001
 42
-0.294021
  0
VERTEX
  8
0
 10
556.984933
 20
501.924773
 42
-0.348434
  0
VERTEX
  8
0
 10
556.441740
 20
501.201826
 42
-0.000142
  0
VERTEX
  8
0
 10
523.683360
 20
492.642043
 42
-0.000512
  0
VERTEX
  8
0
 10
492.183142
 20
484.455014
 42
-0.066414
  0
VERTEX
  8
0
 10
488.201366
 20
483.972387
 42
-0.090071
  0
VERTEX
  8
0
 10
485.259602
 20
484.543241
 42
-0.000894
  0
VERTEX
  8
0
 10
465.227163
 20
492.384956
 42
-0.000840
  0
VERTEX
  8
0
 10
445.152959
 20
500.323397
 42
-0.096694
  0
VERTEX
  8
0
 10
442.786235
 20
501.843898
 42
-0.499608
  0
VERTEX
  8
0
 10
442.906226
 20
502.841453
 42
-0.000507
  0
VERTEX
  8
0
 10
465.223399
 20
515.720502
 42
-0.000975
  0
VERTEX
  8
0
 10
487.025339
 20
528.216219
 42
-0.127955
  0
VERTEX
  8
0
 10
489.978457
 20
529.014360
 42
-0.094288
  0
VERTEX
  8
0
 10
491.118542
 20
528.808568
 42
-0.000615
  0
VERTEX
  8
0
 10
500.668933
 20
525.128097
 42
-0.002433
  0
VERTEX
  8
0
 10
511.577372
 20
520.847717
 42
-0.001548
  0
SEQEND
  0
POLYLINE
  8
0
 66
1
 70
1
  0
VERTEX
  8
0
 10
202.731211
 20
513.769750
 42
-0.003505
  0
VERTEX
  8
0
 10
206.284091
 20
510.181694
 42
-0.005524
  0
VERTEX
  8
0
 10
209.277293
 20
507.047642
 42
-0.001711
  0
VERTEX
  8
0
 10
211.821103
 20
504.305765
 42
-0.188310
  0
VERTEX
  8
0
 10
212.000000
 20
503.847603
 42
-0.150925
  0
VERTEX
  8
0
 10
211.853998
 20
503.374929
 42
-0.002159
  0
VERTEX
  8
0
 10
210.156800
 20
500.912644
 42
-0.005746
  0
VERTEX
  8
0
 10
208.130172
 20
498.069679
 42
-0.003730
  0
VERTEX
  8
0
 10
205.725275
 20
494.827853
 42
0.013154
  0
VERTEX
  8
0
 10
202.986976
 20
490.987398
 42
0.007938
  0
VERTEX
  8
0
 10
199.936159
 20
486.302557
 42
0.007948
  0
VERTEX
  8
0
 10
197.051063
 20
481.548481
 42
0.013791
  0
VERTEX
  8
0
 10
194.828963
 20
477.500000
 42
0.020970
  0
VERTEX
  8
0
 10
190.376699
 20
467.854808
 42
0.027698
  0
VERTEX
  8
0
 10
187.193550
 20
458.715323
 42
0.023205
  0
VERTEX
  8
0
 10
184.671661
 20
448.105479
 42
0.009715
  0
VERTEX
  8
0
 10
182.221492
 20
433.617456
 42
0.000000
  0
VERTEX
  8
0
 10
181.493039
 20
428.734912
 42
0.000000
  0
VERTEX
  8
0
 10
167.746323
 20
428.617456
 42
0.000000
  0
VERTEX
  8
0
 10
153.999607
 20
428.500000
 42
0.000000
  0
VERTEX
  8
0
 10
153.999803
 20
433.650627
 42
-0.043460
  0
VERTEX
  8
0
 10
155.033139
 20
445.511424
 42
-0.019967
  0
VERTEX
  8
0
 10
158.326105
 20
460.685697
 42
-0.019935
  0
VERTEX
  8
0
 10
162.952092
 20
475.992459
 42
-0.032917
  0
VERTEX
  8
0
 10
168.200105
 20
488.434110
 42
-0.026047
  0
VERTEX
  8
0
 10
173.694868
 20
498.096740
 42
-0.012191
  0
VERTEX
  8
0
 10
181.745675
 20
510.029751
 42
-0.005000
  0
VERTEX
  8
0
 10
190.235261
 20
521.724921
 42
-0.237546
  0
VERTEX
  8
0
 10
192.767667
 20
523.000000
 42
-0.187229
  0
VERTEX
  8
0
 10
193.228324
 20
522.821236
 42
-0.001716
  0
VERTEX
  8
0
 10
195.981044
 20
520.288614
 42
-0.005521
  0
VERTEX
  8
0
 10
199.128183
 20
517.307849
 42
-0.003504
  0
SEQEND
  0
POLYLINE
  8
0
 66
1
 70
1
  0
VERTEX
  8
0
 10
405.668147
 20
517.750000
 42
-0.066891
  0
VERTEX
  8
0
 10
417.182381
 20
502.023040
 42
-0.029299
  0
VERTEX
  8
0
 10
428.203678
 20
478.600401
 42
-0.029309
  0
VERTEX
  8
0
 10
436.420171
 20
454.022136
 42
-0.066100
  0
VERTEX
  8
0
 10
439.000000
 20
434.592916
 42
0.000000
  0
VERTEX
  8
0
 10
439.000000
 20
429.000000
 42
0.000000
  0
VERTEX
  8
0
 10
425.019052
 20
429.000000
 42
-0.004691
  0
VERTEX
  8
0
 10
414.257623
 20
429.100974
 42
-0.144664
  0
VERTEX
  8
0
 10
411.731895
 20
429.899187
 42
-0.208779
  0
VERTEX
  8
0
 10
410.454095
 20
431.911656
 42
-0.011448
  0
VERTEX
  8
0
 10
409.452935
 20
439.500000
 42
0.039640
  0
VERTEX
  8
0
 10
406.875482
 20
453.083505
 42
0.028972
  0
VERTEX
  8
0
 10
401.975198
 20
467.641808
 42
0.028871
  0
VERTEX
  8
0
 10
395.395138
 20
481.606437
 42
0.038174
  0
VERTEX
  8
0
 10
387.758258
 20
493.407059
 42
-0.000222
  0
VERTEX
  8
0
 10
385.672263
 20
496.149671
 42
-0.000284
  0
VERTEX
  8
0
 10
383.754033
 20
498.677015
 42
-0.000219
  0
VERTEX
  8
0
 10
382.147797
 20
500.797717
 42
-0.002426
  0
VERTEX
  8
0
 10
381.510790
 20
501.648061
 42
-0.296694
  0
VERTEX
  8
0
 10
381.444626
 20
502.727104
 42
-0.037049
  0
VERTEX
  8
0
 10
382.814141
 20
504.773992
 42
-0.024079
  0
VERTEX
  8
0
 10
385.408367
 20
507.780749
 42
-0.005822
  0
VERTEX
  8
0
 10
389.991040
 20
512.491002
 42
-0.005235
  0
VERTEX
  8
0
 10
393.697047
 20
516.135366
 42
-0.008025
  0
VERTEX
  8
0
 10
396.990674
 20
519.206732
 42
-0.003537
  0
VERTEX
  8
0
 10
399.839963
 20
521.743148
 42
-0.182046
  0
VERTEX
  8
0
 10
400.522042
 20
522.000000
 42
-0.160683
  0
VERTEX
  8
0
 10
401.133387
 20
521.798327
 42
-0.013258
  0
VERTEX
  8
0
 10
402.471596
 20
520.751562
 42
-0.016674
  0
VERTEX
  8
0
 10
404.026227
 20
519.377946
 42
-0.012061
  0
SEQEND
  0
POLYLINE
  8
0
 66
1
 70
1
  0
VERTEX
  8
0
 10
284.263875
 20
513.000000
 42
-0.024581
  0
VERTEX
  8
0
 10
290.403614
 20
508.133930
 42
-0.092728
  0
VERTEX
  8
0
 10
293.424622
 20
504.293469
 42
-0.106332
  0
VERTEX
  8
0
 10
294.636721
 20
499.909377
 42
-0.037845
  0
VERTEX
  8
0
 10
294.520530
 20
493.375809
 42
-0.005684
  0
VERTEX
  8
0
 10
294.223058
 20
490.547799
 42
-0.009375
  0
VERTEX
  8
0
 10
293.899827
 20
488.166644
 42
-0.003500
  0
VERTEX
  8
0
 10
293.575753
 20
486.167027
 42
-0.365914
  0
VERTEX
  8
0
 10
293.378079
 20
486.000000
 42
-0.166773
  0
VERTEX
  8
0
 10
292.914733
 20
486.158969
 42
-0.000318
  0
VERTEX
  8
0
 10
286.555136
 20
491.111473
 42
-0.000248
  0
VERTEX
  8
0
 10
280.160325
 20
496.103037
 42
-0.230855
  0
VERTEX
  8
0
 10
280.000000
 20
496.431772
 42
0.060618
  0
VERTEX
  8
0
 10
279.992862
 20
496.490435
 42
0.000012
  0
VERTEX
  8
0
 10
279.269099
 20
499.420064
 42
0.000264
  0
VERTEX
  8
0
 10
278.465855
 20
502.663724
 42
0.000160
  0
VERTEX
  8
0
 10
277.511825
 20
506.502329
 42
-0.003174
  0
VERTEX
  8
0
 10
275.820174
 20
513.488431
 42
-0.023092
  0
VERTEX
  8
0
 10
275.185483
 20
516.879053
 42
-0.071568
  0
VERTEX
  8
0
 10
275.191992
 20
518.498283
 42
-0.490457
  0
VERTEX
  8
0
 10
275.788297
 20
518.833333
 42
-0.049438
  0
VERTEX
  8
0
 10
276.329788
 20
518.538327
 42
-0.001289
  0
VERTEX
  8
0
 10
278.603170
 20
516.982292
 42
-0.002711
  0
VERTEX
  8
0
 10
281.261135
 20
515.131629
 42
-0.001848
  0
SEQEND
  0
POLYLINE
  8
0
 66
1
 70
1
  0
VERTEX
  8
0
 10
316.304963
 20
507.464782
 42
0.000000
  0
VERTEX
  8
0
 10
313.500000
 20
496.706156
 42
0.000000
  0
VERTEX
  8
0
 10
306.803382
 20
491.353078
 42
-0.003765
  0
VERTEX
  8
0
 10
304.196730
 20
489.301377
 42
-0.005822
  0
VERTEX
  8
0
 10
301.911340
 20
487.572467
 42
-0.002139
  0
VERTEX
  8
0
 10
299.929019
 20
486.121872
 42
-0.158162
  0
VERTEX
  8
0
 10
299.553382
 20
486.000000
 42
-0.393262
  0
VERTEX
  8
0
 10
299.330049
 20
486.207793
 42
-0.003339
  0
VERTEX
  8
0
 10
299.162556
 20
488.765941
 42
-0.009167
  0
VERTEX
  8
0
 10
299.039782
 20
491.805526
 42
-0.005509
  0
VERTEX
  8
0
 10
299.000000
 20
495.415971
 42
0.000000
  0
VERTEX
  8
0
 10
299.000000
 20
504.831941
 42
0.000000
  0
VERTEX
  8
0
 10
302.750000
 20
507.786316
 42
-0.009604
  0
VERTEX
  8
0
 10
307.652555
 20
511.498358
 42
-0.008294
  0
VERTEX
  8
0
 10
312.937196
 20
515.209829
 42
-0.002119
  0
VERTEX
  8
0
 10
318.095276
 20
518.674303
 42
-0.357288
  0
VERTEX
  8
0
 10
318.721265
 20
518.612068
 42
-0.253021
  0
VERTEX
  8
0
 10
318.827153
 20
518.256919
 42
-0.001894
  0
VERTEX
  8
0
 10
318.171799
 20
515.177230
 42
-0.006404
  0
VERTEX
  8
0
 10
317.352241
 20
511.617183
 42
-0.003991
  0
SEQEND
  0
POLYLINE
  8
0
 66
1
 70
1
  0
VERTEX
  8
0
 10
274.655324
 20
497.971568
 42
-0.035298
  0
VERTEX
  8
0
 10
274.787675
 20
495.414934
 42
-0.043399
  0
VERTEX
  8
0
 10
274.535934
 20
493.039648
 42
-0.035661
  0
VERTEX
  8
0
 10
273.824011
 20
490.401962
 42
-0.015043
  0
VERTEX
  8
0
 10
272.513193
 20
486.971568
 42
-0.004650
  0
VERTEX
  8
0
 10
271.429603
 20
484.439617
 42
-0.006409
  0
VERTEX
  8
0
 10
270.406252
 20
482.187472
 42
-0.004226
  0
VERTEX
  8
0
 10
269.509855
 20
480.321161
 42
-0.074864
  0
VERTEX
  8
0
 10
269.130271
 20
479.773018
 42
-0.455653
  0
VERTEX
  8
0
 10
268.679489
 20
479.790792
 42
-0.011005
  0
VERTEX
  8
0
 10
267.247725
 20
481.657519
 42
-0.016497
  0
VERTEX
  8
0
 10
265.558455
 20
484.130496
 42
-0.009516
  0
VERTEX
  8
0
 10
263.682444
 20
487.209210
 42
0.000000
  0
VERTEX
  8
0
 10
258.918853
 20
495.372385
 42
0.000000
  0
VERTEX
  8
0
 10
261.126104
 20
500.936193
 42
-0.007045
  0
VERTEX
  8
0
 10
262.183449
 20
503.495639
 42
-0.003808
  0
VERTEX
  8
0
 10
263.553147
 20
506.617402
 42
-0.003792
  0
VERTEX
  8
0
 10
264.996597
 20
509.775890
 42
-0.005968
  0
VERTEX
  8
0
 10
266.288834
 20
512.463473
 42
0.000000
  0
VERTEX
  8
0
 10
269.244312
 20
518.426946
 42
0.000000
  0
VERTEX
  8
0
 10
271.671541
 20
510.463473
 42
-0.008214
  0
VERTEX
  8
0
 10
272.641631
 20
507.082536
 42
-0.007133
  0
VERTEX
  8
0
 10
273.549259
 20
503.509043
 42
-0.007193
  0
VERTEX
  8
0
 10
274.278245
 20
500.250309
 42
-0.020854
  0
SEQEND
  0
POLYLINE
  8
0
 66
1
 70
1
  0
VERTEX
  8
0
 10
326.000000
 20
515.862851
 42
0.096274
  0
VERTEX
  8
0
 10
326.132190
 20
515.182687
 42
0.004190
  0
VERTEX
  8
0
 10
327.062688
 20
512.933681
 42
0.006992
  0
VERTEX
  8
0
 10
328.231691
 20
510.277945
 42
0.004919
  0
VERTEX
  8
0
 10
329.617663
 20
507.322306
 42
-0.037145
  0
VERTEX
  8
0
 10
332.259886
 20
500.591240
 42
-0.090011
  0
VERTEX
  8
0
 10
332.898239
 20
495.308959
 42
-0.092255
  0
VERTEX
  8
0
 10
331.635113
 20
490.219361
 42
-0.040401
  0
VERTEX
  8
0
 10
328.240932
 20
484.122940
 42
0.000000
  0
VERTEX
  8
0
 10
324.166748
 20
478.021801
 42
0.000000
  0
VERTEX
  8
0
 10
321.083374
 20
486.096338
 42
-0.004402
  0
VERTEX
  8
0
 10
319.901784
 20
489.274273
 42
-0.006125
  0
VERTEX
  8
0
 10
318.904056
 20
492.141071
 42
-0.003899
  0
VERTEX
  8
0
 10
318.116243
 20
494.559859
 42
-0.075680
  0
VERTEX
  8
0
 10
317.994262
 20
495.335438
 42
-0.074066
  0
VERTEX
  8
0
 10
318.476337
 20
498.685112
 42
-0.005363
  0
VERTEX
  8
0
 10
321.260198
 20
507.636248
 42
-0.002026
  0
VERTEX
  8
0
 10
324.374142
 20
517.150611
 42
-0.484295
  0
VERTEX
  8
0
 10
325.124370
 20
517.423135
 42
-0.073570
  0
VERTEX
  8
0
 10
325.459383
 20
517.140700
 42
-0.053067
  0
VERTEX
  8
0
 10
325.742784
 20
516.741570
 42
-0.053172
  0
VERTEX
  8
0
 10
325.935260
 20
516.292788
 42
-0.074868
  0
SEQEND
  0
POLYLINE
  8
0
 66
1
 70
1
  0
VERTEX
  8
0
 10
223.296767
 20
467.019125
 42
-0.081114
  0
VERTEX
  8
0
 10
220.778515
 20
465.507747
 42
-0.001895
  0
VERTEX
  8
0
 10
207.874371
 20
460.430124
 42
-0.000709
  0
VERTEX
  8
0
 10
194.255815
 20
455.153121
 42
-0.296685
  0
VERTEX
  8
0
 10
193.314267
 20
455.352400
 42
-0.293909
  0
VERTEX
  8
0
 10
192.964407
 20
456.964714
 42
-0.007237
  0
VERTEX
  8
0
 10
195.848336
 20
464.345087
 42
-0.015345
  0
VERTEX
  8
0
 10
199.296559
 20
472.115087
 42
-0.019560
  0
VERTEX
  8
0
 10
202.967964
 20
479.040285
 42
-0.012238
  0
VERTEX
  8
0
 10
205.271267
 20
482.788092
 42
-0.007625
  0
VERTEX
  8
0
 10
208.143971
 20
487.071209
 42
-0.007650
  0
VERTEX
  8
0
 10
211.107418
 20
491.210463
 42
-0.013741
  0
VERTEX
  8
0
 10
213.682244
 20
494.500000
 42
0.000000
  0
VERTEX
  8
0
 10
219.478494
 20
501.500000
 42
0.000000
  0
VERTEX
  8
0
 10
221.786014
 20
484.596767
 42
-0.004829
  0
VERTEX
  8
0
 10
222.613050
 20
478.068633
 42
-0.007656
  0
VERTEX
  8
0
 10
223.181649
 20
472.460751
 42
-0.002746
  0
VERTEX
  8
0
 10
223.567328
 20
467.664793
 42
-0.240251
  0
SEQEND
  0
POLYLINE
  8
0
 66
1
 70
1
  0
VERTEX
  8
0
 10
384.882735
 20
486.500000
 42
-0.008167
  0
VERTEX
  8
0
 10
386.936419
 20
483.420426
 42
-0.006042
  0
VERTEX
  8
0
 10
389.110244
 20
479.951030
 42
-0.006109
  0
VERTEX
  8
0
 10
391.084374
 20
476.623279
 42
-0.013637
  0
VERTEX
  8
0
 10
392.484509
 20
474.035422
 42
-0.015241
  0
VERTEX
  8
0
 10
395.018485
 20
468.627496
 42
-0.010675
  0
VERTEX
  8
0
 10
397.554075
 20
462.394552
 42
-0.003562
  0
VERTEX
  8
0
 10
399.850192
 20
456.255059
 42
-0.291934
  0
VERTEX
  8
0
 10
399.641005
 20
455.307671
 42
-0.300257
  0
VERTEX
  8
0
 10
398.735851
 20
455.122290
 42
-0.000682
  0
VERTEX
  8
0
 10
385.381860
 20
460.498466
 42
-0.001579
  0
VERTEX
  8
0
 10
372.588540
 20
465.716288
 42
-0.097278
  0
VERTEX
  8
0
 10
370.546426
 20
467.066994
 42
-0.225064
  0
VERTEX
  8
0
 10
370.005889
 20
468.549026
 42
-0.001464
  0
VERTEX
  8
0
 10
371.372361
 20
482.747492
 42
-0.002679
  0
VERTEX
  8
0
 10
372.801362
 20
496.407611
 42
-0.101958
  0
VERTEX
  8
0
 10
373.746958
 20
499.331327
 42
-0.495054
  0
VERTEX
  8
0
 10
374.622429
 20
499.450606
 42
-0.018020
  0
VERTEX
  8
0
 10
377.274549
 20
496.608352
 42
-0.019100
  0
VERTEX
  8
0
 10
380.690985
 20
492.353832
 42
-0.008476
  0
SEQEND
  0
POLYLINE
  8
0
 66
1
 70
1
  0
VERTEX
  8
0
 10
243.251070
 20
494.605602
 42
-0.018426
  0
VERTEX
  8
0
 10
250.520652
 20
493.364162
 42
-0.095084
  0
VERTEX
  8
0
 10
254.269986
 20
491.798440
 42
-0.101960
  0
VERTEX
  8
0
 10
257.046047
 20
489.005648
 42
-0.022763
  0
VERTEX
  8
0
 10
260.483904
 20
483.187071
 42
0.000000
  0
VERTEX
  8
0
 10
263.908474
 20
476.737814
 42
0.000000
  0
VERTEX
  8
0
 10
257.033542
 20
477.229713
 42
-0.038025
  0
VERTEX
  8
0
 10
251.208301
 20
478.094869
 42
-0.072375
  0
VERTEX
  8
0
 10
246.797740
 20
479.795179
 42
-0.057790
  0
VERTEX
  8
0
 10
242.446885
 20
482.953491
 42
-0.016984
  0
VERTEX
  8
0
 10
236.555938
 20
488.750000
 42
-0.005936
  0
VERTEX
  8
0
 10
231.386961
 20
494.324826
 42
-0.419249
  0
VERTEX
  8
0
 10
231.453758
 20
495.471028
 42
-0.213358
  0
VERTEX
  8
0
 10
232.933159
 20
495.925735
 42
-0.002519
  0
SEQEND
  0
POLYLINE
  8
0
 66
1
 70
1
  0
VERTEX
  8
0
 10
363.000000
 20
495.008895
 42
-0.187596
  0
VERTEX
  8
0
 10
362.856371
 20
494.639551
 42
-0.002115
  0
VERTEX
  8
0
 10
361.017187
 20
492.649386
 42
-0.006164
  0
VERTEX
  8
0
 10
358.837286
 20
490.367510
 42
-0.003936
  0
VERTEX
  8
0
 10
356.250000
 20
487.766464
 42
-0.026536
  0
VERTEX
  8
0
 10
350.846179
 20
482.958455
 42
-0.048707
  0
VERTEX
  8
0
 10
345.911987
 20
479.748797
 42
-0.052781
  0
VERTEX
  8
0
 10
340.732834
 20
477.716606
 42
-0.037646
  0
VERTEX
  8
0
 10
334.614206
 20
476.519569
 42
0.000000
  0
VERTEX
  8
0
 10
328.728412
 20
475.822155
 42
0.000000
  0
VERTEX
  8
0
 10
332.489167
 20
482.661077
 42
-0.015511
  0
VERTEX
  8
0
 10
336.339180
 20
489.175265
 42
-0.101849
  0
VERTEX
  8
0
 10
338.959448
 20
491.889371
 42
-0.104596
  0
VERTEX
  8
0
 10
342.409548
 20
493.313828
 42
-0.016773
  0
VERTEX
  8
0
 10
349.657179
 20
494.406073
 42
-0.002238
  0
VERTEX
  8
0
 10
356.936027
 20
495.221489
 42
-0.015485
  0
VERTEX
  8
0
 10
360.516454
 20
495.494547
 42
-0.026175
  0
VERTEX
  8
0
 10
362.556249
 20
495.479881
 42
-0.396884
  0
SEQEND
  0
POLYLINE
  8
0
 66
1
 70
1
  0
VERTEX
  8
0
 10
161.484550
 20
491.250000
 42
0.018440
  0
VERTEX
  8
0
 10
156.870618
 20
478.918876
 42
0.015529
  0
VERTEX
  8
0
 10
152.881948
 20
465.557970
 42
0.015985
  0
VERTEX
  8
0
 10
149.898381
 20
452.646105
 42
0.027734
  0
VERTEX
  8
0
 10
148.366617
 20
441.750000
 42
-0.008904
  0
VERTEX
  8
0
 10
148.062441
 20
438.778729
 42
-0.014580
  0
VERTEX
  8
0
 10
147.686879
 20
436.276563
 42
-0.008240
  0
VERTEX
  8
0
 10
147.288726
 20
434.256664
 42
-0.353652
  0
VERTEX
  8
0
 10
146.971234
 20
434.000000
 42
-0.171628
  0
VERTEX
  8
0
 10
146.595561
 20
434.132866
 42
-0.027785
  0
VERTEX
  8
0
 10
146.011908
 20
434.660937
 42
-0.027906
  0
VERTEX
  8
0
 10
145.368680
 20
435.388430
 42
-0.021310
  0
VERTEX
  8
0
 10
144.746297
 20
436.250000
 42
0.017730
  0
VERTEX
  8
0
 10
143.662426
 20
437.773261
 42
0.000778
  0
VERTEX
  8
0
 10
139.694228
 20
442.934577
 42
0.001318
  0
VERTEX
  8
0
 10
134.961265
 20
449.037469
 42
0.000941
  0
VERTEX
  8
0
 10
129.631287
 20
455.846434
 42
-0.002020
  0
VERTEX
  8
0
 10
124.405707
 20
462.551806
 42
-0.003233
  0
VERTEX
  8
0
 10
120.004191
 20
468.323802
 42
-0.000679
  0
VERTEX
  8
0
 10
116.181062
 20
473.419495
 42
-0.161973
  0
VERTEX
  8
0
 10
116.000000
 20
473.963759
 42
-0.302116
  0
VERTEX
  8
0
 10
116.474669
 20
474.677631
 42
-0.000226
  0
VERTEX
  8
0
 10
137.930786
 20
483.667255
 42
-0.000632
  0
VERTEX
  8
0
 10
158.666891
 20
492.313405
 42
-0.082084
  0
VERTEX
  8
0
 10
161.356989
 20
492.943206
 42
-0.259084
  0
VERTEX
  8
0
 10
161.620761
 20
492.818755
 42
-0.137797
  0
VERTEX
  8
0
 10
161.747968
 20
492.469254
 42
-0.078423
  0
VERTEX
  8
0
 10
161.702966
 20
491.917156
 42
-0.039286
  0
SEQEND
  0
POLYLINE
  8
0
 66
1
 70
1
  0
VERTEX
  8
0
 10
242.993415
 20
473.500000
 42
-0.032610
  0
VERTEX
  8
0
 10
243.785707
 20
471.548028
 42
-0.015322
  0
VERTEX
  8
0
 10
244.564197
 20
468.936772
 42
-0.015109
  0
VERTEX
  8
0
 10
245.215548
 20
466.140850
 42
-0.020539
  0
VERTEX
  8
0
 10
245.622076
 20
463.582629
 42
-0.019503
  0
VERTEX
  8
0
 10
245.960955
 20
459.219845
 42
-0.407757
  0
VERTEX
  8
0
 10
245.161657
 20
458.337108
 42
-0.144884
  0
VERTEX
  8
0
 10
243.404177
 20
458.743338
 42
-0.003419
  0
VERTEX
  8
0
 10
236.002003
 20
462.998830
 42
-0.014689
  0
VERTEX
  8
0
 10
233.335541
 20
464.663039
 42
-0.019240
  0
VERTEX
  8
0
 10
231.007974
 20
466.345247
 42
-0.017062
  0
VERTEX
  8
0
 10
229.203248
 20
467.860461
 42
-0.143197
  0
VERTEX
  8
0
 10
228.649595
 20
468.755835
 42
-0.026597
  0
VERTEX
  8
0
 10
228.273526
 20
470.468414
 42
-0.006091
  0
VERTEX
  8
0
 10
227.828214
 20
473.399047
 42
-0.004317
  0
VERTEX
  8
0
 10
227.262685
 20
477.725367
 42
-0.001208
  0
VERTEX
  8
0
 10
226.453137
 20
484.500000
 42
0.005320
  0
VERTEX
  8
0
 10
226.189651
 20
486.560937
 42
0.005297
  0
VERTEX
  8
0
 10
225.882027
 20
488.618750
 42
0.005198
  0
VERTEX
  8
0
 10
225.575513
 20
490.411006
 42
0.020652
  0
VERTEX
  8
0
 10
225.330760
 20
491.500000
 42
-0.754499
  0
VERTEX
  8
0
 10
226.210419
 20
492.027802
 42
-0.010634
  0
VERTEX
  8
0
 10
233.026938
 20
485.370391
 42
-0.011275
  0
VERTEX
  8
0
 10
240.063420
 20
477.868402
 42
-0.070132
  0
SEQEND
  0
POLYLINE
  8
0
 66
1
 70
1
  0
VERTEX
  8
0
 10
367.990951
 20
492.750000
 42
-0.025935
  0
VERTEX
  8
0
 10
367.483194
 20
486.997511
 42
-0.008571
  0
VERTEX
  8
0
 10
366.156426
 20
478.618391
 42
-0.005010
  0
VERTEX
  8
0
 10
364.593816
 20
470.231248
 42
-0.096756
  0
VERTEX
  8
0
 10
363.599262
 20
467.791837
 42
-0.076338
  0
VERTEX
  8
0
 10
362.514666
 20
466.585775
 42
-0.015905
  0
VERTEX
  8
0
 10
360.249324
 20
464.848636
 42
-0.016349
  0
VERTEX
  8
0
 10
357.462307
 20
462.983844
 42
-0.014800
  0
VERTEX
  8
0
 10
354.466696
 20
461.239142
 42
0.000000
  0
VERTEX
  8
0
 10
346.951698
 20
457.155167
 42
0.000000
  0
VERTEX
  8
0
 10
347.583294
 20
462.327583
 42
-0.015521
  0
VERTEX
  8
0
 10
348.733311
 20
469.807804
 42
-0.067892
  0
VERTEX
  8
0
 10
350.134140
 20
474.046845
 42
-0.063784
  0
VERTEX
  8
0
 10
352.657716
 20
477.880783
 42
-0.012705
  0
VERTEX
  8
0
 10
358.168103
 20
483.977368
 42
-0.003844
  0
VERTEX
  8
0
 10
362.857475
 20
488.832481
 42
-0.016525
  0
VERTEX
  8
0
 10
365.764361
 20
491.606573
 42
-0.030166
  0
VERTEX
  8
0
 10
367.529867
 20
493.001479
 42
-0.618391
  0
SEQEND
  0
POLYLINE
  8
0
 66
1
 70
1
  0
VERTEX
  8
0
 10
454.169486
 20
483.818358
 42
0.000000
  0
VERTEX
  8
0
 10
476.838973
 20
474.628511
 42
0.000000
  0
VERTEX
  8
0
 10
469.800871
 20
465.564255
 42
0.000645
  0
VERTEX
  8
0
 10
466.489853
 20
461.288675
 42
0.000319
  0
VERTEX
  8
0
 10
462.294742
 20
455.849824
 42
0.000316
  0
VERTEX
  8
0
 10
457.949334
 20
450.201297
 42
0.000463
  0
VERTEX
  8
0
 10
454.131385
 20
445.222379
 42
-0.002715
  0
VERTEX
  8
0
 10
448.926583
 20
438.497853
 42
-0.036423
  0
VERTEX
  8
0
 10
446.831569
 20
436.189243
 42
-0.273363
  0
VERTEX
  8
0
 10
445.831382
 20
435.957836
 42
-0.298249
  0
VERTEX
  8
0
 10
445.207067
 20
436.722379
 42
0.019446
  0
VERTEX
  8
0
 10
443.440470
 20
448.908848
 42
0.014816
  0
VERTEX
  8
0
 10
440.596334
 20
462.092341
 42
0.014971
  0
VERTEX
  8
0
 10
437.034240
 20
474.861315
 42
0.022287
  0
VERTEX
  8
0
 10
433.094388
 20
485.771106
 42
-0.007716
  0
VERTEX
  8
0
 10
432.000659
 20
488.544090
 42
-0.013483
  0
VERTEX
  8
0
 10
431.192740
 20
490.877717
 42
-0.007725
  0
VERTEX
  8
0
 10
430.627515
 20
492.765776
 42
-0.495544
  0
VERTEX
  8
0
 10
430.806716
 20
493.004102
 42
-0.095140
  0
VERTEX
  8
0
 10
431.336876
 20
492.905550
 42
-0.000277
  0
VERTEX
  8
0
 10
437.955509
 20
490.307482
 42
-0.001621
  0
VERTEX
  8
0
 10
445.428993
 20
487.341057
 42
-0.001011
  0
SEQEND
  0
POLYLINE
  8
0
 66
1
 70
1
  0
VERTEX
  8
0
 10
291.442384
 20
481.259706
 42
0.011034
  0
VERTEX
  8
0
 10
293.069426
 20
480.018191
 42
0.014756
  0
VERTEX
  8
0
 10
294.601825
 20
478.969317
 42
0.011910
  0
VERTEX
  8
0
 10
295.910015
 20
478.172837
 42
0.129847
  0
VERTEX
  8
0
 10
296.500000
 20
478.012835
 42
0.153163
  0
VERTEX
  8
0
 10
297.152120
 20
478.212694
 42
0.004422
  0
VERTEX
  8
0
 10
299.556250
 20
479.893675
 42
0.008546
  0
VERTEX
  8
0
 10
302.361942
 20
481.965795
 42
0.005736
  0
VERTEX
  8
0
 10
305.500000
 20
484.424929
 42
-0.008284
  0
VERTEX
  8
0
 10
308.611180
 20
486.837514
 42
-0.013628
  0
VERTEX
  8
0
 10
311.329389
 20
488.760774
 42
-0.007235
  0
VERTEX
  8
0
 10
313.616434
 20
490.239797
 42
-0.362932
  0
VERTEX
  8
0
 10
314.110685
 20
490.171800
 42
-0.078479
  0
VERTEX
  8
0
 10
314.467364
 20
489.628749
 42
-0.002003
  0
VERTEX
  8
0
 10
315.667076
 20
486.945875
 42
-0.004221
  0
VERTEX
  8
0
 10
317.039564
 20
483.771168
 42
-0.002863
  0
VERTEX
  8
0
 10
318.551479
 20
480.133306
 42
0.000000
  0
VERTEX
  8
0
 10
322.381587
 20
470.766611
 42
0.000000
  0
VERTEX
  8
0
 10
327.440793
 20
471.395329
 42
-0.001290
  0
VERTEX
  8
0
 10
329.801498
 20
471.682514
 42
-0.000670
  0
VERTEX
  8
0
 10
332.749368
 20
472.029405
 42
-0.000666
  0
VERTEX
  8
0
 10
335.777752
 20
472.377565
 42
-0.001015
  0
VERTEX
  8
0
 10
338.408120
 20
472.671007
 42
0.000000
  0
VERTEX
  8
0
 10
344.316240
 20
473.317966
 42
0.000000
  0
VERTEX
  8
0
 10
343.646097
 20
467.908983
 42
0.001128
  0
VERTEX
  8
0
 10
343.344998
 20
465.432948
 42
0.000644
  0
VERTEX
  8
0
 10
342.991971
 20
462.441469
 42
0.000643
  0
VERTEX
  8
0
 10
342.644563
 20
459.431013
 42
0.001068
  0
VERTEX
  8
0
 10
342.360337
 20
456.891761
 42
0.000000
  0
VERTEX
  8
0
 10
341.744721
 20
451.283521
 42
0.000000
  0
VERTEX
  8
0
 10
351.372361
 20
447.472975
 42
-0.007413
  0
VERTEX
  8
0
 10
355.062829
 20
445.948652
 42
-0.011749
  0
VERTEX
  8
0
 10
358.171881
 20
444.522694
 42
-0.005760
  0
VERTEX
  8
0
 10
360.716405
 20
443.246007
 42
-0.280594
  0
VERTEX
  8
0
 10
361.000000
 20
442.780448
 42
-0.149336
  0
VERTEX
  8
0
 10
360.821905
 20
442.197456
 42
-0.003744
  0
VERTEX
  8
0
 10
359.237500
 20
439.883768
 42
-0.007719
  0
VERTEX
  8
0
 10
357.299263
 20
437.188092
 42
-0.005146
  0
VERTEX
  8
0
 10
355.000000
 20
434.157937
 42
0.004544
  0
VERTEX
  8
0
 10
352.700583
 20
431.135151
 42
0.006900
  0
VERTEX
  8
0
 10
350.762500
 20
428.462587
 42
0.003022
  0
VERTEX
  8
0
 10
349.161614
 20
426.160228
 42
0.151528
  0
VERTEX
  8
0
 10
349.000000
 20
425.639191
 42
0.153576
  0
VERTEX
  8
0
 10
349.164908
 20
425.114960
 42
0.002658
  0
VERTEX
  8
0
 10
350.911622
 20
422.641467
 42
0.006468
  0
VERTEX
  8
0
 10
353.013586
 20
419.777304
 42
0.004229
  0
VERTEX
  8
0
 10
355.507649
 20
416.526989
 42
0.000000
  0
VERTEX
  8
0
 10
362.015298
 20
408.193004
 42
0.000000
  0
VERTEX
  8
0
 10
354.257649
 20
405.052004
 42
0.000300
  0
VERTEX
  8
0
 10
351.112671
 20
403.776435
 42
0.000333
  0
VERTEX
  8
0
 10
348.078000
 20
402.541125
 42
0.000308
  0
VERTEX
  8
0
 10
345.490925
 20
401.484147
 42
0.001743
  0
VERTEX
  8
0
 10
344.114267
 20
400.915097
 42
0.063885
  0
VERTEX
  8
0
 10
342.789930
 20
400.151462
 42
0.165339
  0
VERTEX
  8
0
 10
342.182338
 20
399.248775
 42
0.085547
  0
VERTEX
  8
0
 10
342.043699
 20
397.778966
 42
0.009823
  0
VERTEX
  8
0
 10
342.364267
 20
394.459595
 42
-0.000725
  0
VERTEX
  8
0
 10
343.761673
 20
382.305518
 42
-0.027872
  0
VERTEX
  8
0
 10
343.918384
 20
379.573253
 42
-0.200095
  0
VERTEX
  8
0
 10
343.468309
 20
378.488858
 42
-0.207206
  0
VERTEX
  8
0
 10
342.389903
 20
378.065883
 42
-0.019813
  0
VERTEX
  8
0
 10
341.208428
 20
378.154028
 42
-0.002060
  0
VERTEX
  8
0
 10
338.443187
 20
378.482436
 42
-0.002556
  0
VERTEX
  8
0
 10
335.151389
 20
378.904235
 42
-0.002043
  0
VERTEX
  8
0
 10
331.608180
 20
379.391420
 42
0.000000
  0
VERTEX
  8
0
 10
322.716359
 20
380.651074
 42
0.000000
  0
VERTEX
  8
0
 10
319.988272
 20
374.575537
 42
0.004149
  0
VERTEX
  8
0
 10
318.846233
 20
371.974642
 42
0.003423
  0
VERTEX
  8
0
 10
317.670585
 20
369.183127
 42
0.003456
  0
VERTEX
  8
0
 10
316.626854
 20
366.606297
 42
0.009219
  0
VERTEX
  8
0
 10
315.929204
 20
364.750000
 42
-0.020288
  0
VERTEX
  8
0
 10
315.352719
 20
363.313465
 42
-0.029380
  0
VERTEX
  8
0
 10
314.720340
 20
362.101562
 42
-0.029093
  0
VERTEX
  8
0
 10
314.114999
 20
361.212649
 42
-0.232765
  0
VERTEX
  8
0
 10
313.682958
 20
361.000000
 42
-0.146172
  0
VERTEX
  8
0
 10
313.094735
 20
361.175718
 42
-0.005443
  0
VERTEX
  8
0
 10
311.155591
 20
362.478190
 42
-0.009462
  0
VERTEX
  8
0
 10
308.884326
 20
364.104023
 42
-0.006468
  0
VERTEX
  8
0
 10
306.364420
 20
366.032137
 42
0.013922
  0
VERTEX
  8
0
 10
299.834204
 20
370.876157
 42
0.142768
  0
VERTEX
  8
0
 10
296.682118
 20
371.944434
 42
0.158877
  0
VERTEX
  8
0
 10
293.600350
 20
371.084970
 42
0.018390
  0
VERTEX
  8
0
 10
287.699770
 20
366.837903
 42
-0.010229
  0
VERTEX
  8
0
 10
284.686554
 20
364.593536
 42
-0.015932
  0
VERTEX
  8
0
 10
281.992471
 20
362.797982
 42
-0.010166
  0
VERTEX
  8
0
 10
279.726810
 20
361.453145
 42
-0.273779
  0
VERTEX
  8
0
 10
279.055036
 20
361.465986
 42
-0.141178
  0
VERTEX
  8
0
 10
278.550112
 20
362.022626
 42
-0.006208
  0
VERTEX
  8
0
 10
277.415853
 20
364.408364
 42
-0.010095
  0
VERTEX
  8
0
 10
276.149073
 20
367.313459
 42
-0.006997
  0
VERTEX
  8
0
 10
274.829885
 20
370.645128
 42
0.011498
  0
VERTEX
  8
0
 10
273.477545
 20
373.972705
 42
0.016217
  0
VERTEX
  8
0
 10
272.109913
 20
376.866902
 42
0.012371
  0
VERTEX
  8
0
 10
270.856833
 20
379.168226
 42
0.171923
  0
VERTEX
  8
0
 10
270.148552
 20
379.773237
 42
0.102149
  0
VERTEX
  8
0
 10
269.178843
 20
379.932531
 42
0.006995
  0
VERTEX
  8
0
 10
266.383860
 20
379.779310
 42
0.009759
  0
VERTEX
  8
0
 10
263.032047
 20
379.482668
 42
0.007164
  0
VERTEX
  8
0
 10
259.328219
 20
379.028111
 42
-0.006674
  0
VERTEX
  8
0
 10
255.682428
 20
378.577055
 42
-0.010242
  0
VERTEX
  8
0
 10
252.513334
 20
378.293421
 42
-0.005075
  0
VERTEX
  8
0
 10
249.850788
 20
378.137141
 42
-0.211542
  0
VERTEX
  8
0
 10
249.327480
 20
378.339187
 42
-0.215490
  0
VERTEX
  8
0
 10
249.129506
 20
378.863702
 42
-0.004950
  0
VERTEX
  8
0
 10
249.329534
 20
381.581040
 42
-0.010157
  0
VERTEX
  8
0
 10
249.665729
 20
384.811652
 42
-0.006598
  0
VERTEX
  8
0
 10
250.179195
 20
388.530560
 42
0.007208
  0
VERTEX
  8
0
 10
250.800690
 20
393.072800
 42
0.021535
  0
VERTEX
  8
0
 10
251.046616
 20
396.199123
 42
0.028698
  0
VERTEX
  8
0
 10
250.999255
 20
398.357258
 42
0.150493
  0
VERTEX
  8
0
 10
250.566228
 20
399.447537
 42
0.100812
  0
VERTEX
  8
0
 10
249.750454
 20
400.125008
 42
0.009139
  0
VERTEX
  8
0
 10
247.382263
 20
401.339372
 42
0.011559
  0
VERTEX
  8
0
 10
244.471713
 20
402.682770
 42
0.008787
  0
VERTEX
  8
0
 10
241.224454
 20
404.024169
 42
-0.006348
  0
VERTEX
  8
0
 10
238.015073
 20
405.331635
 42
-0.009253
  0
VERTEX
  8
0
 10
235.223757
 20
406.571679
 42
-0.005356
  0
VERTEX
  8
0
 10
232.920078
 20
407.676767
 42
-0.140725
  0
VERTEX
  8
0
 10
232.417530
 20
408.133439
 42
-0.282370
  0
VERTEX
  8
0
 10
232.415592
 20
408.746148
 42
-0.007228
  0
VERTEX
  8
0
 10
233.948332
 20
411.181685
 42
-0.013285
  0
VERTEX
  8
0
 10
235.926118
 20
414.055761
 42
-0.008416
  0
VERTEX
  8
0
 10
238.374960
 20
417.303084
 42
0.000000
  0
VERTEX
  8
0
 10
244.863768
 20
425.612941
 42
0.000000
  0
VERTEX
  8
0
 10
238.431884
 20
433.783816
 42
-0.006280
  0
VERTEX
  8
0
 10
234.471574
 20
438.947000
 42
-0.036385
  0
VERTEX
  8
0
 10
232.621748
 20
441.839256
 42
-0.125884
  0
VERTEX
  8
0
 10
232.243564
 20
443.346554
 42
-0.412860
  0
VERTEX
  8
0
 10
232.900037
 20
444.000000
 42
0.088400
  0
VERTEX
  8
0
 10
233.527099
 20
444.111738
 42
0.002498
  0
VERTEX
  8
0
 10
236.098667
 20
445.072884
 42
0.005020
  0
VERTEX
  8
0
 10
239.116631
 20
446.252889
 42
0.003422
  0
VERTEX
  8
0
 10
242.525109
 20
447.652372
 42
0.000000
  0
VERTEX
  8
0
 10
251.250144
 20
451.304743
 42
0.000000
  0
VERTEX
  8
0
 10
250.675261
 20
456.902372
 42
0.002142
  0
VERTEX
  8
0
 10
250.403918
 20
459.437510
 42
0.001287
  0
VERTEX
  8
0
 10
250.061184
 20
462.444585
 42
0.001289
  0
VERTEX
  8
0
 10
249.704899
 20
465.433641
 42
0.002249
  0
VERTEX
  8
0
 10
249.392069
 20
467.908983
 42
0.000000
  0
VERTEX
  8
0
 10
248.683760
 20
473.317966
 42
0.000000
  0
VERTEX
  8
0
 10
254.591880
 20
472.671007
 42
-0.001019
  0
VERTEX
  8
0
 10
257.225531
 20
472.377178
 42
-0.000665
  0
VERTEX
  8
0
 10
260.264320
 20
472.027784
 42
-0.000668
  0
VERTEX
  8
0
 10
263.226993
 20
471.679136
 42
-0.001277
  0
VERTEX
  8
0
 10
265.605805
 20
471.389810
 42
0.000000
  0
VERTEX
  8
0
 10
270.711610
 20
470.755574
 42
0.000000
  0
VERTEX
  8
0
 10
273.836436
 20
478.261742
 42
0.000992
  0
VERTEX
  8
0
 10
275.107928
 20
481.333168
 42
0.001047
  0
VERTEX
  8
0
 10
276.344408
 20
484.354833
 42
0.000999
  0
VERTEX
  8
0
 10
277.399682
 20
486.964092
 42
0.004751
  0
VERTEX
  8
0
 10
277.986162
 20
488.463604
 42
0.000000
  0
VERTEX
  8
0
 10
279.011063
 20
491.159297
 42
0.000000
  0
VERTEX
  8
0
 10
283.197915
 20
487.829648
 42
-0.000156
  0
VERTEX
  8
0
 10
285.094954
 20
486.320039
 42
-0.000093
  0
VERTEX
  8
0
 10
287.346804
 20
484.526248
 42
-0.000094
  0
VERTEX
  8
0
 10
289.586342
 20
482.740896
 42
-0.000163
  0
SEQEND
  0
POLYLINE
  8
0
 66
1
 70
1
  0
VERTEX
  8
0
 10
561.000000
 20
489.475843
 42
-0.166224
  0
VERTEX
  8
0
 10
560.590851
 20
488.279133
 42
-0.000123
  0
VERTEX
  8
0
 10
540.201327
 20
461.959684
 42
-0.000375
  0
VERTEX
  8
0
 10
520.508842
 20
436.592259
 42
-0.049601
  0
VERTEX
  8
0
 10
517.807488
 20
433.750000
 42
-0.136198
  0
VERTEX
  8
0
 10
515.703341
 20
432.756944
 42
-0.027958
  0
VERTEX
  8
0
 10
511.583536
 20
432.283876
 42
-0.013107
  0
VERTEX
  8
0
 10
504.303066
 20
432.049260
 42
-0.001501
  0
VERTEX
  8
0
 10
487.889216
 20
432.000000
 42
-0.002520
  0
VERTEX
  8
0
 10
477.199411
 20
432.053883
 42
-0.004216
  0
VERTEX
  8
0
 10
468.210867
 20
432.220312
 42
-0.000718
  0
VERTEX
  8
0
 10
460.335972
 20
432.443874
 42
-0.429988
  0
VERTEX
  8
0
 10
460.062673
 20
432.750000
 42
-0.141400
  0
VERTEX
  8
0
 10
460.265061
 20
433.280743
 42
-0.000565
  0
VERTEX
  8
0
 10
464.142877
 20
438.420313
 42
-0.002782
  0
VERTEX
  8
0
 10
468.593215
 20
444.237298
 42
-0.001740
  0
VERTEX
  8
0
 10
473.864719
 20
451.000000
 42
-0.004639
  0
VERTEX
  8
0
 10
480.407892
 20
459.176790
 42
-0.012194
  0
VERTEX
  8
0
 10
485.294527
 20
464.878924
 42
-0.015343
  0
VERTEX
  8
0
 10
489.029321
 20
468.780165
 42
-0.069648
  0
VERTEX
  8
0
 10
491.552045
 20
470.648417
 42
-0.049803
  0
VERTEX
  8
0
 10
494.312723
 20
471.811854
 42
-0.003063
  0
VERTEX
  8
0
 10
502.859038
 20
474.391952
 42
-0.004527
  0
VERTEX
  8
0
 10
513.104135
 20
477.315964
 42
-0.003336
  0
VERTEX
  8
0
 10
524.500000
 20
480.375438
 42
0.000459
  0
VERTEX
  8
0
 10
535.828770
 20
483.347115
 42
0.000659
  0
VERTEX
  8
0
 10
545.862500
 20
486.003078
 42
0.000349
  0
VERTEX
  8
0
 10
554.356604
 20
488.269822
 42
0.010315
  0
VERTEX
  8
0
 10
556.500000
 20
488.891068
 42
-0.005664
  0
VERTEX
  8
0
 10
558.907421
 20
489.613180
 42
-0.037733
  0
VERTEX
  8
0
 10
560.132617
 20
489.867483
 42
-0.111927
  0
VERTEX
  8
0
 10
560.758840
 20
489.808634
 42
-0.324238
  0
SEQEND
  0
POLYLINE
  8
0
 66
1
 70
1
  0
VERTEX
  8
0
 10
67.065764
 20
480.451710
 42
-0.001237
  0
VERTEX
  8
0
 10
79.546989
 20
477.109925
 42
-0.001900
  0
VERTEX
  8
0
 10
90.337065
 20
474.148261
 42
-0.000621
  0
VERTEX
  8
0
 10
99.661204
 20
471.538347
 42
-0.054361
  0
VERTEX
  8
0
 10
101.005346
 20
470.997139
 42
-0.073962
  0
VERTEX
  8
0
 10
101.948961
 20
470.295966
 42
-0.008231
  0
VERTEX
  8
0
 10
103.816426
 20
468.360921
 42
-0.009873
  0
VERTEX
  8
0
 10
105.967691
 20
465.963907
 42
-0.007850
  0
VERTEX
  8
0
 10
108.197012
 20
463.295429
 42
-0.003121
  0
VERTEX
  8
0
 10
115.625397
 20
453.996427
 42
-0.002365
  0
VERTEX
  8
0
 10
123.662450
 20
443.705962
 42
-0.000271
  0
VERTEX
  8
0
 10
131.759304
 20
433.225488
 42
-0.165806
  0
VERTEX
  8
0
 10
132.000000
 20
432.519606
 42
-0.416183
  0
VERTEX
  8
0
 10
131.286260
 20
431.810645
 42
-0.000361
  0
VERTEX
  8
0
 10
104.718399
 20
432.008332
 42
-0.000767
  0
VERTEX
  8
0
 10
78.837118
 20
432.259319
 42
-0.120621
  0
VERTEX
  8
0
 10
76.044079
 20
432.976410
 42
-0.089391
  0
VERTEX
  8
0
 10
74.136779
 20
434.486563
 42
-0.010497
  0
VERTEX
  8
0
 10
70.622159
 20
438.644150
 42
-0.005131
  0
VERTEX
  8
0
 10
64.506140
 20
446.355435
 42
-0.000429
  0
VERTEX
  8
0
 10
48.890656
 20
466.500000
 42
-0.000486
  0
VERTEX
  8
0
 10
36.766490
 20
482.199871
 42
-0.013047
  0
VERTEX
  8
0
 10
33.657946
 20
486.458641
 42
-0.083940
  0
VERTEX
  8
0
 10
32.805524
 20
488.283753
 42
-0.495527
  0
VERTEX
  8
0
 10
33.350775
 20
489.000000
 42
-0.061732
  0
VERTEX
  8
0
 10
34.470513
 20
488.861225
 42
-0.000425
  0
VERTEX
  8
0
 10
43.860437
 20
486.488940
 42
-0.001651
  0
VERTEX
  8
0
 10
54.599595
 20
483.728304
 42
-0.001054
  0
SEQEND
  0
POLYLINE
  8
0
 66
1
 70
1
  0
VERTEX
  8
0
 10
239.500000
 20
455.623992
 42
0.000000
  0
VERTEX
  8
0
 10
243.500000
 20
453.145259
 42
0.000000
  0
VERTEX
  8
0
 10
238.785679
 20
451.123461
 42
-0.015200
  0
VERTEX
  8
0
 10
231.743273
 20
448.353499
 42
-0.069124
  0
VERTEX
  8
0
 10
227.440813
 20
447.453029
 42
-0.066945
  0
VERTEX
  8
0
 10
222.991789
 20
447.744429
 42
-0.013722
  0
VERTEX
  8
0
 10
215.300404
 20
449.517239
 42
-0.003344
  0
VERTEX
  8
0
 10
211.110354
 20
450.634873
 42
-0.004996
  0
VERTEX
  8
0
 10
207.464764
 20
451.672707
 42
-0.002238
  0
VERTEX
  8
0
 10
204.374800
 20
452.600892
 42
-0.101516
  0
VERTEX
  8
0
 10
203.792411
 20
452.918015
 42
-0.536832
  0
VERTEX
  8
0
 10
203.835431
 20
453.288748
 42
-0.005197
  0
VERTEX
  8
0
 10
206.710369
 20
454.711430
 42
-0.010743
  0
VERTEX
  8
0
 10
210.307407
 20
456.350861
 42
-0.006124
  0
VERTEX
  8
0
 10
214.719521
 20
458.184686
 42
0.000000
  0
VERTEX
  8
0
 10
226.354221
 20
462.854194
 42
0.000000
  0
VERTEX
  8
0
 10
230.927111
 20
460.478460
 42
-0.005542
  0
VERTEX
  8
0
 10
232.968624
 20
459.388941
 42
-0.003482
  0
VERTEX
  8
0
 10
235.331714
 20
458.072470
 42
-0.003495
  0
VERTEX
  8
0
 10
237.639355
 20
456.744364
 42
-0.006387
  0
SEQEND
  0
POLYLINE
  8
0
 66
1
 70
1
  0
VERTEX
  8
0
 10
379.696962
 20
457.789276
 42
-0.006346
  0
VERTEX
  8
0
 10
383.578756
 20
456.150989
 42
-0.010736
  0
VERTEX
  8
0
 10
386.781915
 20
454.668256
 42
-0.004629
  0
VERTEX
  8
0
 10
389.395121
 20
453.359662
 42
-0.437862
  0
VERTEX
  8
0
 10
389.496815
 20
452.994846
 42
-0.181634
  0
VERTEX
  8
0
 10
389.076897
 20
452.670376
 42
-0.002381
  0
VERTEX
  8
0
 10
385.855693
 20
451.695931
 42
-0.006488
  0
VERTEX
  8
0
 10
382.072868
 20
450.624448
 42
-0.004169
  0
VERTEX
  8
0
 10
377.659147
 20
449.475290
 42
0.000000
  0
VERTEX
  8
0
 10
366.218586
 20
446.598268
 42
0.000000
  0
VERTEX
  8
0
 10
358.859293
 20
449.435663
 42
-0.004144
  0
VERTEX
  8
0
 10
355.985083
 20
450.571275
 42
-0.005817
  0
VERTEX
  8
0
 10
353.440014
 20
451.635934
 42
-0.003576
  0
VERTEX
  8
0
 10
351.321176
 20
452.569436
 42
-0.075781
  0
VERTEX
  8
0
 10
350.745011
 20
452.941518
 42
-0.510938
  0
VERTEX
  8
0
 10
350.855724
 20
454.060636
 42
-0.006114
  0
VERTEX
  8
0
 10
358.293219
 20
458.272183
 42
-0.007345
  0
VERTEX
  8
0
 10
365.809649
 20
462.265164
 42
-0.200629
  0
VERTEX
  8
0
 10
368.000000
 20
462.435544
 42
-0.014126
  0
VERTEX
  8
0
 10
369.003363
 20
462.073126
 42
-0.000809
  0
VERTEX
  8
0
 10
372.054732
 20
460.866774
 42
-0.001235
  0
VERTEX
  8
0
 10
375.681757
 20
459.415667
 42
-0.000906
  0
SEQEND
  0
POLYLINE
  8
0
 66
1
 70
1
  0
VERTEX
  8
0
 10
212.030827
 20
425.500000
 42
-0.192194
  0
VERTEX
  8
0
 10
211.371499
 20
423.235641
 42
-0.002635
  0
VERTEX
  8
0
 10
202.284364
 20
411.727173
 42
-0.002002
  0
VERTEX
  8
0
 10
192.972829
 20
400.156737
 42
-0.516288
  0
VERTEX
  8
0
 10
191.858989
 20
400.228160
 42
-0.091124
  0
VERTEX
  8
0
 10
191.027596
 20
402.360117
 42
-0.008156
  0
VERTEX
  8
0
 10
190.029949
 20
408.043446
 42
-0.011258
  0
VERTEX
  8
0
 10
189.163536
 20
414.425105
 42
-0.013263
  0
VERTEX
  8
0
 10
188.640408
 20
420.500000
 42
-0.022660
  0
VERTEX
  8
0
 10
188.548257
 20
427.051415
 42
-0.013462
  0
VERTEX
  8
0
 10
189.002229
 20
434.847029
 42
-0.013422
  0
VERTEX
  8
0
 10
189.847034
 20
442.362957
 42
-0.031075
  0
VERTEX
  8
0
 10
190.979584
 20
447.924180
 42
0.000000
  0
VERTEX
  8
0
 10
192.110734
 20
452.124950
 42
0.000000
  0
VERTEX
  8
0
 10
202.022423
 20
439.312475
 42
-0.003087
  0
VERTEX
  8
0
 10
205.828273
 20
434.329528
 42
-0.004761
  0
VERTEX
  8
0
 10
209.050964
 20
429.969915
 42
-0.001679
  0
VERTEX
  8
0
 10
211.774397
 20
426.184649
 42
-0.131731
  0
SEQEND
  0
POLYLINE
  8
0
 66
1
 70
1
  0
VERTEX
  8
0
 10
402.617672
 20
443.262239
 42
-0.038759
  0
VERTEX
  8
0
 10
403.782124
 20
433.065394
 42
-0.018135
  0
VERTEX
  8
0
 10
403.781572
 20
419.768555
 42
-0.015039
  0
VERTEX
  8
0
 10
402.939788
 20
407.106869
 42
-0.103806
  0
VERTEX
  8
0
 10
401.089627
 20
401.195671
 42
-0.460877
  0
VERTEX
  8
0
 10
400.280260
 20
401.034243
 42
-0.035618
  0
VERTEX
  8
0
 10
398.421685
 20
402.724702
 42
-0.021521
  0
VERTEX
  8
0
 10
395.605859
 20
405.944983
 42
-0.004945
  0
VERTEX
  8
0
 10
391.146586
 20
411.625126
 42
-0.006730
  0
VERTEX
  8
0
 10
387.646451
 20
416.304483
 42
-0.009756
  0
VERTEX
  8
0
 10
384.693770
 20
420.535916
 42
-0.005845
  0
VERTEX
  8
0
 10
382.340453
 20
424.143218
 42
-0.141653
  0
VERTEX
  8
0
 10
382.006222
 20
425.284375
 42
-0.160430
  0
VERTEX
  8
0
 10
382.744268
 20
427.551967
 42
-0.002412
  0
VERTEX
  8
0
 10
391.131304
 20
438.872420
 42
-0.001512
  0
VERTEX
  8
0
 10
399.815451
 20
450.403579
 42
-0.454900
  0
VERTEX
  8
0
 10
400.858268
 20
450.475066
 42
-0.133781
  0
VERTEX
  8
0
 10
401.078157
 20
450.090500
 42
-0.003544
  0
VERTEX
  8
0
 10
401.560960
 20
448.170430
 42
-0.007189
  0
VERTEX
  8
0
 10
402.083476
 20
445.886168
 42
-0.004829
  0
SEQEND
  0
POLYLINE
  8
0
 66
1
 70
1
  0
VERTEX
  8
0
 10
214.783227
 20
444.981427
 42
-0.018171
  0
VERTEX
  8
0
 10
221.330369
 20
443.163518
 42
-0.063240
  0
VERTEX
  8
0
 10
225.306158
 20
441.323312
 42
-0.067563
  0
VERTEX
  8
0
 10
228.557900
 20
438.613605
 42
-0.022744
  0
VERTEX
  8
0
 10
232.523271
 20
433.864178
 42
0.000000
  0
VERTEX
  8
0
 10
236.983014
 20
428.000000
 42
0.000000
  0
VERTEX
  8
0
 10
226.741507
 20
428.035101
 42
0.000000
  0
VERTEX
  8
0
 10
216.500000
 20
428.070202
 42
0.000000
  0
VERTEX
  8
0
 10
209.500000
 20
437.159576
 42
-0.002407
  0
VERTEX
  8
0
 10
204.059353
 20
444.294943
 42
-0.042967
  0
VERTEX
  8
0
 10
202.525122
 20
446.737989
 42
-0.432667
  0
VERTEX
  8
0
 10
202.811101
 20
447.541784
 42
-0.173421
  0
VERTEX
  8
0
 10
204.116119
 20
447.631787
 42
0.006671
  0
VERTEX
  8
0
 10
205.513574
 20
447.258198
 42
0.001089
  0
VERTEX
  8
0
 10
208.232933
 20
446.576251
 42
0.001199
  0
VERTEX
  8
0
 10
211.437144
 20
445.788286
 42
0.001057
  0
SEQEND
  0
POLYLINE
  8
0
 66
1
 70
1
  0
VERTEX
  8
0
 10
384.450930
 20
438.000000
 42
0.000000
  0
VERTEX
  8
0
 10
376.785747
 20
428.000000
 42
0.000000
  0
VERTEX
  8
0
 10
366.349772
 20
428.000000
 42
0.000000
  0
VERTEX
  8
0
 10
355.913796
 20
428.000000
 42
0.000000
  0
VERTEX
  8
0
 10
361.561056
 20
434.989503
 42
-0.011454
  0
VERTEX
  8
0
 10
364.666837
 20
438.658284
 42
-0.039166
  0
VERTEX
  8
0
 10
366.915804
 20
440.826483
 42
-0.056800
  0
VERTEX
  8
0
 10
368.981117
 20
442.165913
 42
-0.052157
  0
VERTEX
  8
0
 10
371.354157
 20
443.052764
 42
0.002728
  0
VERTEX
  8
0
 10
373.394483
 20
443.593096
 42
0.001082
  0
VERTEX
  8
0
 10
376.191534
 20
444.356679
 42
0.001070
  0
VERTEX
  8
0
 10
379.207735
 20
445.194054
 42
0.001343
  0
VERTEX
  8
0
 10
382.000000
 20
445.983793
 42
-0.007766
  0
VERTEX
  8
0
 10
389.295631
 20
447.946369
 42
-0.399469
  0
VERTEX
  8
0
 10
390.467294
 20
447.286609
 42
-0.238144
  0
VERTEX
  8
0
 10
390.178796
 20
445.603141
 42
-0.004172
  0
SEQEND
  0
POLYLINE
  8
0
 66
1
 70
1
  0
VERTEX
  8
0
 10
231.907050
 20
416.476410
 42
-0.008507
  0
VERTEX
  8
0
 10
229.823911
 20
413.916534
 42
-0.010695
  0
VERTEX
  8
0
 10
227.804522
 20
411.620967
 42
-0.008986
  0
VERTEX
  8
0
 10
226.045630
 20
409.773496
 42
-0.079256
  0
VERTEX
  8
0
 10
225.140180
 20
409.108030
 42
-0.052792
  0
VERTEX
  8
0
 10
222.126014
 20
407.938477
 42
-0.003441
  0
VERTEX
  8
0
 10
213.053324
 20
405.546627
 42
-0.001029
  0
VERTEX
  8
0
 10
203.219987
 20
403.048050
 42
-0.263926
  0
VERTEX
  8
0
 10
202.389341
 20
403.277326
 42
-0.352309
  0
VERTEX
  8
0
 10
202.326180
 20
403.860212
 42
-0.013959
  0
VERTEX
  8
0
 10
203.616234
 20
405.756276
 42
-0.009692
  0
VERTEX
  8
0
 10
206.027380
 20
408.962848
 42
-0.001048
  0
VERTEX
  8
0
 10
211.755956
 20
416.250000
 42
0.000000
  0
VERTEX
  8
0
 10
217.085186
 20
423.000000
 42
0.000000
  0
VERTEX
  8
0
 10
227.059463
 20
423.000000
 42
0.000000
  0
VERTEX
  8
0
 10
237.033740
 20
423.000000
 42
0.000000
  0
SEQEND
  0
POLYLINE
  8
0
 66
1
 70
1
  0
VERTEX
  8
0
 10
381.646600
 20
416.250000
 42
-0.002714
  0
VERTEX
  8
0
 10
386.384882
 20
409.830034
 42
-0.011881
  0
VERTEX
  8
0
 10
389.073517
 20
405.955385
 42
-0.013489
  0
VERTEX
  8
0
 10
390.635222
 20
403.441504
 42
-0.579122
  0
VERTEX
  8
0
 10
390.381880
 20
403.000000
 42
-0.058892
  0
VERTEX
  8
0
 10
389.852525
 20
403.062566
 42
-0.001923
  0
VERTEX
  8
0
 10
387.774163
 20
403.569285
 42
-0.003661
  0
VERTEX
  8
0
 10
385.325006
 20
404.195463
 42
-0.002534
  0
VERTEX
  8
0
 10
382.563786
 20
404.937992
 42
0.000736
  0
VERTEX
  8
0
 10
379.553527
 20
405.759110
 42
0.000612
  0
VERTEX
  8
0
 10
376.349275
 20
406.623867
 42
0.000618
  0
VERTEX
  8
0
 10
373.412466
 20
407.408705
 42
0.001674
  0
VERTEX
  8
0
 10
371.327361
 20
407.955705
 42
-0.049061
  0
VERTEX
  8
0
 10
368.970874
 20
408.819232
 42
-0.058728
  0
VERTEX
  8
0
 10
366.977893
 20
410.087173
 42
-0.042203
  0
VERTEX
  8
0
 10
364.882167
 20
412.112404
 42
-0.013021
  0
VERTEX
  8
0
 10
362.077361
 20
415.496246
 42
-0.003663
  0
VERTEX
  8
0
 10
360.131326
 20
418.010225
 42
-0.005670
  0
VERTEX
  8
0
 10
358.491475
 20
420.212381
 42
-0.002051
  0
VERTEX
  8
0
 10
357.113932
 20
422.123182
 42
-0.156389
  0
VERTEX
  8
0
 10
357.000000
 20
422.478533
 42
-0.395556
  0
VERTEX
  8
0
 10
357.197749
 20
422.689386
 42
-0.002745
  0
VERTEX
  8
0
 10
359.879912
 20
422.846819
 42
-0.008299
  0
VERTEX
  8
0
 10
363.044721
 20
422.962515
 42
-0.004986
  0
VERTEX
  8
0
 10
366.803956
 20
423.000000
 42
0.000000
  0
VERTEX
  8
0
 10
376.607913
 20
423.000000
 42
0.000000
  0
SEQEND
  0
POLYLINE
  8
0
 66
1
 70
1
  0
VERTEX
  8
0
 10
182.979447
 20
412.256709
 42
0.034634
  0
VERTEX
  8
0
 10
186.227724
 20
395.763068
 42
0.035523
  0
VERTEX
  8
0
 10
191.703229
 20
380.019572
 42
0.035956
  0
VERTEX
  8
0
 10
199.275847
 20
365.388486
 42
0.037497
  0
VERTEX
  8
0
 10
208.773250
 20
352.209351
 42
0.000000
  0
VERTEX
  8
0
 10
213.224101
 20
346.918702
 42
0.000000
  0
VERTEX
  8
0
 10
203.246413
 20
336.807748
 42
0.000000
  0
VERTEX
  8
0
 10
193.268724
 20
326.696793
 42
0.000000
  0
VERTEX
  8
0
 10
189.384362
 20
330.962932
 42
-0.045243
  0
VERTEX
  8
0
 10
176.088104
 20
348.520012
 42
-0.038539
  0
VERTEX
  8
0
 10
165.341153
 20
369.127608
 42
-0.038486
  0
VERTEX
  8
0
 10
157.870548
 20
391.173000
 42
-0.044763
  0
VERTEX
  8
0
 10
154.338253
 20
413.015494
 42
0.000000
  0
VERTEX
  8
0
 10
153.700515
 20
422.000000
 42
0.000000
  0
VERTEX
  8
0
 10
167.726784
 20
422.000000
 42
0.000000
  0
VERTEX
  8
0
 10
181.753053
 20
422.000000
 42
0.000000
  0
SEQEND
  0
POLYLINE
  8
0
 66
1
 70
1
  0
VERTEX
  8
0
 10
438.589485
 20
414.250000
 42
-0.029527
  0
VERTEX
  8
0
 10
436.074039
 20
397.305054
 42
-0.027800
  0
VERTEX
  8
0
 10
431.546750
 20
380.422207
 42
-0.028115
  0
VERTEX
  8
0
 10
425.240852
 20
364.345427
 42
-0.032159
  0
VERTEX
  8
0
 10
417.408170
 20
349.811708
 42
-0.019344
  0
VERTEX
  8
0
 10
414.052203
 20
344.877609
 42
-0.005510
  0
VERTEX
  8
0
 10
408.464849
 20
337.481670
 42
-0.002558
  0
VERTEX
  8
0
 10
402.564953
 20
329.928561
 42
-0.087468
  0
VERTEX
  8
0
 10
400.877474
 20
328.424275
 42
-0.314362
  0
VERTEX
  8
0
 10
400.116513
 20
328.466618
 42
-0.007763
  0
VERTEX
  8
0
 10
397.254822
 20
330.782050
 42
-0.013796
  0
VERTEX
  8
0
 10
393.851974
 20
333.787037
 42
-0.008135
  0
VERTEX
  8
0
 10
389.947922
 20
337.551882
 42
0.000000
  0
VERTEX
  8
0
 10
380.109217
 20
347.353670
 42
0.000000
  0
VERTEX
  8
0
 10
384.900004
 20
353.426835
 42
0.034885
  0
VERTEX
  8
0
 10
394.448699
 20
367.439352
 42
0.034776
  0
VERTEX
  8
0
 10
401.967664
 20
382.657630
 42
0.035708
  0
VERTEX
  8
0
 10
407.130842
 20
398.343721
 42
0.042225
  0
VERTEX
  8
0
 10
409.651900
 20
413.750000
 42
0.000000
  0
VERTEX
  8
0
 10
410.295055
 20
422.000000
 42
0.000000
  0
VERTEX
  8
0
 10
424.785459
 20
422.000000
 42
0.000000
  0
VERTEX
  8
0
 10
439.275863
 20
422.000000
 42
0.000000
  0
SEQEND
  0
POLYLINE
  8
0
 66
1
 70
1
  0
VERTEX
  8
0
 10
132.000000
 20
419.542585
 42
-0.168049
  0
VERTEX
  8
0
 10
131.637869
 20
418.495560
 42
-0.000194
  0
VERTEX
  8
0
 10
117.175217
 20
400.103485
 42
-0.000448
  0
VERTEX
  8
0
 10
103.100269
 20
382.251696
 42
-0.066532
  0
VERTEX
  8
0
 10
101.218682
 20
380.429430
 42
-0.093814
  0
VERTEX
  8
0
 10
98.565914
 20
379.149848
 42
-0.000375
  0
VERTEX
  8
0
 10
66.494541
 20
370.563080
 42
-0.000160
  0
VERTEX
  8
0
 10
33.657462
 20
361.808931
 42
-0.267524
  0
VERTEX
  8
0
 10
32.563746
 20
362.102921
 42
-0.375533
  0
VERTEX
  8
0
 10
32.520701
 20
362.745163
 42
-0.000113
  0
VERTEX
  8
0
 10
49.683531
 20
385.238488
 42
-0.001686
  0
VERTEX
  8
0
 10
64.882433
 20
405.010005
 42
-0.009794
  0
VERTEX
  8
0
 10
73.135005
 20
415.250000
 42
0.000000
  0
VERTEX
  8
0
 10
77.119051
 20
420.000000
 42
0.000000
  0
VERTEX
  8
0
 10
104.559526
 20
420.000000
 42
-0.001562
  0
VERTEX
  8
0
 10
115.081573
 20
419.967130
 42
-0.002605
  0
VERTEX
  8
0
 10
123.939361
 20
419.865634
 42
-0.000274
  0
VERTEX
  8
0
 10
131.815857
 20
419.730028
 42
-0.409021
  0
SEQEND
  0
POLYLINE
  8
0
 66
1
 70
1
  0
VERTEX
  8
0
 10
517.953467
 20
417.049814
 42
-0.023481
  0
VERTEX
  8
0
 10
523.727039
 20
410.256167
 42
-0.001271
  0
VERTEX
  8
0
 10
540.874534
 20
387.928144
 42
-0.000144
  0
VERTEX
  8
0
 10
559.769478
 20
363.180035
 42
-0.375601
  0
VERTEX
  8
0
 10
559.716141
 20
362.382808
 42
-0.265640
  0
VERTEX
  8
0
 10
558.735081
 20
362.115394
 42
-0.000154
  0
VERTEX
  8
0
 10
528.690510
 20
369.898608
 42
-0.001133
  0
VERTEX
  8
0
 10
501.325817
 20
377.062745
 42
-0.025184
  0
VERTEX
  8
0
 10
493.500000
 20
379.558167
 42
-0.084526
  0
VERTEX
  8
0
 10
490.764905
 20
381.152220
 42
-0.032567
  0
VERTEX
  8
0
 10
487.573654
 20
384.194170
 42
-0.017319
  0
VERTEX
  8
0
 10
483.034644
 20
389.479253
 42
-0.003125
  0
VERTEX
  8
0
 10
475.000000
 20
399.647527
 42
-0.001109
  0
VERTEX
  8
0
 10
469.417829
 20
406.836377
 42
-0.001748
  0
VERTEX
  8
0
 10
464.661458
 20
413.034544
 42
-0.000412
  0
VERTEX
  8
0
 10
460.518439
 20
418.482006
 42
-0.072153
  0
VERTEX
  8
0
 10
460.166667
 20
419.117840
 42
-0.512708
  0
VERTEX
  8
0
 10
460.410169
 20
419.484486
 42
-0.001195
  0
VERTEX
  8
0
 10
467.930186
 20
419.745043
 42
-0.005184
  0
VERTEX
  8
0
 10
476.751892
 20
419.938063
 42
-0.002877
  0
VERTEX
  8
0
 10
487.515457
 20
420.000000
 42
0.000000
  0
VERTEX
  8
0
 10
515.197580
 20
420.000000
 42
0.000000
  0
SEQEND
  0
POLYLINE
  8
0
 66
1
 70
1
  0
VERTEX
  8
0
 10
147.838984
 20
413.750000
 42
0.029719
  0
VERTEX
  8
0
 10
149.127587
 20
402.443945
 42
0.018587
  0
VERTEX
  8
0
 10
151.906671
 20
389.410110
 42
0.018423
  0
VERTEX
  8
0
 10
155.707260
 20
376.393688
 42
0.025797
  0
VERTEX
  8
0
 10
160.115744
 20
365.111685
 42
-0.001689
  0
VERTEX
  8
0
 10
161.221312
 20
362.640753
 42
-0.002653
  0
VERTEX
  8
0
 10
162.152750
 20
360.509550
 42
-0.000683
  0
VERTEX
  8
0
 10
162.953187
 20
358.644263
 42
-0.101342
  0
VERTEX
  8
0
 10
163.000000
 20
358.415671
 42
-0.532359
  0
VERTEX
  8
0
 10
162.719602
 20
358.226953
 42
-0.000070
  0
VERTEX
  8
0
 10
139.872652
 20
367.515279
 42
-0.000166
  0
VERTEX
  8
0
 10
117.386046
 20
376.669452
 42
-0.099946
  0
VERTEX
  8
0
 10
116.228739
 20
377.437927
 42
-0.342731
  0
VERTEX
  8
0
 10
116.175839
 20
377.858821
 42
-0.007990
  0
VERTEX
  8
0
 10
117.291093
 20
379.672469
 42
-0.014328
  0
VERTEX
  8
0
 10
118.755556
 20
381.831761
 42
-0.008799
  0
VERTEX
  8
0
 10
120.596783
 20
384.293356
 42
0.000589
  0
VERTEX
  8
0
 10
123.170625
 20
387.619119
 42
0.000169
  0
VERTEX
  8
0
 10
127.144055
 20
392.769460
 42
0.000170
  0
VERTEX
  8
0
 10
131.620405
 20
398.579846
 42
0.000182
  0
VERTEX
  8
0
 10
136.000000
 20
404.272927
 42
-0.002276
  0
VERTEX
  8
0
 10
140.065367
 20
409.511980
 42
-0.003676
  0
VERTEX
  8
0
 10
143.578507
 20
413.929771
 42
-0.000720
  0
VERTEX
  8
0
 10
146.698438
 20
417.783066
 42
-0.209935
  0
VERTEX
  8
0
 10
147.054492
 20
417.966122
 42
-0.361295
  0
VERTEX
  8
0
 10
147.283469
 20
417.798334
 42
-0.015262
  0
VERTEX
  8
0
 10
147.513665
 20
416.741611
 42
-0.020223
  0
VERTEX
  8
0
 10
147.710880
 20
415.376982
 42
-0.012256
  0
SEQEND
  0
POLYLINE
  8
0
 66
1
 70
1
  0
VERTEX
  8
0
 10
461.857364
 20
397.138885
 42
-0.001936
  0
VERTEX
  8
0
 10
467.279001
 20
390.043412
 42
-0.003101
  0
VERTEX
  8
0
 10
471.845601
 20
383.940480
 42
-0.000633
  0
VERTEX
  8
0
 10
475.817266
 20
378.549169
 42
-0.159753
  0
VERTEX
  8
0
 10
476.000000
 20
377.991838
 42
-0.300294
  0
VERTEX
  8
0
 10
475.563029
 20
377.329874
 42
-0.001212
  0
VERTEX
  8
0
 10
467.016885
 20
373.701833
 42
-0.003972
  0
VERTEX
  8
0
 10
455.347700
 20
368.890169
 42
-0.001055
  0
VERTEX
  8
0
 10
436.657636
 20
361.402509
 42
-0.009283
  0
VERTEX
  8
0
 10
433.980398
 20
360.393665
 42
-0.039600
  0
VERTEX
  8
0
 10
432.331844
 20
359.950443
 42
-0.122538
  0
VERTEX
  8
0
 10
431.528758
 20
359.998989
 42
-0.432543
  0
VERTEX
  8
0
 10
431.328457
 20
360.413561
 42
0.012757
  0
VERTEX
  8
0
 10
434.748342
 20
370.053977
 42
0.008220
  0
VERTEX
  8
0
 10
438.239909
 20
381.383679
 42
0.008204
  0
VERTEX
  8
0
 10
441.223987
 20
392.332124
 42
0.019546
  0
VERTEX
  8
0
 10
442.986401
 20
400.576623
 42
-0.001205
  0
VERTEX
  8
0
 10
444.830581
 20
411.073057
 42
-0.016744
  0
VERTEX
  8
0
 10
445.631709
 20
414.835115
 42
-0.073213
  0
VERTEX
  8
0
 10
446.244951
 20
416.329256
 42
-0.506428
  0
VERTEX
  8
0
 10
446.912719
 20
416.394645
 42
-0.017548
  0
VERTEX
  8
0
 10
447.501774
 20
415.689246
 42
-0.000166
  0
VERTEX
  8
0
 10
451.633537
 20
410.369224
 42
-0.000557
  0
VERTEX
  8
0
 10
456.378852
 20
404.240935
 42
-0.000360
  0
SEQEND
  0
POLYLINE
  8
0
 66
1
 70
1
  0
VERTEX
  8
0
 10
390.494616
 20
397.838717
 42
-0.521515
  0
VERTEX
  8
0
 10
390.451502
 20
397.596320
 42
-0.001815
  0
VERTEX
  8
0
 10
387.297003
 20
396.150671
 42
-0.006456
  0
VERTEX
  8
0
 10
383.565250
 20
394.514612
 42
-0.003775
  0
VERTEX
  8
0
 10
379.054998
 20
392.646305
 42
0.000000
  0
VERTEX
  8
0
 10
367.220775
 20
387.848497
 42
0.000000
  0
VERTEX
  8
0
 10
358.402507
 20
392.887343
 42
0.000000
  0
VERTEX
  8
0
 10
349.584239
 20
397.926189
 42
0.000000
  0
VERTEX
  8
0
 10
355.542120
 20
400.491542
 42
-0.000420
  0
VERTEX
  8
0
 10
357.969761
 20
401.534424
 42
-0.000454
  0
VERTEX
  8
0
 10
360.337373
 20
402.546622
 42
-0.000427
  0
VERTEX
  8
0
 10
362.369772
 20
403.411279
 42
-0.002190
  0
VERTEX
  8
0
 10
363.500000
 20
403.885148
 42
-0.123202
  0
VERTEX
  8
0
 10
364.986203
 20
404.105899
 42
-0.017344
  0
VERTEX
  8
0
 10
368.081831
 20
403.693630
 42
-0.015830
  0
VERTEX
  8
0
 10
372.267387
 20
402.850660
 42
-0.006792
  0
VERTEX
  8
0
 10
377.800006
 20
401.473361
 42
-0.002066
  0
VERTEX
  8
0
 10
382.543301
 20
400.202911
 42
-0.003256
  0
VERTEX
  8
0
 10
386.602800
 20
399.069168
 42
-0.000841
  0
VERTEX
  8
0
 10
390.134490
 20
398.051567
 42
-0.126463
  0
SEQEND
  0
POLYLINE
  8
0
 66
1
 70
1
  0
VERTEX
  8
0
 10
235.750000
 20
401.286123
 42
-0.006551
  0
VERTEX
  8
0
 10
238.529218
 20
400.190726
 42
-0.010467
  0
VERTEX
  8
0
 10
240.870313
 20
399.174665
 42
-0.004588
  0
VERTEX
  8
0
 10
242.807687
 20
398.263564
 42
-0.288105
  0
VERTEX
  8
0
 10
243.000000
 20
397.957512
 42
-0.255548
  0
VERTEX
  8
0
 10
242.815829
 20
397.620699
 42
-0.002767
  0
VERTEX
  8
0
 10
240.517394
 20
396.165284
 42
-0.007816
  0
VERTEX
  8
0
 10
237.788333
 20
394.517057
 42
-0.004904
  0
VERTEX
  8
0
 10
234.548574
 20
392.671199
 42
0.000000
  0
VERTEX
  8
0
 10
226.097148
 20
387.965184
 42
0.000000
  0
VERTEX
  8
0
 10
214.503849
 20
392.604534
 42
-0.006051
  0
VERTEX
  8
0
 10
210.101673
 20
394.428283
 42
-0.010500
  0
VERTEX
  8
0
 10
206.497991
 20
396.062984
 42
-0.004768
  0
VERTEX
  8
0
 10
203.589802
 20
397.490809
 42
-0.511198
  0
VERTEX
  8
0
 10
203.529816
 20
397.863150
 42
-0.129127
  0
VERTEX
  8
0
 10
204.966800
 20
398.702336
 42
-0.002125
  0
VERTEX
  8
0
 10
213.997469
 20
401.177201
 42
-0.004217
  0
VERTEX
  8
0
 10
222.596689
 20
403.416973
 42
-0.050057
  0
VERTEX
  8
0
 10
226.000000
 20
403.918588
 42
-0.065217
  0
VERTEX
  8
0
 10
227.401075
 20
403.800699
 42
-0.012379
  0
VERTEX
  8
0
 10
229.895312
 20
403.193089
 42
-0.013025
  0
VERTEX
  8
0
 10
232.791001
 20
402.329745
 42
-0.011634
  0
SEQEND
  0
POLYLINE
  8
0
 66
1
 70
1
  0
VERTEX
  8
0
 10
207.766014
 20
390.406613
 42
-0.003998
  0
VERTEX
  8
0
 10
213.119280
 20
388.176338
 42
-0.005693
  0
VERTEX
  8
0
 10
217.835618
 20
386.103248
 42
-0.003304
  0
VERTEX
  8
0
 10
221.770712
 20
384.288381
 42
-0.080985
  0
VERTEX
  8
0
 10
222.759493
 20
383.611405
 42
-0.186354
  0
VERTEX
  8
0
 10
223.334927
 20
382.390201
 42
-0.029655
  0
VERTEX
  8
0
 10
223.368788
 20
379.697064
 42
-0.018348
  0
VERTEX
  8
0
 10
223.004736
 20
375.342755
 42
-0.003623
  0
VERTEX
  8
0
 10
222.009493
 20
367.570106
 42
0.001101
  0
VERTEX
  8
0
 10
221.236720
 20
361.767347
 42
0.001574
  0
VERTEX
  8
0
 10
220.578625
 20
356.615226
 42
0.000852
  0
VERTEX
  8
0
 10
220.043013
 20
352.253742
 42
0.023983
  0
VERTEX
  8
0
 10
219.960295
 20
351.115314
 42
-0.644770
  0
VERTEX
  8
0
 10
219.104700
 20
350.752725
 42
-0.018797
  0
VERTEX
  8
0
 10
215.414399
 20
354.418967
 42
-0.020055
  0
VERTEX
  8
0
 10
211.062539
 20
359.472065
 42
-0.018717
  0
VERTEX
  8
0
 10
207.023071
 20
364.972431
 42
-0.027558
  0
VERTEX
  8
0
 10
201.676603
 20
373.873267
 42
-0.018809
  0
VERTEX
  8
0
 10
196.561653
 20
384.510948
 42
-0.010955
  0
VERTEX
  8
0
 10
192.476414
 20
394.486974
 42
-0.526204
  0
VERTEX
  8
0
 10
193.516014
 20
396.000000
 42
-0.093375
  0
VERTEX
  8
0
 10
193.906972
 20
395.926346
 42
-0.000405
  0
VERTEX
  8
0
 10
197.914808
 20
394.356943
 42
-0.001951
  0
VERTEX
  8
0
 10
202.464043
 20
392.550766
 42
-0.001228
  0
SEQEND
  0
POLYLINE
  8
0
 66
1
 70
1
  0
VERTEX
  8
0
 10
400.000000
 20
395.656550
 42
-0.092850
  0
VERTEX
  8
0
 10
399.604707
 20
393.546236
 42
-0.005425
  0
VERTEX
  8
0
 10
397.159847
 20
387.446142
 42
-0.008988
  0
VERTEX
  8
0
 10
394.344443
 20
380.968685
 42
-0.012546
  0
VERTEX
  8
0
 10
391.579409
 20
375.289334
 42
-0.024170
  0
VERTEX
  8
0
 10
387.562032
 20
368.377395
 42
-0.012083
  0
VERTEX
  8
0
 10
381.858868
 20
360.023087
 42
-0.004919
  0
VERTEX
  8
0
 10
375.885737
 20
351.882151
 42
-0.236244
  0
VERTEX
  8
0
 10
374.122902
 20
351.000000
 42
-0.378701
  0
VERTEX
  8
0
 10
373.377959
 20
351.658685
 42
-0.000922
  0
VERTEX
  8
0
 10
371.517606
 20
366.970223
 42
-0.001157
  0
VERTEX
  8
0
 10
369.736893
 20
382.153386
 42
-0.228831
  0
VERTEX
  8
0
 10
370.227677
 20
383.561011
 42
-0.095497
  0
VERTEX
  8
0
 10
371.314803
 20
384.296772
 42
-0.000403
  0
VERTEX
  8
0
 10
384.563825
 20
389.957197
 42
-0.000485
  0
VERTEX
  8
0
 10
397.716424
 20
395.548845
 42
-0.078037
  0
VERTEX
  8
0
 10
399.250000
 20
395.932695
 42
-0.043699
  0
VERTEX
  8
0
 10
399.537172
 20
395.933314
 42
-0.067001
  0
VERTEX
  8
0
 10
399.779688
 20
395.879341
 42
-0.091700
  0
VERTEX
  8
0
 10
399.942824
 20
395.782508
 42
-0.216341
  0
SEQEND
  0
POLYLINE
  8
0
 66
1
 70
1
  0
VERTEX
  8
0
 10
244.914584
 20
384.704252
 42
0.000000
  0
VERTEX
  8
0
 10
243.722375
 20
376.181963
 42
0.000000
  0
VERTEX
  8
0
 10
234.861188
 20
367.361831
 42
-0.004194
  0
VERTEX
  8
0
 10
227.871563
 20
360.520352
 42
-0.374672
  0
VERTEX
  8
0
 10
226.528357
 20
360.454034
 42
-0.261587
  0
VERTEX
  8
0
 10
225.925597
 20
361.914361
 42
-0.002715
  0
VERTEX
  8
0
 10
227.361021
 20
373.275031
 42
-0.008866
  0
VERTEX
  8
0
 10
227.934470
 20
377.099165
 42
-0.012316
  0
VERTEX
  8
0
 10
228.592789
 20
380.500030
 42
-0.008855
  0
VERTEX
  8
0
 10
229.256146
 20
383.288533
 42
-0.134334
  0
VERTEX
  8
0
 10
229.744132
 20
384.144132
 42
-0.062025
  0
VERTEX
  8
0
 10
231.574350
 20
385.568996
 42
-0.003128
  0
VERTEX
  8
0
 10
238.112163
 20
389.411565
 42
-0.000984
  0
VERTEX
  8
0
 10
245.171576
 20
393.482968
 42
-0.296288
  0
VERTEX
  8
0
 10
245.803396
 20
393.448228
 42
-0.264665
  0
VERTEX
  8
0
 10
245.906892
 20
393.217900
 42
-0.001536
  0
VERTEX
  8
0
 10
245.667459
 20
390.788239
 42
-0.005820
  0
VERTEX
  8
0
 10
245.349782
 20
387.987430
 42
-0.003603
  0
SEQEND
  0
POLYLINE
  8
0
 66
1
 70
1
  0
VERTEX
  8
0
 10
360.739862
 20
386.273797
 42
-0.032154
  0
VERTEX
  8
0
 10
362.020103
 20
385.521037
 42
-0.032468
  0
VERTEX
  8
0
 10
363.188875
 20
384.612569
 42
-0.034296
  0
VERTEX
  8
0
 10
364.095905
 20
383.689401
 42
-0.100507
  0
VERTEX
  8
0
 10
364.527333
 20
382.913880
 42
-0.043859
  0
VERTEX
  8
0
 10
365.122921
 20
380.246354
 42
-0.001612
  0
VERTEX
  8
0
 10
366.453467
 20
369.972039
 42
-0.000401
  0
VERTEX
  8
0
 10
367.841433
 20
358.904600
 42
-0.231338
  0
VERTEX
  8
0
 10
367.634127
 20
358.300794
 42
-0.406204
  0
VERTEX
  8
0
 10
367.442757
 20
358.298170
 42
-0.000711
  0
VERTEX
  8
0
 10
364.871797
 20
360.738792
 42
-0.004204
  0
VERTEX
  8
0
 10
361.968269
 20
363.549898
 42
-0.002521
  0
VERTEX
  8
0
 10
358.564893
 20
366.934805
 42
0.000000
  0
VERTEX
  8
0
 10
349.733823
 20
375.806982
 42
0.000000
  0
VERTEX
  8
0
 10
348.419518
 20
383.153491
 42
-0.003384
  0
VERTEX
  8
0
 10
347.033394
 20
391.215877
 42
-0.155177
  0
VERTEX
  8
0
 10
347.272422
 20
392.859588
 42
-0.420037
  0
VERTEX
  8
0
 10
348.317332
 20
393.209542
 42
-0.016311
  0
VERTEX
  8
0
 10
352.250000
 20
391.036718
 42
0.003574
  0
VERTEX
  8
0
 10
354.497452
 20
389.719182
 42
0.002958
  0
VERTEX
  8
0
 10
356.909522
 20
388.347158
 42
0.002986
  0
VERTEX
  8
0
 10
359.136308
 20
387.115328
 42
0.008016
  0
SEQEND
  0
POLYLINE
  8
0
 66
1
 70
1
  0
VERTEX
  8
0
 10
264.000000
 20
374.453407
 42
-0.122886
  0
VERTEX
  8
0
 10
263.902890
 20
374.064252
 42
-0.001456
  0
VERTEX
  8
0
 10
262.651838
 20
371.730061
 42
-0.004290
  0
VERTEX
  8
0
 10
261.169544
 20
369.039155
 42
-0.002777
  0
VERTEX
  8
0
 10
259.410513
 20
365.949999
 42
-0.011916
  0
VERTEX
  8
0
 10
257.268029
 20
362.432006
 42
-0.026277
  0
VERTEX
  8
0
 10
255.431817
 20
359.878295
 42
-0.032796
  0
VERTEX
  8
0
 10
253.870390
 20
358.173379
 42
-0.139362
  0
VERTEX
  8
0
 10
252.660513
 20
357.533023
 42
-0.016930
  0
VERTEX
  8
0
 10
248.672735
 20
356.823859
 42
-0.001992
  0
VERTEX
  8
0
 10
239.737981
 20
355.581576
 42
-0.000246
  0
VERTEX
  8
0
 10
229.715608
 20
354.233767
 42
-0.233770
  0
VERTEX
  8
0
 10
229.288440
 20
354.378226
 42
-0.407025
  0
VERTEX
  8
0
 10
229.286213
 20
354.559264
 42
-0.000583
  0
VERTEX
  8
0
 10
231.845465
 20
357.241383
 42
-0.003806
  0
VERTEX
  8
0
 10
234.779917
 20
360.263154
 42
-0.002283
  0
VERTEX
  8
0
 10
238.308777
 20
363.809572
 42
-0.005073
  0
VERTEX
  8
0
 10
244.246235
 20
369.603545
 42
-0.044569
  0
VERTEX
  8
0
 10
247.113128
 20
371.893308
 42
-0.078394
  0
VERTEX
  8
0
 10
249.710910
 20
373.079665
 42
-0.031835
  0
VERTEX
  8
0
 10
253.526919
 20
373.886155
 42
-0.004690
  0
VERTEX
  8
0
 10
258.490504
 20
374.561603
 42
-0.017942
  0
VERTEX
  8
0
 10
261.598441
 20
374.842043
 42
-0.021449
  0
VERTEX
  8
0
 10
263.601707
 20
374.864519
 42
-0.404967
  0
SEQEND
  0
POLYLINE
  8
0
 66
1
 70
1
  0
VERTEX
  8
0
 10
338.330973
 20
373.897503
 42
0.000000
  0
VERTEX
  8
0
 10
345.743643
 20
372.795005
 42
0.000000
  0
VERTEX
  8
0
 10
355.121822
 20
363.295696
 42
-0.007182
  0
VERTEX
  8
0
 10
358.635771
 20
359.632580
 42
-0.015596
  0
VERTEX
  8
0
 10
361.203355
 20
356.699584
 42
-0.020121
  0
VERTEX
  8
0
 10
362.742520
 20
354.664959
 42
-0.696315
  0
VERTEX
  8
0
 10
362.500000
 20
354.317295
 42
0.025462
  0
VERTEX
  8
0
 10
361.220886
 20
354.581755
 42
0.002477
  0
VERTEX
  8
0
 10
358.094093
 20
355.047967
 42
0.003136
  0
VERTEX
  8
0
 10
354.358253
 20
355.562182
 42
0.002477
  0
VERTEX
  8
0
 10
350.309679
 20
356.073201
 42
-0.004388
  0
VERTEX
  8
0
 10
346.340237
 20
356.589653
 42
-0.006382
  0
VERTEX
  8
0
 10
342.849814
 20
357.120464
 42
-0.003430
  0
VERTEX
  8
0
 10
339.916731
 20
357.625593
 42
-0.102842
  0
VERTEX
  8
0
 10
339.224207
 20
357.904099
 42
-0.107591
  0
VERTEX
  8
0
 10
338.466023
 20
358.687397
 42
-0.002247
  0
VERTEX
  8
0
 10
335.616993
 20
363.331600
 42
-0.005415
  0
VERTEX
  8
0
 10
332.494735
 20
368.600651
 42
-0.004549
  0
VERTEX
  8
0
 10
329.297468
 20
374.250000
 42
-0.426479
  0
VERTEX
  8
0
 10
329.450878
 20
374.745346
 42
-0.126473
  0
VERTEX
  8
0
 10
330.317824
 20
374.932495
 42
-0.025099
  0
VERTEX
  8
0
 10
332.550115
 20
374.732870
 42
-0.002068
  0
SEQEND
  0
POLYLINE
  8
0
 66
1
 70
1
  0
VERTEX
  8
0
 10
331.708120
 20
360.340432
 42
0.000000
  0
VERTEX
  8
0
 10
334.419356
 20
355.180865
 42
0.000000
  0
VERTEX
  8
0
 10
330.047276
 20
344.340432
 42
-0.003003
  0
VERTEX
  8
0
 10
328.317099
 20
340.123698
 42
-0.004373
  0
VERTEX
  8
0
 10
326.736982
 20
336.428846
 42
-0.002231
  0
VERTEX
  8
0
 10
325.357675
 20
333.317864
 42
-0.073797
  0
VERTEX
  8
0
 10
324.917706
 20
332.630108
 42
-0.523681
  0
VERTEX
  8
0
 10
324.271450
 20
332.701789
 42
-0.044184
  0
VERTEX
  8
0
 10
323.482040
 20
334.532094
 42
-0.015417
  0
VERTEX
  8
0
 10
322.305916
 20
338.501566
 42
-0.001548
  0
VERTEX
  8
0
 10
319.822011
 20
348.064593
 42
0.000000
  0
VERTEX
  8
0
 10
317.625720
 20
356.629185
 42
0.000000
  0
VERTEX
  8
0
 10
320.970219
 20
364.926120
 42
0.000000
  0
VERTEX
  8
0
 10
324.314718
 20
373.223054
 42
0.000000
  0
VERTEX
  8
0
 10
326.655800
 20
369.361527
 42
-0.005836
  0
VERTEX
  8
0
 10
327.745365
 20
367.516079
 42
-0.002783
  0
VERTEX
  8
0
 10
329.105616
 20
365.118701
 42
-0.002758
  0
VERTEX
  8
0
 10
330.499231
 20
362.597834
 42
-0.003919
  0
SEQEND
  0
POLYLINE
  8
0
 66
1
 70
1
  0
VERTEX
  8
0
 10
272.662384
 20
363.977640
 42
0.000000
  0
VERTEX
  8
0
 10
275.824768
 20
355.967594
 42
0.000000
  0
VERTEX
  8
0
 10
272.819773
 20
344.733797
 42
-0.003987
  0
VERTEX
  8
0
 10
271.616193
 20
340.373915
 42
-0.005917
  0
VERTEX
  8
0
 10
270.486437
 20
336.576353
 42
-0.002836
  0
VERTEX
  8
0
 10
269.472611
 20
333.374650
 42
-0.111527
  0
VERTEX
  8
0
 10
269.096282
 20
332.738893
 42
-0.513303
  0
VERTEX
  8
0
 10
268.661381
 20
332.797644
 42
-0.006481
  0
VERTEX
  8
0
 10
267.172681
 20
335.691761
 42
-0.012204
  0
VERTEX
  8
0
 10
265.457389
 20
339.356884
 42
-0.006971
  0
VERTEX
  8
0
 10
263.556804
 20
343.859997
 42
0.000000
  0
VERTEX
  8
0
 10
258.735821
 20
355.742208
 42
0.000000
  0
VERTEX
  8
0
 10
263.607288
 20
363.871104
 42
-0.004356
  0
VERTEX
  8
0
 10
265.511575
 20
366.986851
 42
-0.006967
  0
VERTEX
  8
0
 10
267.197756
 20
369.610328
 42
-0.002232
  0
VERTEX
  8
0
 10
268.686233
 20
371.835129
 42
-0.252348
  0
VERTEX
  8
0
 10
268.989377
 20
371.993843
 42
-0.286846
  0
VERTEX
  8
0
 10
269.264206
 20
371.817396
 42
-0.002927
  0
VERTEX
  8
0
 10
270.278955
 20
369.636543
 42
-0.008270
  0
VERTEX
  8
0
 10
271.413244
 20
367.048818
 42
-0.005138
  0
SEQEND
  0
POLYLINE
  8
0
 66
1
 70
1
  0
VERTEX
  8
0
 10
127.423870
 20
359.403225
 42
-0.000707
  0
VERTEX
  8
0
 10
135.593033
 20
356.057620
 42
-0.001074
  0
VERTEX
  8
0
 10
142.681946
 20
353.124904
 42
-0.000383
  0
VERTEX
  8
0
 10
148.788480
 20
350.577745
 42
-0.027587
  0
VERTEX
  8
0
 10
149.769988
 20
350.102287
 42
-0.578838
  0
VERTEX
  8
0
 10
149.783489
 20
349.208490
 42
-0.000693
  0
VERTEX
  8
0
 10
130.485658
 20
337.769298
 42
-0.003800
  0
VERTEX
  8
0
 10
112.958499
 20
327.591423
 42
-0.024165
  0
VERTEX
  8
0
 10
103.782059
 20
322.928015
 42
-0.160183
  0
VERTEX
  8
0
 10
101.149788
 20
322.652754
 42
-0.028738
  0
VERTEX
  8
0
 10
96.331546
 20
323.991095
 42
-0.012950
  0
VERTEX
  8
0
 10
87.894223
 20
327.112084
 42
-0.001310
  0
VERTEX
  8
0
 10
68.047126
 20
335.104092
 42
-0.001399
  0
VERTEX
  8
0
 10
55.386468
 20
340.282173
 42
-0.002310
  0
VERTEX
  8
0
 10
44.724450
 20
344.735437
 42
-0.000235
  0
VERTEX
  8
0
 10
35.236490
 20
348.755168
 42
-0.293962
  0
VERTEX
  8
0
 10
35.015067
 20
349.080375
 42
-0.345650
  0
VERTEX
  8
0
 10
35.481582
 20
349.707432
 42
-0.000102
  0
VERTEX
  8
0
 10
68.631783
 20
358.717012
 42
-0.000428
  0
VERTEX
  8
0
 10
100.447654
 20
367.327741
 42
-0.056726
  0
VERTEX
  8
0
 10
104.423870
 20
367.929186
 42
-0.096044
  0
VERTEX
  8
0
 10
105.786207
 20
367.716722
 42
-0.002195
  0
VERTEX
  8
0
 10
111.973717
 20
365.453896
 42
-0.004831
  0
VERTEX
  8
0
 10
119.208065
 20
362.692372
 42
-0.003244
  0
SEQEND
  0
POLYLINE
  8
0
 66
1
 70
1
  0
VERTEX
  8
0
 10
523.581019
 20
358.834633
 42
-0.002454
  0
VERTEX
  8
0
 10
536.751311
 20
355.265283
 42
-0.004192
  0
VERTEX
  8
0
 10
547.707858
 20
352.138977
 42
-0.000826
  0
VERTEX
  8
0
 10
557.181934
 20
349.332556
 42
-0.573865
  0
VERTEX
  8
0
 10
557.284633
 20
348.911425
 42
-0.095561
  0
VERTEX
  8
0
 10
555.652074
 20
347.847678
 42
-0.000161
  0
VERTEX
  8
0
 10
524.340322
 20
335.100333
 42
-0.000159
  0
VERTEX
  8
0
 10
493.011070
 20
322.369186
 42
-0.096716
  0
VERTEX
  8
0
 10
491.120313
 20
322.000000
 42
-0.129629
  0
VERTEX
  8
0
 10
488.786064
 20
322.615517
 42
-0.000558
  0
VERTEX
  8
0
 10
465.902636
 20
335.619361
 42
-0.000319
  0
VERTEX
  8
0
 10
442.627225
 20
348.900034
 42
-0.271234
  0
VERTEX
  8
0
 10
442.004027
 20
349.983631
 42
-0.304030
  0
VERTEX
  8
0
 10
442.608368
 20
350.870608
 42
-0.000382
  0
VERTEX
  8
0
 10
463.494900
 20
359.252584
 42
-0.001015
  0
VERTEX
  8
0
 10
483.579362
 20
367.247619
 42
-0.085659
  0
VERTEX
  8
0
 10
486.796385
 20
367.919567
 42
-0.068433
  0
VERTEX
  8
0
 10
488.497905
 20
367.746023
 42
-0.000959
  0
VERTEX
  8
0
 10
498.549130
 20
365.284046
 42
-0.002659
  0
VERTEX
  8
0
 10
510.197371
 20
362.341399
 42
-0.001746
  0
SEQEND
  0
POLYLINE
  8
0
 66
1
 70
1
  0
VERTEX
  8
0
 10
294.520069
 20
359.250000
 42
0.000669
  0
VERTEX
  8
0
 10
294.397854
 20
356.394493
 42
0.000578
  0
VERTEX
  8
0
 10
294.277020
 20
353.396217
 42
0.000582
  0
VERTEX
  8
0
 10
294.173794
 20
350.678154
 42
0.001695
  0
VERTEX
  8
0
 10
294.111061
 20
348.800952
 42
-0.074711
  0
VERTEX
  8
0
 10
293.685657
 20
346.451986
 42
-0.104699
  0
VERTEX
  8
0
 10
292.598328
 20
344.625411
 42
-0.046115
  0
VERTEX
  8
0
 10
290.232499
 20
342.495163
 42
-0.004925
  0
VERTEX
  8
0
 10
284.256085
 20
338.128201
 42
-0.002756
  0
VERTEX
  8
0
 10
280.501807
 20
335.472446
 42
-0.004561
  0
VERTEX
  8
0
 10
277.300218
 20
333.277249
 42
-0.000848
  0
VERTEX
  8
0
 10
274.476538
 20
331.385749
 42
-0.357657
  0
VERTEX
  8
0
 10
274.259482
 20
331.407185
 42
-0.249520
  0
VERTEX
  8
0
 10
274.191102
 20
331.631134
 42
-0.003656
  0
VERTEX
  8
0
 10
274.474880
 20
333.030915
 42
-0.008990
  0
VERTEX
  8
0
 10
274.851881
 20
334.675750
 42
-0.005691
  0
VERTEX
  8
0
 10
275.347590
 20
336.579937
 42
0.002139
  0
VERTEX
  8
0
 10
275.948660
 20
338.823354
 42
0.001252
  0
VERTEX
  8
0
 10
276.650337
 20
341.515167
 42
0.001252
  0
VERTEX
  8
0
 10
277.338941
 20
344.212083
 42
0.002127
  0
VERTEX
  8
0
 10
277.899650
 20
346.471696
 42
-0.036595
  0
VERTEX
  8
0
 10
279.423529
 20
351.194235
 42
-0.052010
  0
VERTEX
  8
0
 10
281.494979
 20
355.085118
 42
-0.050439
  0
VERTEX
  8
0
 10
284.377582
 20
358.549860
 42
-0.031877
  0
VERTEX
  8
0
 10
288.360563
 20
361.989516
 42
-0.005089
  0
VERTEX
  8
0
 10
290.377650
 20
363.486377
 42
-0.007468
  0
VERTEX
  8
0
 10
292.183874
 20
364.757690
 42
-0.003977
  0
VERTEX
  8
0
 10
293.728625
 20
365.792916
 42
-0.124528
  0
VERTEX
  8
0
 10
294.159008
 20
365.942587
 42
-0.413025
  0
VERTEX
  8
0
 10
294.411296
 20
365.731607
 42
-0.009266
  0
VERTEX
  8
0
 10
294.536910
 20
364.000322
 42
-0.015392
  0
VERTEX
  8
0
 10
294.586988
 20
361.834263
 42
-0.009111
  0
SEQEND
  0
POLYLINE
  8
0
 66
1
 70
1
  0
VERTEX
  8
0
 10
312.778474
 20
355.441847
 42
-0.198605
  0
VERTEX
  8
0
 10
313.496859
 20
354.482128
 42
-0.001076
  0
VERTEX
  8
0
 10
316.396561
 20
343.045113
 42
-0.000795
  0
VERTEX
  8
0
 10
319.285685
 20
331.468124
 42
-0.487307
  0
VERTEX
  8
0
 10
318.919428
 20
331.000000
 42
-0.154987
  0
VERTEX
  8
0
 10
318.383665
 20
331.170160
 42
-0.002234
  0
VERTEX
  8
0
 10
315.626047
 20
333.136867
 42
-0.005913
  0
VERTEX
  8
0
 10
312.442707
 20
335.486379
 42
-0.003836
  0
VERTEX
  8
0
 10
308.815387
 20
338.274442
 42
0.000000
  0
VERTEX
  8
0
 10
299.500000
 20
345.548884
 42
0.000000
  0
VERTEX
  8
0
 10
299.214523
 20
355.819192
 42
0.000000
  0
VERTEX
  8
0
 10
298.929046
 20
366.089501
 42
0.000000
  0
VERTEX
  8
0
 10
305.714523
 20
360.848405
 42
0.000428
  0
VERTEX
  8
0
 10
308.335635
 20
358.827443
 42
0.000676
  0
VERTEX
  8
0
 10
310.588568
 20
357.098277
 42
0.000151
  0
VERTEX
  8
0
 10
312.569176
 20
355.583320
 42
0.029143
  0
SEQEND
  0
POLYLINE
  8
0
 66
1
 70
1
  0
VERTEX
  8
0
 10
254.591556
 20
352.234687
 42
-0.148178
  0
VERTEX
  8
0
 10
256.026519
 20
350.475229
 42
-0.001934
  0
VERTEX
  8
0
 10
261.430044
 20
337.181830
 42
-0.001207
  0
VERTEX
  8
0
 10
266.881817
 20
323.524439
 42
-0.299171
  0
VERTEX
  8
0
 10
266.627239
 20
322.293905
 42
-0.251570
  0
VERTEX
  8
0
 10
266.155011
 20
322.151707
 42
-0.010425
  0
VERTEX
  8
0
 10
264.375103
 20
322.552113
 42
-0.015930
  0
VERTEX
  8
0
 10
262.220294
 20
323.157719
 42
-0.010398
  0
VERTEX
  8
0
 10
259.773945
 20
323.986461
 42
-0.022966
  0
VERTEX
  8
0
 10
250.453162
 20
327.854389
 42
-0.023230
  0
VERTEX
  8
0
 10
241.562969
 20
332.547633
 42
-0.023452
  0
VERTEX
  8
0
 10
233.228412
 20
337.997162
 42
-0.024528
  0
VERTEX
  8
0
 10
225.569810
 20
344.127512
 42
0.000000
  0
VERTEX
  8
0
 10
220.639621
 20
348.487192
 42
0.000000
  0
VERTEX
  8
0
 10
235.069810
 20
350.594500
 42
-0.001166
  0
VERTEX
  8
0
 10
246.385256
 20
352.220012
 42
-0.014132
  0
VERTEX
  8
0
 10
250.746917
 20
352.710943
 42
-0.037787
  0
VERTEX
  8
0
 10
253.142421
 20
352.730787
 42
-0.132051
  0
SEQEND
  0
POLYLINE
  8
0
 66
1
 70
1
  0
VERTEX
  8
0
 10
361.750000
 20
349.936517
 42
-0.007515
  0
VERTEX
  8
0
 10
365.296362
 20
349.422846
 42
-0.012284
  0
VERTEX
  8
0
 10
368.282812
 20
348.868785
 42
-0.005946
  0
VERTEX
  8
0
 10
370.733427
 20
348.321044
 42
-0.347843
  0
VERTEX
  8
0
 10
371.000000
 20
347.984226
 42
-0.227356
  0
VERTEX
  8
0
 10
370.296153
 20
346.516343
 42
-0.005175
  0
VERTEX
  8
0
 10
364.031497
 20
341.591552
 42
-0.012160
  0
VERTEX
  8
0
 10
357.327584
 20
336.687663
 42
-0.017656
  0
VERTEX
  8
0
 10
351.164203
 20
332.720355
 42
-0.021115
  0
VERTEX
  8
0
 10
344.547323
 20
329.153539
 42
-0.011952
  0
VERTEX
  8
0
 10
336.261109
 20
325.370636
 42
-0.004284
  0
VERTEX
  8
0
 10
327.910475
 20
321.881305
 42
-0.301855
  0
VERTEX
  8
0
 10
326.500991
 20
322.165676
 42
-0.301527
  0
VERTEX
  8
0
 10
326.301977
 20
323.149034
 42
-0.000875
  0
VERTEX
  8
0
 10
331.536342
 20
335.963872
 42
-0.002507
  0
VERTEX
  8
0
 10
336.542045
 20
347.985952
 42
-0.073423
  0
VERTEX
  8
0
 10
338.261932
 20
350.815608
 42
-0.200685
  0
VERTEX
  8
0
 10
339.984266
 20
351.716580
 42
-0.030826
  0
VERTEX
  8
0
 10
343.930638
 20
351.812194
 42
-0.019072
  0
VERTEX
  8
0
 10
350.335174
 20
351.327412
 42
-0.003781
  0
SEQEND
  0
POLYLINE
  8
0
 66
1
 70
1
  0
VERTEX
  8
0
 10
177.000000
 20
336.298308
 42
0.023438
  0
VERTEX
  8
0
 10
183.013998
 20
328.781691
 42
0.014379
  0
VERTEX
  8
0
 10
190.752269
 20
320.482231
 42
0.014345
  0
VERTEX
  8
0
 10
199.003956
 20
312.593204
 42
0.022265
  0
VERTEX
  8
0
 10
206.601046
 20
306.326577
 42
-0.003606
  0
VERTEX
  8
0
 10
209.438468
 20
304.158729
 42
-0.006084
  0
VERTEX
  8
0
 10
211.782166
 20
302.295073
 42
-0.001517
  0
VERTEX
  8
0
 10
213.773351
 20
300.661714
 42
-0.462619
  0
VERTEX
  8
0
 10
213.775963
 20
300.477349
 42
-0.149152
  0
VERTEX
  8
0
 10
212.545633
 20
299.924595
 42
-0.000247
  0
VERTEX
  8
0
 10
188.996524
 20
296.950344
 42
-0.000175
  0
VERTEX
  8
0
 10
165.256657
 20
293.972356
 42
-0.231465
  0
VERTEX
  8
0
 10
164.400649
 20
294.266018
 42
-0.233146
  0
VERTEX
  8
0
 10
164.009480
 20
295.418213
 42
-0.000313
  0
VERTEX
  8
0
 10
167.177833
 20
319.383057
 42
-0.000249
  0
VERTEX
  8
0
 10
170.389538
 20
343.467433
 42
-0.411729
  0
VERTEX
  8
0
 10
170.999245
 20
343.937292
 42
-0.195698
  0
VERTEX
  8
0
 10
171.309871
 20
343.763095
 42
-0.001832
  0
VERTEX
  8
0
 10
172.968528
 20
341.667473
 42
-0.005804
  0
VERTEX
  8
0
 10
174.855604
 20
339.206955
 42
-0.003680
  0
SEQEND
  0
POLYLINE
  8
0
 66
1
 70
1
  0
VERTEX
  8
0
 10
390.002311
 20
317.831079
 42
-0.045722
  0
VERTEX
  8
0
 10
372.454658
 20
304.745339
 42
-0.037869
  0
VERTEX
  8
0
 10
351.703024
 20
294.108017
 42
-0.037822
  0
VERTEX
  8
0
 10
329.553167
 20
286.709513
 42
-0.045254
  0
VERTEX
  8
0
 10
307.833248
 20
283.286437
 42
0.000000
  0
VERTEX
  8
0
 10
299.166496
 20
282.714745
 42
0.000000
  0
VERTEX
  8
0
 10
299.156524
 20
296.343643
 42
-0.006395
  0
VERTEX
  8
0
 10
299.220833
 20
301.676766
 42
-0.010454
  0
VERTEX
  8
0
 10
299.427611
 20
306.192959
 42
-0.005103
  0
VERTEX
  8
0
 10
299.715572
 20
309.931804
 42
-0.236821
  0
VERTEX
  8
0
 10
300.105963
 20
310.565489
 42
-0.086186
  0
VERTEX
  8
0
 10
300.746078
 20
310.822367
 42
-0.009322
  0
VERTEX
  8
0
 10
302.316132
 20
311.126009
 42
-0.011220
  0
VERTEX
  8
0
 10
304.214605
 20
311.412847
 42
-0.008822
  0
VERTEX
  8
0
 10
306.282686
 20
311.640991
 42
0.035678
  0
VERTEX
  8
0
 10
322.103800
 20
314.251914
 42
0.034683
  0
VERTEX
  8
0
 10
337.548082
 20
319.100839
 42
0.034715
  0
VERTEX
  8
0
 10
352.159933
 20
326.032677
 42
0.035903
  0
VERTEX
  8
0
 10
365.500000
 20
334.851711
 42
0.000000
  0
VERTEX
  8
0
 10
374.500000
 20
341.777847
 42
0.000000
  0
VERTEX
  8
0
 10
384.500000
 20
331.825677
 42
0.000000
  0
VERTEX
  8
0
 10
394.500000
 20
321.873506
 42
0.000000
  0
SEQEND
  0
POLYLINE
  8
0
 66
1
 70
1
  0
VERTEX
  8
0
 10
424.988559
 20
318.182192
 42
-0.002479
  0
VERTEX
  8
0
 10
426.179028
 20
309.202851
 42
-0.004010
  0
VERTEX
  8
0
 10
427.092556
 20
301.551519
 42
-0.000810
  0
VERTEX
  8
0
 10
427.828960
 20
294.834210
 42
-0.227026
  0
VERTEX
  8
0
 10
427.644622
 20
294.311289
 42
-0.222764
  0
VERTEX
  8
0
 10
427.133626
 20
294.126480
 42
-0.001698
  0
VERTEX
  8
0
 10
422.613993
 20
294.555951
 42
-0.005827
  0
VERTEX
  8
0
 10
417.390824
 20
295.131722
 42
-0.003656
  0
VERTEX
  8
0
 10
411.295763
 20
295.920870
 42
0.000107
  0
VERTEX
  8
0
 10
404.643255
 20
296.830247
 42
0.000095
  0
VERTEX
  8
0
 10
397.716568
 20
297.774254
 42
0.000095
  0
VERTEX
  8
0
 10
391.479035
 20
298.621925
 42
0.000292
  0
VERTEX
  8
0
 10
387.250000
 20
299.193313
 42
-0.006717
  0
VERTEX
  8
0
 10
384.088734
 20
299.661874
 42
-0.011054
  0
VERTEX
  8
0
 10
381.431012
 20
300.152884
 42
-0.004830
  0
VERTEX
  8
0
 10
379.231504
 20
300.631945
 42
-0.362125
  0
VERTEX
  8
0
 10
379.025785
 20
300.901540
 42
-0.211876
  0
VERTEX
  8
0
 10
379.199512
 20
301.251623
 42
-0.005809
  0
VERTEX
  8
0
 10
380.553432
 20
302.348645
 42
-0.011036
  0
VERTEX
  8
0
 10
382.218924
 20
303.607611
 42
-0.007230
  0
VERTEX
  8
0
 10
384.190074
 20
304.987465
 42
0.033120
  0
VERTEX
  8
0
 10
390.442937
 20
309.865421
 42
0.008898
  0
VERTEX
  8
0
 10
399.693628
 20
318.423208
 42
0.009407
  0
VERTEX
  8
0
 10
408.913845
 20
327.601463
 42
0.020795
  0
VERTEX
  8
0
 10
415.513597
 20
335.016620
 42
-0.003834
  0
VERTEX
  8
0
 10
417.740955
 20
337.696913
 42
-0.006449
  0
VERTEX
  8
0
 10
419.656562
 20
339.907935
 42
-0.001686
  0
VERTEX
  8
0
 10
421.331824
 20
341.779154
 42
-0.444568
  0
VERTEX
  8
0
 10
421.527102
 20
341.779265
 42
-0.148200
  0
VERTEX
  8
0
 10
421.650927
 20
341.516552
 42
-0.000136
  0
VERTEX
  8
0
 10
422.647978
 20
334.732428
 42
-0.001378
  0
VERTEX
  8
0
 10
423.740000
 20
327.142398
 42
-0.000843
  0
SEQEND
  0
POLYLINE
  8
0
 66
1
 70
1
  0
VERTEX
  8
0
 10
227.503058
 20
334.469400
 42
0.033843
  0
VERTEX
  8
0
 10
240.828206
 20
325.767035
 42
0.035268
  0
VERTEX
  8
0
 10
255.027489
 20
319.075873
 42
0.034597
  0
VERTEX
  8
0
 10
270.279953
 20
314.346087
 42
0.030189
  0
VERTEX
  8
0
 10
286.750000
 20
311.499040
 42
0.000000
  0
VERTEX
  8
0
 10
293.000000
 20
310.803626
 42
0.000000
  0
VERTEX
  8
0
 10
293.000000
 20
296.901813
 42
0.000000
  0
VERTEX
  8
0
 10
293.000000
 20
283.000000
 42
0.000000
  0
VERTEX
  8
0
 10
287.674892
 20
283.000000
 42
-0.044702
  0
VERTEX
  8
0
 10
275.875622
 20
284.057026
 42
-0.020551
  0
VERTEX
  8
0
 10
260.799525
 20
287.424958
 42
-0.020418
  0
VERTEX
  8
0
 10
245.442018
 20
292.204442
 42
-0.030893
  0
VERTEX
  8
0
 10
232.576187
 20
297.709521
 42
-0.017881
  0
VERTEX
  8
0
 10
225.368972
 20
301.664027
 42
-0.012227
  0
VERTEX
  8
0
 10
217.467036
 20
306.640684
 42
-0.012332
  0
VERTEX
  8
0
 10
210.000515
 20
311.872082
 42
-0.021985
  0
VERTEX
  8
0
 10
204.167722
 20
316.586780
 42
0.000000
  0
VERTEX
  8
0
 10
198.835445
 20
321.299044
 42
0.000000
  0
VERTEX
  8
0
 10
208.648961
 20
331.149522
 42
-0.000911
  0
VERTEX
  8
0
 10
212.425345
 20
334.926343
 42
-0.001497
  0
VERTEX
  8
0
 10
215.635836
 20
338.106422
 42
-0.000128
  0
VERTEX
  8
0
 10
218.521113
 20
340.945850
 42
-0.196765
  0
VERTEX
  8
0
 10
218.653386
 20
341.000000
 42
-0.160107
  0
VERTEX
  8
0
 10
218.791994
 20
340.954448
 42
-0.000176
  0
VERTEX
  8
0
 10
221.331727
 20
339.081636
 42
-0.001621
  0
VERTEX
  8
0
 10
224.169551
 20
336.973228
 42
-0.000992
  0
SEQEND
  0
POLYLINE
  8
0
 66
1
 70
1
  0
VERTEX
  8
0
 10
310.136446
 20
331.320018
 42
-0.004644
  0
VERTEX
  8
0
 10
314.998459
 20
327.559696
 42
-0.007677
  0
VERTEX
  8
0
 10
319.024448
 20
324.284309
 42
-0.002362
  0
VERTEX
  8
0
 10
322.405059
 20
321.419293
 42
-0.369743
  0
VERTEX
  8
0
 10
322.476413
 20
320.961835
 42
-0.221115
  0
VERTEX
  8
0
 10
320.921397
 20
319.938597
 42
-0.006290
  0
VERTEX
  8
0
 10
312.822771
 20
318.845274
 42
-0.013322
  0
VERTEX
  8
0
 10
304.195064
 20
318.023445
 42
-0.018102
  0
VERTEX
  8
0
 10
296.377686
 20
317.772215
 42
-0.016727
  0
VERTEX
  8
0
 10
288.623692
 20
318.063317
 42
-0.012347
  0
VERTEX
  8
0
 10
280.073409
 20
318.883814
 42
-0.005374
  0
VERTEX
  8
0
 10
271.991664
 20
319.949509
 42
-0.227871
  0
VERTEX
  8
0
 10
270.584135
 20
320.891817
 42
-0.376649
  0
VERTEX
  8
0
 10
270.748410
 20
321.756859
 42
-0.000729
  0
VERTEX
  8
0
 10
282.825330
 20
331.153791
 42
-0.001251
  0
VERTEX
  8
0
 10
294.665958
 20
340.291832
 42
-0.151135
  0
VERTEX
  8
0
 10
296.438664
 20
340.948532
 42
-0.166505
  0
VERTEX
  8
0
 10
297.086350
 20
340.765643
 42
-0.001874
  0
VERTEX
  8
0
 10
300.849587
 20
338.141387
 42
-0.005535
  0
VERTEX
  8
0
 10
305.178149
 20
335.026569
 42
-0.003550
  0
SEQEND
  0
POLYLINE
  8
0
 66
1
 70
1
  0
VERTEX
  8
0
 10
153.975649
 20
313.323912
 42
-0.002568
  0
VERTEX
  8
0
 10
152.706758
 20
304.483178
 42
-0.003860
  0
VERTEX
  8
0
 10
151.501001
 20
296.787221
 42
-0.001600
  0
VERTEX
  8
0
 10
150.398017
 20
290.217221
 42
-0.085183
  0
VERTEX
  8
0
 10
149.975507
 20
289.020846
 42
-0.068937
  0
VERTEX
  8
0
 10
148.171309
 20
286.633186
 42
-0.000269
  0
VERTEX
  8
0
 10
124.101564
 20
262.558367
 42
-0.000105
  0
VERTEX
  8
0
 10
99.424795
 20
237.913298
 42
-0.667870
  0
VERTEX
  8
0
 10
99.000000
 20
238.089466
 42
-0.032635
  0
VERTEX
  8
0
 10
99.029861
 20
238.546487
 42
-0.000061
  0
VERTEX
  8
0
 10
100.003953
 20
245.961730
 42
-0.000451
  0
VERTEX
  8
0
 10
101.107460
 20
254.296027
 42
-0.000279
  0
VERTEX
  8
0
 10
102.417713
 20
264.081966
 42
0.000367
  0
VERTEX
  8
0
 10
103.812064
 20
274.509968
 42
0.000380
  0
VERTEX
  8
0
 10
105.175497
 20
284.824077
 42
0.000366
  0
VERTEX
  8
0
 10
106.343018
 20
293.758750
 42
0.001636
  0
VERTEX
  8
0
 10
107.006571
 20
299.000000
 42
-0.010678
  0
VERTEX
  8
0
 10
107.557351
 20
302.798013
 42
-0.012706
  0
VERTEX
  8
0
 10
108.244034
 20
306.353599
 42
-0.011532
  0
VERTEX
  8
0
 10
108.964531
 20
309.307369
 42
-0.076357
  0
VERTEX
  8
0
 10
109.574629
 20
310.693102
 42
-0.078207
  0
VERTEX
  8
0
 10
110.525194
 20
311.769825
 42
-0.015786
  0
VERTEX
  8
0
 10
112.548192
 20
313.339503
 42
-0.016306
  0
VERTEX
  8
0
 10
115.043751
 20
315.031116
 42
-0.014613
  0
VERTEX
  8
0
 10
117.735772
 20
316.622452
 42
0.003121
  0
VERTEX
  8
0
 10
121.363550
 20
318.655922
 42
0.000797
  0
VERTEX
  8
0
 10
127.213008
 20
321.995203
 42
0.000812
  0
VERTEX
  8
0
 10
133.878252
 20
325.828681
 42
0.000823
  0
VERTEX
  8
0
 10
140.500000
 20
329.666021
 42
-0.004126
  0
VERTEX
  8
0
 10
147.991219
 20
333.941372
 42
-0.015170
  0
VERTEX
  8
0
 10
152.830858
 20
336.461054
 42
-0.015832
  0
VERTEX
  8
0
 10
156.102115
 20
337.914148
 42
-0.465334
  0
VERTEX
  8
0
 10
156.813105
 20
337.539737
 42
-0.081975
  0
VERTEX
  8
0
 10
156.869080
 20
336.452576
 42
-0.001125
  0
VERTEX
  8
0
 10
156.108758
 20
329.834976
 42
-0.003138
  0
VERTEX
  8
0
 10
155.160447
 20
322.158931
 42
-0.002056
  0
SEQEND
  0
POLYLINE
  8
0
 66
1
 70
1
  0
VERTEX
  8
0
 10
447.006520
 20
332.584883
 42
-0.001435
  0
VERTEX
  8
0
 10
461.075997
 20
324.600714
 42
-0.002866
  0
VERTEX
  8
0
 10
472.148419
 20
318.190794
 42
-0.001487
  0
VERTEX
  8
0
 10
480.962189
 20
312.985451
 42
-0.057421
  0
VERTEX
  8
0
 10
482.777637
 20
311.602005
 42
-0.156655
  0
VERTEX
  8
0
 10
483.418892
 20
310.411653
 42
-0.003004
  0
VERTEX
  8
0
 10
484.669794
 20
303.432232
 42
-0.006493
  0
VERTEX
  8
0
 10
486.050270
 20
294.787398
 42
-0.003347
  0
VERTEX
  8
0
 10
487.564668
 20
283.936649
 42
0.000228
  0
VERTEX
  8
0
 10
489.003582
 20
273.134912
 42
0.000241
  0
VERTEX
  8
0
 10
490.425063
 20
262.540053
 42
0.000230
  0
VERTEX
  8
0
 10
491.658137
 20
253.414758
 42
0.001106
  0
VERTEX
  8
0
 10
492.374097
 20
248.220978
 42
-0.007250
  0
VERTEX
  8
0
 10
492.817762
 20
244.681574
 42
-0.012827
  0
VERTEX
  8
0
 10
493.066243
 20
241.749632
 42
-0.007364
  0
VERTEX
  8
0
 10
493.169532
 20
239.412476
 42
-0.529587
  0
VERTEX
  8
0
 10
492.904759
 20
239.220978
 42
-0.107955
  0
VERTEX
  8
0
 10
490.413933
 20
240.792985
 42
-0.000456
  0
VERTEX
  8
0
 10
467.412520
 20
263.500884
 42
-0.000614
  0
VERTEX
  8
0
 10
444.767854
 20
285.952494
 42
-0.077958
  0
VERTEX
  8
0
 10
442.422232
 20
289.150387
 42
-0.079922
  0
VERTEX
  8
0
 10
441.292515
 20
292.585335
 42
-0.001410
  0
VERTEX
  8
0
 10
438.263573
 20
311.916668
 42
-0.002681
  0
VERTEX
  8
0
 10
435.531384
 20
330.338211
 42
-0.033879
  0
VERTEX
  8
0
 10
435.011761
 20
337.333333
 42
-0.175027
  0
VERTEX
  8
0
 10
435.360176
 20
338.317883
 42
-0.326145
  0
VERTEX
  8
0
 10
436.139185
 20
338.519776
 42
-0.033328
  0
VERTEX
  8
0
 10
438.091643
 20
337.592045
 42
-0.000771
  0
SEQEND
  0
POLYLINE
  8
0
 66
1
 70
1
  0
VERTEX
  8
0
 10
236.111685
 20
289.105169
 42
0.028282
  0
VERTEX
  8
0
 10
247.145070
 20
284.839474
 42
0.015839
  0
VERTEX
  8
0
 10
260.971237
 20
280.853333
 42
0.015421
  0
VERTEX
  8
0
 10
274.408342
 20
277.874237
 42
0.046869
  0
VERTEX
  8
0
 10
283.714324
 20
277.000000
 42
-0.025546
  0
VERTEX
  8
0
 10
285.014587
 20
276.933523
 42
-0.046805
  0
VERTEX
  8
0
 10
286.054624
 20
276.727343
 42
-0.069512
  0
VERTEX
  8
0
 10
286.711639
 20
276.427574
 42
-0.350568
  0
VERTEX
  8
0
 10
286.833333
 20
276.071807
 42
-0.137019
  0
VERTEX
  8
0
 10
286.405550
 20
275.468929
 42
-0.000763
  0
VERTEX
  8
0
 10
280.884105
 20
271.005706
 42
-0.003204
  0
VERTEX
  8
0
 10
274.529052
 20
265.951495
 42
-0.002021
  0
VERTEX
  8
0
 10
267.048725
 20
260.128928
 42
0.000000
  0
VERTEX
  8
0
 10
247.597450
 20
245.114243
 42
0.000000
  0
VERTEX
  8
0
 10
238.876254
 20
266.525170
 42
-0.000675
  0
VERTEX
  8
0
 10
232.914688
 20
281.217839
 42
-0.006085
  0
VERTEX
  8
0
 10
230.391834
 20
287.685200
 42
-0.006006
  0
VERTEX
  8
0
 10
228.985432
 20
291.565091
 42
-0.516341
  0
VERTEX
  8
0
 10
229.294297
 20
292.000000
 42
-0.099460
  0
VERTEX
  8
0
 10
229.605533
 20
291.937471
 42
-0.001254
  0
VERTEX
  8
0
 10
231.473897
 20
291.149643
 42
-0.003621
  0
VERTEX
  8
0
 10
233.632253
 20
290.214648
 42
-0.002358
  0
SEQEND
  0
POLYLINE
  8
0
 66
1
 70
1
  0
VERTEX
  8
0
 10
353.779024
 20
268.162546
 42
0.000000
  0
VERTEX
  8
0
 10
344.425508
 20
245.124299
 42
0.000000
  0
VERTEX
  8
0
 10
324.264133
 20
260.312149
 42
-0.001554
  0
VERTEX
  8
0
 10
316.530658
 20
266.175643
 42
-0.002533
  0
VERTEX
  8
0
 10
310.010070
 20
271.203991
 42
-0.000349
  0
VERTEX
  8
0
 10
304.249843
 20
275.699170
 42
-0.206995
  0
VERTEX
  8
0
 10
304.051379
 20
276.063139
 42
-0.375361
  0
VERTEX
  8
0
 10
304.220192
 20
276.296042
 42
-0.013350
  0
VERTEX
  8
0
 10
305.392627
 20
276.532162
 42
-0.018784
  0
VERTEX
  8
0
 10
306.895152
 20
276.735436
 42
-0.011298
  0
VERTEX
  8
0
 10
308.689477
 20
276.869023
 42
0.031072
  0
VERTEX
  8
0
 10
319.067592
 20
278.055613
 42
0.017078
  0
VERTEX
  8
0
 10
331.575934
 20
280.723212
 42
0.016925
  0
VERTEX
  8
0
 10
344.194674
 20
284.326077
 42
0.024894
  0
VERTEX
  8
0
 10
354.977478
 20
288.406217
 42
-0.003996
  0
VERTEX
  8
0
 10
357.884117
 20
289.647235
 42
-0.006427
  0
VERTEX
  8
0
 10
360.383163
 20
290.653173
 42
-0.001877
  0
VERTEX
  8
0
 10
362.551576
 20
291.484447
 42
-0.260672
  0
VERTEX
  8
0
 10
362.816270
 20
291.445072
 42
-0.332060
  0
VERTEX
  8
0
 10
362.885603
 20
291.196412
 42
-0.000242
  0
VERTEX
  8
0
 10
360.292040
 20
284.505065
 42
-0.002403
  0
VERTEX
  8
0
 10
357.342740
 20
277.013758
 42
-0.001450
  0
SEQEND
  0
POLYLINE
  8
0
 66
1
 70
1
  0
VERTEX
  8
0
 10
194.549836
 20
262.603861
 42
-0.003620
  0
VERTEX
  8
0
 10
189.220050
 20
253.586600
 42
-0.005617
  0
VERTEX
  8
0
 10
184.478154
 20
245.892078
 42
-0.001986
  0
VERTEX
  8
0
 10
180.305945
 20
239.346919
 42
-0.159562
  0
VERTEX
  8
0
 10
179.376695
 20
238.591057
 42
-0.057717
  0
VERTEX
  8
0
 10
175.839808
 20
237.683790
 42
-0.000389
  0
VERTEX
  8
0
 10
144.461617
 20
233.421244
 42
-0.000306
  0
VERTEX
  8
0
 10
112.749029
 20
229.158178
 42
-0.074393
  0
VERTEX
  8
0
 10
109.861906
 20
229.202929
 42
-0.593219
  0
VERTEX
  8
0
 10
109.594406
 20
229.969000
 42
-0.005455
  0
VERTEX
  8
0
 10
114.685089
 20
235.479691
 42
-0.008035
  0
VERTEX
  8
0
 10
122.266151
 20
243.254514
 42
-0.002170
  0
VERTEX
  8
0
 10
134.532437
 20
255.331131
 42
0.000000
  0
VERTEX
  8
0
 10
160.997978
 20
281.162261
 42
0.000000
  0
VERTEX
  8
0
 10
184.248989
 20
284.347304
 42
-0.003175
  0
VERTEX
  8
0
 10
193.187478
 20
285.513978
 42
-0.005215
  0
VERTEX
  8
0
 10
200.767088
 20
286.374211
 42
-0.001134
  0
VERTEX
  8
0
 10
207.379070
 20
287.039703
 42
-0.325159
  0
VERTEX
  8
0
 10
207.830459
 20
286.774797
 42
-0.231763
  0
VERTEX
  8
0
 10
207.804610
 20
286.189684
 42
-0.000696
  0
VERTEX
  8
0
 10
204.065590
 20
279.362095
 42
-0.003738
  0
VERTEX
  8
0
 10
199.744301
 20
271.634732
 42
-0.002304
  0
SEQEND
  0
POLYLINE
  8
0
 66
1
 70
1
  0
VERTEX
  8
0
 10
409.413394
 20
284.034643
 42
-0.003097
  0
VERTEX
  8
0
 10
417.812527
 20
282.827905
 42
-0.004558
  0
VERTEX
  8
0
 10
425.174127
 20
281.654929
 42
-0.002204
  0
VERTEX
  8
0
 10
431.407940
 20
280.575005
 42
-0.082981
  0
VERTEX
  8
0
 10
432.751010
 20
280.097606
 42
-0.071101
  0
VERTEX
  8
0
 10
437.013610
 20
276.863413
 42
-0.000999
  0
VERTEX
  8
0
 10
459.699974
 20
253.828077
 42
-0.000411
  0
VERTEX
  8
0
 10
483.216578
 20
229.814603
 42
-0.664109
  0
VERTEX
  8
0
 10
482.873765
 20
229.000000
 42
-0.032490
  0
VERTEX
  8
0
 10
480.745287
 20
229.138454
 42
-0.000144
  0
VERTEX
  8
0
 10
458.163090
 20
232.095410
 42
-0.000797
  0
VERTEX
  8
0
 10
437.160204
 20
234.885787
 42
-0.002119
  0
VERTEX
  8
0
 10
422.169734
 20
236.966434
 42
-0.008071
  0
VERTEX
  8
0
 10
419.239704
 20
237.434160
 42
-0.009663
  0
VERTEX
  8
0
 10
416.497978
 20
237.972155
 42
-0.008547
  0
VERTEX
  8
0
 10
414.212058
 20
238.507830
 42
-0.061106
  0
VERTEX
  8
0
 10
413.155192
 20
238.916944
 42
-0.126962
  0
VERTEX
  8
0
 10
412.152652
 20
239.839678
 42
-0.002442
  0
VERTEX
  8
0
 10
408.323232
 20
245.822424
 42
-0.005738
  0
VERTEX
  8
0
 10
403.945039
 20
252.915469
 42
-0.003793
  0
VERTEX
  8
0
 10
399.071120
 20
261.159170
 42
0.000467
  0
VERTEX
  8
0
 10
394.215050
 20
269.498845
 42
0.000666
  0
VERTEX
  8
0
 10
389.887630
 20
276.892069
 42
0.000362
  0
VERTEX
  8
0
 10
386.213450
 20
283.139766
 42
0.010084
  0
VERTEX
  8
0
 10
385.220652
 20
284.750000
 42
-0.300021
  0
VERTEX
  8
0
 10
385.235285
 20
286.173235
 42
-0.257240
  0
VERTEX
  8
0
 10
386.591068
 20
286.868765
 42
-0.025810
  0
VERTEX
  8
0
 10
391.347300
 20
286.481860
 42
-0.000932
  0
SEQEND
  0
POLYLINE
  8
0
 66
1
 70
1
  0
VERTEX
  8
0
 10
380.388795
 20
268.471625
 42
0.003184
  0
VERTEX
  8
0
 10
383.626286
 20
262.798216
 42
0.002830
  0
VERTEX
  8
0
 10
387.064187
 20
256.938481
 42
0.002841
  0
VERTEX
  8
0
 10
390.217061
 20
251.701558
 42
0.008734
  0
VERTEX
  8
0
 10
392.432645
 20
248.207150
 42
-0.032932
  0
VERTEX
  8
0
 10
397.405697
 20
239.454644
 42
-0.101813
  0
VERTEX
  8
0
 10
399.065991
 20
232.895807
 42
-0.091495
  0
VERTEX
  8
0
 10
398.086824
 20
225.818387
 42
-0.023524
  0
VERTEX
  8
0
 10
393.928077
 20
215.000000
 42
0.003518
  0
VERTEX
  8
0
 10
391.468296
 20
209.293810
 42
0.001370
  0
VERTEX
  8
0
 10
388.144158
 20
201.370313
 42
0.001356
  0
VERTEX
  8
0
 10
384.591552
 20
192.771154
 42
0.001682
  0
VERTEX
  8
0
 10
381.334650
 20
184.750000
 42
-0.003234
  0
VERTEX
  8
0
 10
378.389750
 20
177.561321
 42
-0.005278
  0
VERTEX
  8
0
 10
375.788689
 20
171.507812
 42
-0.001203
  0
VERTEX
  8
0
 10
373.456323
 20
166.267956
 42
-0.295584
  0
VERTEX
  8
0
 10
373.042659
 20
166.000000
 42
-0.337145
  0
VERTEX
  8
0
 10
372.332129
 20
166.540546
 42
-0.000130
  0
VERTEX
  8
0
 10
363.227641
 20
199.459582
 42
-0.000467
  0
VERTEX
  8
0
 10
354.498782
 20
231.167666
 42
-0.066480
  0
VERTEX
  8
0
 10
353.978497
 20
235.000000
 42
-0.094654
  0
VERTEX
  8
0
 10
354.330419
 20
236.864316
 42
-0.000305
  0
VERTEX
  8
0
 10
363.068945
 20
259.004105
 42
-0.000122
  0
VERTEX
  8
0
 10
372.023038
 20
281.633446
 42
-0.307631
  0
VERTEX
  8
0
 10
372.562425
 20
282.000000
 42
-0.267534
  0
VERTEX
  8
0
 10
372.696098
 20
281.922962
 42
-0.000169
  0
VERTEX
  8
0
 10
374.952288
 20
278.026040
 42
-0.001913
  0
VERTEX
  8
0
 10
377.456590
 20
273.658738
 42
-0.001159
  0
SEQEND
  0
POLYLINE
  8
0
 66
1
 70
1
  0
VERTEX
  8
0
 10
229.859288
 20
256.850322
 42
0.000000
  0
VERTEX
  8
0
 10
238.972677
 20
234.200643
 42
0.000000
  0
VERTEX
  8
0
 10
229.736338
 20
199.603115
 42
-0.001510
  0
VERTEX
  8
0
 10
226.151796
 20
186.337055
 42
-0.002502
  0
VERTEX
  8
0
 10
223.037421
 20
175.167790
 42
-0.000262
  0
VERTEX
  8
0
 10
220.208716
 20
165.235588
 42
-0.333652
  0
VERTEX
  8
0
 10
219.901690
 20
165.002794
 42
-0.256239
  0
VERTEX
  8
0
 10
219.598901
 20
165.167036
 42
-0.014820
  0
VERTEX
  8
0
 10
219.035094
 20
166.102383
 42
-0.019551
  0
VERTEX
  8
0
 10
218.414376
 20
167.313162
 42
-0.012864
  0
VERTEX
  8
0
 10
217.791757
 20
168.750000
 42
0.001411
  0
VERTEX
  8
0
 10
216.739436
 20
171.339480
 42
0.000065
  0
VERTEX
  8
0
 10
213.122937
 20
180.163970
 42
0.000108
  0
VERTEX
  8
0
 10
208.827039
 20
190.635952
 42
0.000077
  0
VERTEX
  8
0
 10
204.020609
 20
202.340111
 42
-0.001509
  0
VERTEX
  8
0
 10
196.810255
 20
220.042188
 42
-0.013845
  0
VERTEX
  8
0
 10
193.915542
 20
227.824774
 42
-0.030128
  0
VERTEX
  8
0
 10
192.679530
 20
232.322886
 42
-0.158088
  0
VERTEX
  8
0
 10
192.946477
 20
234.840111
 42
-0.027325
  0
VERTEX
  8
0
 10
196.770899
 20
242.297374
 42
-0.002492
  0
VERTEX
  8
0
 10
207.387694
 20
260.273189
 42
-0.000382
  0
VERTEX
  8
0
 10
219.297425
 20
280.175966
 42
-0.504906
  0
VERTEX
  8
0
 10
220.072602
 20
280.250348
 42
-0.083489
  0
VERTEX
  8
0
 10
220.486087
 20
279.597720
 42
-0.000505
  0
VERTEX
  8
0
 10
223.225176
 20
273.067072
 42
-0.002077
  0
VERTEX
  8
0
 10
226.317376
 20
265.586468
 42
-0.001319
  0
SEQEND
  0
POLYLINE
  8
0
 66
1
 70
1
  0
VERTEX
  8
0
 10
290.000000
 20
234.191130
 42
-0.002194
  0
VERTEX
  8
0
 10
289.940414
 20
220.610561
 42
-0.008412
  0
VERTEX
  8
0
 10
289.724037
 20
212.160013
 42
-0.007909
  0
VERTEX
  8
0
 10
289.389883
 20
206.429147
 42
-0.145463
  0
VERTEX
  8
0
 10
288.750000
 20
204.744294
 42
-0.066416
  0
VERTEX
  8
0
 10
286.349719
 20
202.339683
 42
-0.000370
  0
VERTEX
  8
0
 10
260.612003
 20
182.654835
 42
-0.000164
  0
VERTEX
  8
0
 10
234.171651
 20
162.477258
 42
-0.163027
  0
VERTEX
  8
0
 10
232.781385
 20
162.003670
 42
-0.203525
  0
VERTEX
  8
0
 10
232.542226
 20
162.103788
 42
-0.134196
  0
VERTEX
  8
0
 10
232.395683
 20
162.368265
 42
-0.089350
  0
VERTEX
  8
0
 10
232.371075
 20
162.771513
 42
-0.050808
  0
VERTEX
  8
0
 10
232.477476
 20
163.250000
 42
0.014626
  0
VERTEX
  8
0
 10
232.772036
 20
164.233179
 42
0.000081
  0
VERTEX
  8
0
 10
235.301985
 20
173.679688
 42
0.000352
  0
VERTEX
  8
0
 10
238.177009
 20
184.452009
 42
0.000224
  0
VERTEX
  8
0
 10
241.510471
 20
197.000000
 42
-0.002944
  0
VERTEX
  8
0
 10
244.939406
 20
209.630050
 42
-0.004347
  0
VERTEX
  8
0
 10
248.109737
 20
220.668409
 42
-0.002052
  0
VERTEX
  8
0
 10
250.923713
 20
230.013540
 42
-0.081484
  0
VERTEX
  8
0
 10
251.873778
 20
231.935009
 42
-0.067042
  0
VERTEX
  8
0
 10
254.575483
 20
234.802217
 42
-0.001258
  0
VERTEX
  8
0
 10
270.662688
 20
247.777038
 42
-0.000643
  0
VERTEX
  8
0
 10
287.402170
 20
261.173214
 42
-0.144556
  0
VERTEX
  8
0
 10
289.250000
 20
261.925221
 42
-0.434703
  0
VERTEX
  8
0
 10
289.556111
 20
261.656338
 42
-0.000724
  0
VERTEX
  8
0
 10
289.779688
 20
253.809178
 42
-0.004231
  0
VERTEX
  8
0
 10
289.946120
 20
244.849302
 42
-0.002528
  0
SEQEND
  0
POLYLINE
  8
0
 66
1
 70
1
  0
VERTEX
  8
0
 10
323.489096
 20
245.928153
 42
-0.002177
  0
VERTEX
  8
0
 10
335.405745
 20
236.742790
 42
-0.026588
  0
VERTEX
  8
0
 10
339.755272
 20
232.972375
 42
-0.069026
  0
VERTEX
  8
0
 10
342.002536
 20
230.110040
 42
-0.062072
  0
VERTEX
  8
0
 10
343.484637
 20
226.641162
 42
-0.004697
  0
VERTEX
  8
0
 10
346.981424
 20
214.026119
 42
-0.000777
  0
VERTEX
  8
0
 10
353.455686
 20
189.635398
 42
-0.000028
  0
VERTEX
  8
0
 10
360.807310
 20
161.758465
 42
-0.266875
  0
VERTEX
  8
0
 10
360.702035
 20
161.368702
 42
-0.367058
  0
VERTEX
  8
0
 10
360.495632
 20
161.351777
 42
-0.000539
  0
VERTEX
  8
0
 10
357.156368
 20
163.750056
 42
-0.003643
  0
VERTEX
  8
0
 10
353.393474
 20
166.500592
 42
-0.002196
  0
VERTEX
  8
0
 10
348.970095
 20
169.813855
 42
-0.001391
  0
VERTEX
  8
0
 10
329.252689
 20
184.804865
 42
-0.003650
  0
VERTEX
  8
0
 10
315.212227
 20
195.704840
 42
-0.001727
  0
VERTEX
  8
0
 10
304.539263
 20
204.176045
 42
-0.101611
  0
VERTEX
  8
0
 10
302.960657
 20
206.073513
 42
-0.112527
  0
VERTEX
  8
0
 10
302.563958
 20
207.522178
 42
-0.002360
  0
VERTEX
  8
0
 10
302.275828
 20
215.011530
 42
-0.005239
  0
VERTEX
  8
0
 10
302.067575
 20
223.964914
 42
-0.003195
  0
VERTEX
  8
0
 10
302.000000
 20
234.541247
 42
-0.001494
  0
VERTEX
  8
0
 10
302.045229
 20
249.681201
 42
-0.012718
  0
VERTEX
  8
0
 10
302.258580
 20
256.471507
 42
-0.023423
  0
VERTEX
  8
0
 10
302.641667
 20
260.153096
 42
-0.478956
  0
VERTEX
  8
0
 10
303.485391
 20
260.643980
 42
-0.066027
  0
VERTEX
  8
0
 10
304.520507
 20
260.080816
 42
-0.001031
  0
VERTEX
  8
0
 10
309.974203
 20
256.086082
 42
-0.002721
  0
VERTEX
  8
0
 10
316.284710
 20
251.390584
 42
-0.001797
  0
SEQEND
  0
POLYLINE
  8
0
 66
1
 70
1
  0
VERTEX
  8
0
 10
278.750000
 20
472.538716
 42
0.005276
  0
VERTEX
  8
0
 10
277.696584
 20
469.998262
 42
0.007269
  0
VERTEX
  8
0
 10
276.807813
 20
467.693055
 42
0.004860
  0
VERTEX
  8
0
 10
276.111915
 20
465.748879
 42
0.083697
  0
VERTEX
  8
0
 10
276.000000
 20
465.084991
 42
-0.230747
  0
VERTEX
  8
0
 10
275.383058
 20
463.819332
 42
-0.104055
  0
VERTEX
  8
0
 10
273.682846
 20
462.984736
 42
-0.069952
  0
VERTEX
  8
0
 10
271.103612
 20
462.701743
 42
-0.040062
  0
VERTEX
  8
0
 10
267.985998
 20
463.047568
 42
0.011506
  0
VERTEX
  8
0
 10
266.007153
 20
463.382249
 42
0.008079
  0
VERTEX
  8
0
 10
263.766393
 20
463.671500
 42
0.008156
  0
VERTEX
  8
0
 10
261.611063
 20
463.878847
 42
0.016858
  0
VERTEX
  8
0
 10
259.920873
 20
463.956449
 42
0.000000
  0
VERTEX
  8
0
 10
256.341745
 20
464.000000
 42
0.000000
  0
VERTEX
  8
0
 10
257.226965
 20
457.392945
 42
-0.014817
  0
VERTEX
  8
0
 10
257.959165
 20
450.347619
 42
-0.134459
  0
VERTEX
  8
0
 10
257.370502
 20
447.341773
 42
-0.160114
  0
VERTEX
  8
0
 10
255.362732
 20
445.305048
 42
-0.023471
  0
VERTEX
  8
0
 10
250.016605
 20
442.865547
 42
0.002766
  0
VERTEX
  8
0
 10
247.117677
 20
441.685136
 42
0.004165
  0
VERTEX
  8
0
 10
244.605210
 20
440.621253
 42
0.001722
  0
VERTEX
  8
0
 10
242.467815
 20
439.686364
 42
0.092672
  0
VERTEX
  8
0
 10
242.103430
 20
439.436764
 42
0.349695
  0
VERTEX
  8
0
 10
242.064508
 20
439.092532
 42
0.005683
  0
VERTEX
  8
0
 10
243.188230
 20
437.345457
 42
0.012002
  0
VERTEX
  8
0
 10
244.618823
 20
435.285235
 42
0.007335
  0
VERTEX
  8
0
 10
246.399887
 20
432.920943
 42
-0.005297
  0
VERTEX
  8
0
 10
248.249911
 20
430.485816
 42
-0.006780
  0
VERTEX
  8
0
 10
249.898872
 20
428.202907
 42
-0.005358
  0
VERTEX
  8
0
 10
251.230796
 20
426.261317
 42
-0.056094
  0
VERTEX
  8
0
 10
251.674484
 20
425.405898
 42
-0.195130
  0
VERTEX
  8
0
 10
251.658049
 20
424.541452
 42
-0.021822
  0
VERTEX
  8
0
 10
250.788092
 20
422.731568
 42
-0.023805
  0
VERTEX
  8
0
 10
249.500785
 20
420.580616
 42
-0.016759
  0
VERTEX
  8
0
 10
247.861422
 20
418.286333
 42
0.004957
  0
VERTEX
  8
0
 10
243.450846
 20
412.411926
 42
0.153157
  0
VERTEX
  8
0
 10
242.866021
 20
410.705388
 42
0.284045
  0
VERTEX
  8
0
 10
243.599785
 20
409.445296
 42
0.018399
  0
VERTEX
  8
0
 10
247.578942
 20
407.507507
 42
0.007534
  0
VERTEX
  8
0
 10
249.841862
 20
406.547233
 42
0.009689
  0
VERTEX
  8
0
 10
251.951427
 20
405.736580
 42
0.007789
  0
VERTEX
  8
0
 10
253.732260
 20
405.122775
 42
0.079251
  0
VERTEX
  8
0
 10
254.501986
 20
405.000000
 42
-0.180876
  0
VERTEX
  8
0
 10
256.348590
 20
404.309392
 42
-0.154382
  0
VERTEX
  8
0
 10
257.438471
 20
402.526486
 42
-0.073212
  0
VERTEX
  8
0
 10
257.756467
 20
399.230237
 42
-0.017478
  0
VERTEX
  8
0
 10
257.288077
 20
393.729176
 42
0.004380
  0
VERTEX
  8
0
 10
256.932806
 20
390.545572
 42
0.006835
  0
VERTEX
  8
0
 10
256.688414
 20
387.797725
 42
0.002522
  0
VERTEX
  8
0
 10
256.523442
 20
385.444619
 42
0.193303
  0
VERTEX
  8
0
 10
256.638817
 20
385.092866
 42
0.241376
  0
VERTEX
  8
0
 10
256.965484
 20
384.955421
 42
0.003049
  0
VERTEX
  8
0
 10
259.277657
 20
385.144339
 42
0.008098
  0
VERTEX
  8
0
 10
261.988799
 20
385.426815
 42
0.005119
  0
VERTEX
  8
0
 10
265.141683
 20
385.839813
 42
-0.009323
  0
VERTEX
  8
0
 10
268.777550
 20
386.285014
 42
-0.021255
  0
VERTEX
  8
0
 10
271.536949
 20
386.452689
 42
-0.024407
  0
VERTEX
  8
0
 10
273.550323
 20
386.391022
 42
-0.154538
  0
VERTEX
  8
0
 10
274.488185
 20
386.009806
 42
-0.095826
  0
VERTEX
  8
0
 10
275.089767
 20
385.276446
 42
-0.009610
  0
VERTEX
  8
0
 10
276.133846
 20
383.254767
 42
-0.011789
  0
VERTEX
  8
0
 10
277.285016
 20
380.770427
 42
-0.009114
  0
VERTEX
  8
0
 10
278.425338
 20
378.012859
 42
0.011419
  0
VERTEX
  8
0
 10
279.551267
 20
375.325235
 42
0.017569
  0
VERTEX
  8
0
 10
280.658619
 20
373.060027
 42
0.012220
  0
VERTEX
  8
0
 10
281.661211
 20
371.285429
 42
0.263906
  0
VERTEX
  8
0
 10
282.164326
 20
371.000000
 42
0.139409
  0
VERTEX
  8
0
 10
282.785615
 20
371.176660
 42
0.007033
  0
VERTEX
  8
0
 10
284.579685
 20
372.321875
 42
0.010825
  0
VERTEX
  8
0
 10
286.687734
 20
373.775996
 42
0.007590
  0
VERTEX
  8
0
 10
289.000000
 20
375.500000
 42
-0.012194
  0
VERTEX
  8
0
 10
291.356310
 20
377.223318
 42
-0.015860
  0
VERTEX
  8
0
 10
293.599455
 20
378.678125
 42
-0.013518
  0
VERTEX
  8
0
 10
295.519019
 20
379.768566
 42
-0.123008
  0
VERTEX
  8
0
 10
296.445511
 20
380.000000
 42
-0.129303
  0
VERTEX
  8
0
 10
297.388557
 20
379.751975
 42
-0.012007
  0
VERTEX
  8
0
 10
299.474508
 20
378.506205
 42
-0.014819
  0
VERTEX
  8
0
 10
301.918895
 20
376.862385
 42
-0.011102
  0
VERTEX
  8
0
 10
304.513803
 20
374.914742
 42
0.003690
  0
VERTEX
  8
0
 10
308.824898
 20
371.577947
 42
0.074032
  0
VERTEX
  8
0
 10
310.276216
 20
370.778454
 42
0.299549
  0
VERTEX
  8
0
 10
311.155535
 20
370.980973
 42
0.096034
  0
VERTEX
  8
0
 10
311.915740
 20
372.164742
 42
-0.004911
  0
VERTEX
  8
0
 10
316.328940
 20
382.925262
 42
-0.129143
  0
VERTEX
  8
0
 10
318.216287
 20
385.377812
 42
-0.180130
  0
VERTEX
  8
0
 10
320.908241
 20
386.215258
 42
-0.011564
  0
VERTEX
  8
0
 10
329.250000
 20
385.563588
 42
0.004887
  0
VERTEX
  8
0
 10
333.676334
 20
385.158262
 42
0.083630
  0
VERTEX
  8
0
 10
335.124469
 20
385.282128
 42
0.257501
  0
VERTEX
  8
0
 10
335.780595
 20
385.901077
 42
0.077780
  0
VERTEX
  8
0
 10
336.000000
 20
387.302958
 42
0.025354
  0
VERTEX
  8
0
 10
335.935096
 20
388.582089
 42
0.007040
  0
VERTEX
  8
0
 10
335.703606
 20
390.577834
 42
0.007088
  0
VERTEX
  8
0
 10
335.377254
 20
392.832715
 42
0.007378
  0
VERTEX
  8
0
 10
334.990998
 20
395.047467
 42
-0.024416
  0
VERTEX
  8
0
 10
334.366950
 20
399.521178
 42
-0.112277
  0
VERTEX
  8
0
 10
334.714115
 20
402.099510
 42
-0.159633
  0
VERTEX
  8
0
 10
336.063283
 20
403.788348
 42
-0.065437
  0
VERTEX
  8
0
 10
338.737611
 20
405.078419
 42
0.008989
  0
VERTEX
  8
0
 10
340.440085
 20
405.674431
 42
0.004477
  0
VERTEX
  8
0
 10
342.575506
 20
406.487198
 42
0.004442
  0
VERTEX
  8
0
 10
344.773184
 20
407.368851
 42
0.006517
  0
VERTEX
  8
0
 10
346.688409
 20
408.186367
 42
0.000000
  0
VERTEX
  8
0
 10
350.997151
 20
410.092329
 42
0.000000
  0
VERTEX
  8
0
 10
345.998576
 20
416.695296
 42
-0.008736
  0
VERTEX
  8
0
 10
344.083792
 20
419.318673
 42
-0.012140
  0
VERTEX
  8
0
 10
342.468332
 20
421.737901
 42
-0.008687
  0
VERTEX
  8
0
 10
341.215598
 20
423.794496
 42
-0.133213
  0
VERTEX
  8
0
 10
341.000000
 20
424.589360
 42
-0.134785
  0
VERTEX
  8
0
 10
341.218261
 20
425.384314
 42
-0.008646
  0
VERTEX
  8
0
 10
342.494614
 20
427.451225
 42
-0.012147
  0
VERTEX
  8
0
 10
344.138970
 20
429.881887
 42
-0.008719
  0
VERTEX
  8
0
 10
346.088048
 20
432.518847
 42
0.004943
  0
VERTEX
  8
0
 10
348.014662
 20
435.084644
 42
0.008199
  0
VERTEX
  8
0
 10
349.582180
 20
437.290652
 42
0.002681
  0
VERTEX
  8
0
 10
350.873095
 20
439.193769
 42
0.382877
  0
VERTEX
  8
0
 10
350.838048
 20
439.441293
 42
0.076408
  0
VERTEX
  8
0
 10
350.555581
 20
439.613043
 42
0.000901
  0
VERTEX
  8
0
 10
348.543052
 20
440.444976
 42
0.002703
  0
VERTEX
  8
0
 10
346.207290
 20
441.390872
 42
0.001760
  0
VERTEX
  8
0
 10
343.500000
 20
442.459201
 42
-0.011607
  0
VERTEX
  8
0
 10
337.334640
 20
445.033573
 42
-0.124987
  0
VERTEX
  8
0
 10
335.227286
 20
446.694387
 42
-0.177229
  0
VERTEX
  8
0
 10
334.526968
 20
448.927815
 42
-0.028844
  0
VERTEX
  8
0
 10
335.009302
 20
453.520621
 42
0.006024
  0
VERTEX
  8
0
 10
335.384541
 20
455.999061
 42
0.005912
  0
VERTEX
  8
0
 10
335.702503
 20
458.501387
 42
0.005831
  0
VERTEX
  8
0
 10
335.929756
 20
460.702006
 42
0.022253
  0
VERTEX
  8
0
 10
335.994208
 20
462.079846
 42
0.000000
  0
VERTEX
  8
0
 10
336.000000
 20
464.659692
 42
0.000000
  0
VERTEX
  8
0
 10
327.965308
 20
463.494971
 42
-0.008584
  0
VERTEX
  8
0
 10
324.119558
 20
463.004732
 42
-0.025293
  0
VERTEX
  8
0
 10
321.458934
 20
462.847440
 42
-0.035920
  0
VERTEX
  8
0
 10
319.610661
 20
462.964657
 42
-0.132930
  0
VERTEX
  8
0
 10
318.543586
 20
463.415125
 42
-0.091772
  0
VERTEX
  8
0
 10
317.856812
 20
464.191870
 42
-0.012426
  0
VERTEX
  8
0
 10
316.779383
 20
466.090693
 42
-0.013975
  0
VERTEX
  8
0
 10
315.609828
 20
468.431720
 42
-0.011371
  0
VERTEX
  8
0
 10
314.485532
 20
471.000000
 42
0.004619
  0
VERTEX
  8
0
 10
313.413397
 20
473.542004
 42
0.006390
  0
VERTEX
  8
0
 10
312.401620
 20
475.800683
 42
0.004164
  0
VERTEX
  8
0
 10
311.514798
 20
477.673429
 42
0.076150
  0
VERTEX
  8
0
 10
311.142164
 20
478.215090
 42
0.338509
  0
VERTEX
  8
0
 10
310.620485
 20
478.301096
 42
0.012687
  0
VERTEX
  8
0
 10
308.782835
 20
477.261627
 42
0.018330
  0
VERTEX
  8
0
 10
306.562365
 20
475.816951
 42
0.011297
  0
VERTEX
  8
0
 10
304.054549
 20
473.965090
 42
-0.009388
  0
VERTEX
  8
0
 10
301.499481
 20
472.063216
 42
-0.012925
  0
VERTEX
  8
0
 10
299.129813
 20
470.458495
 42
-0.009589
  0
VERTEX
  8
0
 10
297.113726
 20
469.221788
 42
-0.133548
  0
VERTEX
  8
0
 10
296.298171
 20
469.000000
 42
-0.135007
  0
VERTEX
  8
0
 10
295.484460
 20
469.223793
 42
-0.009732
  0
VERTEX
  8
0
 10
293.482067
 20
470.468750
 42
-0.013088
  0
VERTEX
  8
0
 10
291.129494
 20
472.084752
 42
-0.009502
  0
VERTEX
  8
0
 10
288.594686
 20
474.000000
 42
0.002715
  0
VERTEX
  8
0
 10
286.129392
 20
475.915833
 42
0.004298
  0
VERTEX
  8
0
 10
283.993698
 20
477.527992
 42
0.001150
  0
VERTEX
  8
0
 10
282.121501
 20
478.909483
 42
0.167462
  0
VERTEX
  8
0
 10
281.866153
 20
478.988909
 42
0.277157
  0
VERTEX
  8
0
 10
281.664610
 20
478.859436
 42
0.002248
  0
VERTEX
  8
0
 10
280.799745
 20
477.089590
 42
0.007160
  0
VERTEX
  8
0
 10
279.830642
 20
475.008039
 42
0.004444
  0
SEQEND
  0
POLYLINE
  8
0
 66
1
 70
1
  0
VERTEX
  8
0
 10
288.133148
 20
471.402261
 42
-0.021578
  0
VERTEX
  8
0
 10
291.836416
 20
468.429703
 42
-0.077971
  0
VERTEX
  8
0
 10
293.768718
 20
466.115205
 42
-0.094475
  0
VERTEX
  8
0
 10
294.703982
 20
463.565908
 42
-0.040831
  0
VERTEX
  8
0
 10
295.000000
 20
459.947053
 42
0.000000
  0
VERTEX
  8
0
 10
295.000000
 20
455.762622
 42
0.000000
  0
VERTEX
  8
0
 10
291.750000
 20
458.202167
 42
0.011891
  0
VERTEX
  8
0
 10
287.969435
 20
460.901851
 42
0.204221
  0
VERTEX
  8
0
 10
286.508124
 20
461.188109
 42
0.225296
  0
VERTEX
  8
0
 10
285.367017
 20
460.315850
 42
0.014642
  0
VERTEX
  8
0
 10
283.521634
 20
456.453001
 42
0.000000
  0
VERTEX
  8
0
 10
281.022079
 20
450.801064
 42
0.000000
  0
VERTEX
  8
0
 10
274.899960
 20
451.511611
 42
0.000000
  0
VERTEX
  8
0
 10
268.777842
 20
452.222158
 42
0.000000
  0
VERTEX
  8
0
 10
269.488389
 20
446.100040
 42
0.000000
  0
VERTEX
  8
0
 10
270.198936
 20
439.977921
 42
0.000000
  0
VERTEX
  8
0
 10
264.599468
 20
437.501570
 42
0.004451
  0
VERTEX
  8
0
 10
262.452813
 20
436.529277
 42
0.007183
  0
VERTEX
  8
0
 10
260.644844
 20
435.659138
 42
0.002245
  0
VERTEX
  8
0
 10
259.108182
 20
434.883558
 42
0.281850
  0
VERTEX
  8
0
 10
259.000000
 20
434.706890
 42
0.146700
  0
VERTEX
  8
0
 10
259.064653
 20
434.491274
 42
0.002677
  0
VERTEX
  8
0
 10
259.734375
 20
433.486680
 42
0.006381
  0
VERTEX
  8
0
 10
260.541893
 20
432.321680
 42
0.004189
  0
VERTEX
  8
0
 10
261.500000
 20
431.000000
 42
-0.010513
  0
VERTEX
  8
0
 10
262.457497
 20
429.643387
 42
-0.014019
  0
VERTEX
  8
0
 10
263.265625
 20
428.370150
 42
-0.011231
  0
VERTEX
  8
0
 10
263.879257
 20
427.286007
 42
-0.123773
  0
VERTEX
  8
0
 10
264.000000
 20
426.805720
 42
-0.390640
  0
VERTEX
  8
0
 10
263.306852
 20
426.053911
 42
-0.039586
  0
VERTEX
  8
0
 10
260.653380
 20
426.048551
 42
-0.040451
  0
VERTEX
  8
0
 10
257.565459
 20
426.540451
 42
-0.059676
  0
VERTEX
  8
0
 10
254.997486
 20
427.501300
 42
-0.086309
  0
VERTEX
  8
0
 10
252.692747
 20
429.251341
 42
-0.017025
  0
VERTEX
  8
0
 10
249.276067
 20
433.185503
 42
-0.009891
  0
VERTEX
  8
0
 10
246.016945
 20
437.373696
 42
-0.406470
  0
VERTEX
  8
0
 10
246.153609
 20
438.413863
 42
-0.067683
  0
VERTEX
  8
0
 10
246.434913
 20
438.579766
 42
-0.001061
  0
VERTEX
  8
0
 10
248.160748
 20
439.300450
 42
-0.002794
  0
VERTEX
  8
0
 10
250.175518
 20
440.123608
 42
-0.001845
  0
VERTEX
  8
0
 10
252.500000
 20
441.048231
 42
0.010892
  0
VERTEX
  8
0
 10
258.187157
 20
443.430511
 42
0.124585
  0
VERTEX
  8
0
 10
260.082148
 20
444.920628
 42
0.168277
  0
VERTEX
  8
0
 10
260.766260
 20
446.963670
 42
0.024063
  0
VERTEX
  8
0
 10
260.504638
 20
451.436015
 42
0.004937
  0
VERTEX
  8
0
 10
260.217027
 20
453.895274
 42
0.005439
  0
VERTEX
  8
0
 10
259.889199
 20
456.270148
 42
0.005084
  0
VERTEX
  8
0
 10
259.566597
 20
458.292053
 42
0.027418
  0
VERTEX
  8
0
 10
259.320264
 20
459.377255
 42
-0.182189
  0
VERTEX
  8
0
 10
259.401282
 20
460.358348
 42
-0.250031
  0
VERTEX
  8
0
 10
260.099480
 20
460.875981
 42
-0.054073
  0
VERTEX
  8
0
 10
261.961553
 20
460.950331
 42
-0.003743
  0
VERTEX
  8
0
 10
267.208012
 20
460.552830
 42
0.014262
  0
VERTEX
  8
0
 10
273.511824
 20
460.208395
 42
0.149158
  0
VERTEX
  8
0
 10
275.978423
 20
460.891234
 42
0.147253
  0
VERTEX
  8
0
 10
277.658519
 20
462.837276
 42
0.013790
  0
VERTEX
  8
0
 10
280.104229
 20
468.750000
 42
-0.004852
  0
VERTEX
  8
0
 10
281.045535
 20
471.146066
 42
-0.007842
  0
VERTEX
  8
0
 10
281.898065
 20
473.164062
 42
-0.002614
  0
VERTEX
  8
0
 10
282.661987
 20
474.871789
 42
-0.294316
  0
VERTEX
  8
0
 10
282.860931
 20
475.000000
 42
-0.148966
  0
VERTEX
  8
0
 10
283.117084
 20
474.921952
 42
-0.001825
  0
VERTEX
  8
0
 10
284.562730
 20
473.943164
 42
-0.005229
  0
VERTEX
  8
0
 10
286.227830
 20
472.781201
 42
-0.003375
  0
SEQEND
  0
POLYLINE
  8
0
 66
1
 70
1
  0
VERTEX
  8
0
 10
313.525613
 20
466.675370
 42
0.000000
  0
VERTEX
  8
0
 10
316.363474
 20
459.850739
 42
0.000000
  0
VERTEX
  8
0
 10
324.681737
 20
460.543646
 42
0.000000
  0
VERTEX
  8
0
 10
333.000000
 20
461.236554
 42
0.000000
  0
VERTEX
  8
0
 10
332.956449
 20
458.368277
 42
-0.017292
  0
VERTEX
  8
0
 10
332.887688
 20
456.987664
 42
-0.007612
  0
VERTEX
  8
0
 10
332.705863
 20
455.167556
 42
-0.007523
  0
VERTEX
  8
0
 10
332.454347
 20
453.241292
 42
-0.010017
  0
VERTEX
  8
0
 10
332.164547
 20
451.500000
 42
0.024463
  0
VERTEX
  8
0
 10
331.686742
 20
448.009278
 42
0.086940
  0
VERTEX
  8
0
 10
331.880703
 20
445.768073
 42
0.140705
  0
VERTEX
  8
0
 10
332.743934
 20
444.325850
 42
0.112786
  0
VERTEX
  8
0
 10
334.314275
 20
443.411548
 42
-0.016212
  0
VERTEX
  8
0
 10
335.492648
 20
443.001265
 42
-0.003865
  0
VERTEX
  8
0
 10
337.424289
 20
442.240475
 42
-0.003969
  0
VERTEX
  8
0
 10
339.630477
 20
441.331374
 42
-0.003914
  0
VERTEX
  8
0
 10
341.832239
 20
440.383219
 42
0.000000
  0
VERTEX
  8
0
 10
347.164478
 20
438.037318
 42
0.000000
  0
VERTEX
  8
0
 10
343.383397
 20
433.268659
 42
-0.005834
  0
VERTEX
  8
0
 10
341.826360
 20
431.351327
 42
-0.006439
  0
VERTEX
  8
0
 10
340.274649
 20
429.533606
 42
-0.006026
  0
VERTEX
  8
0
 10
338.911885
 20
428.015548
 42
-0.032493
  0
VERTEX
  8
0
 10
338.110028
 20
427.250000
 42
-0.137160
  0
VERTEX
  8
0
 10
336.326281
 20
426.443444
 42
-0.022112
  0
VERTEX
  8
0
 10
332.497135
 20
426.028975
 42
-0.017210
  0
VERTEX
  8
0
 10
328.684833
 20
425.917673
 42
-0.412683
  0
VERTEX
  8
0
 10
328.000000
 20
426.606096
 42
-0.144160
  0
VERTEX
  8
0
 10
328.112841
 20
426.989336
 42
-0.006539
  0
VERTEX
  8
0
 10
328.878292
 20
428.143084
 42
-0.010480
  0
VERTEX
  8
0
 10
329.844394
 20
429.496896
 42
-0.007272
  0
VERTEX
  8
0
 10
330.989929
 20
430.987284
 42
0.000000
  0
VERTEX
  8
0
 10
333.979858
 20
434.762377
 42
0.000000
  0
VERTEX
  8
0
 10
328.739929
 20
437.006701
 42
-0.016091
  0
VERTEX
  8
0
 10
325.023022
 20
438.742275
 42
-0.083615
  0
VERTEX
  8
0
 10
323.207881
 20
440.082119
 42
-0.148993
  0
VERTEX
  8
0
 10
322.459637
 20
441.546893
 42
-0.092632
  0
VERTEX
  8
0
 10
322.475734
 20
443.491692
 42
0.003091
  0
VERTEX
  8
0
 10
322.664488
 20
444.490198
 42
0.001181
  0
VERTEX
  8
0
 10
322.915420
 20
445.882696
 42
0.001169
  0
VERTEX
  8
0
 10
323.180831
 20
447.396258
 42
0.001435
  0
VERTEX
  8
0
 10
323.421345
 20
448.811104
 42
0.000000
  0
VERTEX
  8
0
 10
323.974442
 20
452.122208
 42
0.000000
  0
VERTEX
  8
0
 10
317.390365
 20
451.811104
 42
0.000000
  0
VERTEX
  8
0
 10
310.806288
 20
451.500000
 42
0.000000
  0
VERTEX
  8
0
 10
308.822838
 20
456.496973
 42
0.003808
  0
VERTEX
  8
0
 10
308.034382
 20
458.440067
 42
0.005532
  0
VERTEX
  8
0
 10
307.306736
 20
460.141375
 42
0.002930
  0
VERTEX
  8
0
 10
306.668070
 20
461.567397
 42
0.089856
  0
VERTEX
  8
0
 10
306.446911
 20
461.886422
 42
0.328371
  0
VERTEX
  8
0
 10
306.147061
 20
461.931999
 42
0.012514
  0
VERTEX
  8
0
 10
305.101756
 20
461.349028
 42
0.018180
  0
VERTEX
  8
0
 10
303.840801
 20
460.540578
 42
0.011282
  0
VERTEX
  8
0
 10
302.418797
 20
459.505861
 42
-0.013472
  0
VERTEX
  8
0
 10
300.481451
 20
458.109096
 42
-0.074885
  0
VERTEX
  8
0
 10
299.328859
 20
457.554849
 42
-0.172880
  0
VERTEX
  8
0
 10
298.537522
 20
457.589405
 42
-0.156308
  0
VERTEX
  8
0
 10
297.906892
 20
458.116412
 42
-0.142682
  0
VERTEX
  8
0
 10
297.097248
 20
460.920250
 42
-0.114339
  0
VERTEX
  8
0
 10
297.816756
 20
463.992852
 42
-0.079539
  0
VERTEX
  8
0
 10
300.173846
 20
467.319368
 42
-0.036043
  0
VERTEX
  8
0
 10
304.186308
 20
470.863772
 42
-0.012989
  0
VERTEX
  8
0
 10
306.263065
 20
472.363726
 42
-0.021140
  0
VERTEX
  8
0
 10
308.108564
 20
473.513724
 42
-0.016492
  0
VERTEX
  8
0
 10
309.619309
 20
474.304084
 42
-0.341324
  0
VERTEX
  8
0
 10
310.089416
 20
474.204461
 42
-0.066080
  0
VERTEX
  8
0
 10
310.432104
 20
473.672343
 42
-0.003007
  0
VERTEX
  8
0
 10
311.345613
 20
471.702200
 42
-0.004978
  0
VERTEX
  8
0
 10
312.394921
 20
469.341094
 42
-0.003542
  0
SEQEND
  0
POLYLINE
  8
0
 66
1
 70
1
  0
VERTEX
  8
0
 10
292.594391
 20
454.320855
 42
0.010931
  0
VERTEX
  8
0
 10
293.835115
 20
453.431991
 42
0.014501
  0
VERTEX
  8
0
 10
295.003555
 20
452.681751
 42
0.011799
  0
VERTEX
  8
0
 10
295.999617
 20
452.113830
 42
0.124284
  0
VERTEX
  8
0
 10
296.450487
 20
452.000000
 42
0.138740
  0
VERTEX
  8
0
 10
296.918960
 20
452.132543
 42
0.008628
  0
VERTEX
  8
0
 10
298.145821
 20
452.916662
 42
0.012236
  0
VERTEX
  8
0
 10
299.587438
 20
453.925138
 42
0.008740
  0
VERTEX
  8
0
 10
301.152210
 20
455.120552
 42
-0.008681
  0
VERTEX
  8
0
 10
302.683150
 20
456.290408
 42
-0.014434
  0
VERTEX
  8
0
 10
304.017479
 20
457.215593
 42
-0.008089
  0
VERTEX
  8
0
 10
305.132390
 20
457.916482
 42
-0.383991
  0
VERTEX
  8
0
 10
305.373525
 20
457.870552
 42
-0.056838
  0
VERTEX
  8
0
 10
305.534636
 20
457.599180
 42
-0.002919
  0
VERTEX
  8
0
 10
305.948243
 20
456.663902
 42
-0.004616
  0
VERTEX
  8
0
 10
306.424121
 20
455.542415
 42
-0.003330
  0
VERTEX
  8
0
 10
306.934998
 20
454.283156
 42
0.045782
  0
VERTEX
  8
0
 10
308.397253
 20
451.406268
 42
0.116372
  0
VERTEX
  8
0
 10
310.056486
 20
449.773538
 42
0.108678
  0
VERTEX
  8
0
 10
312.345297
 20
448.991761
 42
0.037020
  0
VERTEX
  8
0
 10
315.875090
 20
448.855346
 42
0.000000
  0
VERTEX
  8
0
 10
320.666613
 20
449.024936
 42
0.000000
  0
VERTEX
  8
0
 10
320.215968
 20
443.590744
 42
0.000000
  0
VERTEX
  8
0
 10
319.765322
 20
438.156552
 42
0.000000
  0
VERTEX
  8
0
 10
324.872590
 20
435.959464
 42
0.000000
  0
VERTEX
  8
0
 10
329.979858
 20
433.762377
 42
0.000000
  0
VERTEX
  8
0
 10
326.989929
 20
429.987284
 42
0.029171
  0
VERTEX
  8
0
 10
324.831374
 20
426.908891
 42
0.126487
  0
VERTEX
  8
0
 10
324.174222
 20
424.796208
 42
0.145394
  0
VERTEX
  8
0
 10
324.662207
 20
422.792044
 42
0.043002
  0
VERTEX
  8
0
 10
326.500000
 20
420.182369
 42
-0.015615
  0
VERTEX
  8
0
 10
327.457237
 20
418.969844
 42
-0.019448
  0
VERTEX
  8
0
 10
328.265625
 20
417.783556
 42
-0.018040
  0
VERTEX
  8
0
 10
328.859403
 20
416.754146
 42
-0.122386
  0
VERTEX
  8
0
 10
329.000000
 20
416.188352
 42
-0.236615
  0
VERTEX
  8
0
 10
328.752136
 20
415.693905
 42
-0.024669
  0
VERTEX
  8
0
 10
327.642190
 20
414.947351
 42
-0.026432
  0
VERTEX
  8
0
 10
326.148525
 20
414.150798
 42
-0.018067
  0
VERTEX
  8
0
 10
324.377667
 20
413.400130
 42
0.000000
  0
VERTEX
  8
0
 10
319.755334
 20
411.634845
 42
0.000000
  0
VERTEX
  8
0
 10
320.262307
 20
406.067423
 42
0.000000
  0
VERTEX
  8
0
 10
320.769279
 20
400.500000
 42
0.000000
  0
VERTEX
  8
0
 10
315.051212
 20
400.830423
 42
0.000000
  0
VERTEX
  8
0
 10
309.333144
 20
401.160846
 42
0.000000
  0
VERTEX
  8
0
 10
307.583864
 20
396.580423
 42
-0.017539
  0
VERTEX
  8
0
 10
306.842165
 20
394.825570
 42
-0.025770
  0
VERTEX
  8
0
 10
306.059381
 20
393.345499
 42
-0.023674
  0
VERTEX
  8
0
 10
305.327841
 20
392.241868
 42
-0.238922
  0
VERTEX
  8
0
 10
304.850570
 20
392.000000
 42
-0.118149
  0
VERTEX
  8
0
 10
304.289884
 20
392.134364
 42
-0.015029
  0
VERTEX
  8
0
 10
303.192795
 20
392.734375
 42
-0.016929
  0
VERTEX
  8
0
 10
301.915978
 20
393.542687
 42
-0.013343
  0
VERTEX
  8
0
 10
300.588887
 20
394.500000
 42
0.031044
  0
VERTEX
  8
0
 10
297.806883
 20
396.360833
 42
0.145510
  0
VERTEX
  8
0
 10
295.956284
 20
396.810715
 42
0.131863
  0
VERTEX
  8
0
 10
294.060987
 20
396.197890
 42
0.023732
  0
VERTEX
  8
0
 10
291.020487
 20
394.016226
 42
0.000000
  0
VERTEX
  8
0
 10
287.253164
 20
391.032451
 42
0.000000
  0
VERTEX
  8
0
 10
285.123972
 20
396.155859
 42
0.000000
  0
VERTEX
  8
0
 10
282.994780
 20
401.279267
 42
0.000000
  0
VERTEX
  8
0
 10
277.366614
 20
400.698389
 42
0.000000
  0
VERTEX
  8
0
 10
271.738448
 20
400.117511
 42
0.000000
  0
VERTEX
  8
0
 10
272.364071
 20
405.440587
 42
0.026927
  0
VERTEX
  8
0
 10
272.605984
 20
409.266122
 42
0.149258
  0
VERTEX
  8
0
 10
272.029314
 20
411.219817
 42
0.145021
  0
VERTEX
  8
0
 10
270.450535
 20
412.548025
 42
0.024948
  0
VERTEX
  8
0
 10
266.750000
 20
413.947229
 42
-0.011956
  0
VERTEX
  8
0
 10
265.312782
 20
414.448389
 42
-0.018557
  0
VERTEX
  8
0
 10
264.101562
 20
414.955551
 42
-0.013298
  0
VERTEX
  8
0
 10
263.156215
 20
415.424207
 42
-0.277824
  0
VERTEX
  8
0
 10
263.000000
 20
415.683648
 42
-0.147665
  0
VERTEX
  8
0
 10
263.102801
 20
416.024147
 42
-0.005241
  0
VERTEX
  8
0
 10
263.881250
 20
417.169600
 42
-0.009290
  0
VERTEX
  8
0
 10
264.850498
 20
418.510285
 42
-0.006327
  0
VERTEX
  8
0
 10
266.000000
 20
420.000000
 42
0.009087
  0
VERTEX
  8
0
 10
267.149197
 20
421.506440
 42
0.012636
  0
VERTEX
  8
0
 10
268.118750
 20
422.898891
 42
0.009127
  0
VERTEX
  8
0
 10
268.869541
 20
424.083983
 42
0.137470
  0
VERTEX
  8
0
 10
269.000000
 20
424.549513
 42
0.127656
  0
VERTEX
  8
0
 10
268.882190
 20
425.003430
 42
0.011245
  0
VERTEX
  8
0
 10
268.277230
 20
426.035068
 42
0.014145
  0
VERTEX
  8
0
 10
267.481892
 20
427.245989
 42
0.010543
  0
VERTEX
  8
0
 10
266.539505
 20
428.537093
 42
-0.020141
  0
VERTEX
  8
0
 10
264.371355
 20
431.630488
 42
-0.192125
  0
VERTEX
  8
0
 10
264.070326
 20
433.183790
 42
-0.206924
  0
VERTEX
  8
0
 10
264.931871
 20
434.453197
 42
-0.023735
  0
VERTEX
  8
0
 10
268.000000
 20
436.205658
 42
0.000000
  0
VERTEX
  8
0
 10
272.500000
 20
438.500000
 42
0.000000
  0
VERTEX
  8
0
 10
272.150948
 20
443.831075
 42
0.000000
  0
VERTEX
  8
0
 10
271.801895
 20
449.162149
 42
0.000000
  0
VERTEX
  8
0
 10
277.150948
 20
448.831075
 42
0.000000
  0
VERTEX
  8
0
 10
282.500000
 20
448.500000
 42
0.000000
  0
VERTEX
  8
0
 10
284.786337
 20
453.286559
 42
-0.019234
  0
VERTEX
  8
0
 10
286.462742
 20
456.474817
 42
-0.233235
  0
VERTEX
  8
0
 10
287.579191
 20
457.222303
 42
-0.184293
  0
VERTEX
  8
0
 10
289.007706
 20
456.883608
 42
-0.011556
  0
SEQEND
  0
POLYLINE
  8
0
 66
1
 70
1
  0
VERTEX
  8
0
 10
264.000000
 20
422.964604
 42
-0.115757
  0
VERTEX
  8
0
 10
263.854761
 20
422.345667
 42
-0.015968
  0
VERTEX
  8
0
 10
263.224662
 20
421.172587
 42
-0.017609
  0
VERTEX
  8
0
 10
262.371212
 20
419.811489
 42
-0.014084
  0
VERTEX
  8
0
 10
261.360551
 20
418.406060
 42
0.011854
  0
VERTEX
  8
0
 10
260.377072
 20
417.051215
 42
0.019060
  0
VERTEX
  8
0
 10
259.611730
 20
415.846795
 42
0.013653
  0
VERTEX
  8
0
 10
259.066752
 20
414.850770
 42
0.325503
  0
VERTEX
  8
0
 10
259.113578
 20
414.553089
 42
0.089856
  0
VERTEX
  8
0
 10
259.432603
 20
414.331930
 42
0.002930
  0
VERTEX
  8
0
 10
260.858625
 20
413.693264
 42
0.005532
  0
VERTEX
  8
0
 10
262.559933
 20
412.965618
 42
0.003808
  0
VERTEX
  8
0
 10
264.503027
 20
412.177162
 42
0.000000
  0
VERTEX
  8
0
 10
269.500000
 20
410.193712
 42
0.000000
  0
VERTEX
  8
0
 10
269.207170
 20
403.835302
 42
0.000000
  0
VERTEX
  8
0
 10
268.914340
 20
397.476891
 42
0.000000
  0
VERTEX
  8
0
 10
275.207170
 20
397.488445
 42
0.000000
  0
VERTEX
  8
0
 10
281.500000
 20
397.500000
 42
0.000000
  0
VERTEX
  8
0
 10
284.000000
 20
392.307259
 42
0.000000
  0
VERTEX
  8
0
 10
286.500000
 20
387.114519
 42
0.000000
  0
VERTEX
  8
0
 10
290.000000
 20
390.030359
 42
-0.009357
  0
VERTEX
  8
0
 10
291.395313
 20
391.149232
 42
-0.012891
  0
VERTEX
  8
0
 10
292.692187
 20
392.097573
 42
-0.009544
  0
VERTEX
  8
0
 10
293.798110
 20
392.832498
 42
-0.133685
  0
VERTEX
  8
0
 10
294.250000
 20
392.973099
 42
-0.412289
  0
VERTEX
  8
0
 10
295.005212
 20
392.274806
 42
-0.029499
  0
VERTEX
  8
0
 10
294.953068
 20
389.125211
 42
-0.034342
  0
VERTEX
  8
0
 10
294.446900
 20
385.639189
 42
-0.066197
  0
VERTEX
  8
0
 10
293.494431
 20
382.989230
 42
-0.092366
  0
VERTEX
  8
0
 10
291.870036
 20
380.902513
 42
-0.021437
  0
VERTEX
  8
0
 10
288.404353
 20
378.086959
 42
-0.018964
  0
VERTEX
  8
0
 10
284.749557
 20
375.578675
 42
-0.141826
  0
VERTEX
  8
0
 10
282.750512
 20
375.000000
 42
-0.284405
  0
VERTEX
  8
0
 10
282.446231
 20
375.188309
 42
-0.004779
  0
VERTEX
  8
0
 10
281.543891
 20
377.042619
 42
-0.010668
  0
VERTEX
  8
0
 10
280.535779
 20
379.288041
 42
-0.006693
  0
VERTEX
  8
0
 10
279.448590
 20
381.953595
 42
0.019410
  0
VERTEX
  8
0
 10
277.369733
 20
386.701559
 42
0.129243
  0
VERTEX
  8
0
 10
275.703506
 20
388.645700
 42
0.162984
  0
VERTEX
  8
0
 10
273.486882
 20
389.287985
 42
0.035980
  0
VERTEX
  8
0
 10
269.500000
 20
388.835453
 42
-0.011458
  0
VERTEX
  8
0
 10
267.726580
 20
388.545556
 42
-0.007830
  0
VERTEX
  8
0
 10
265.700517
 20
388.294137
 42
-0.007895
  0
VERTEX
  8
0
 10
263.738813
 20
388.113122
 42
-0.015776
  0
VERTEX
  8
0
 10
262.182612
 20
388.043551
 42
-0.019409
  0
VERTEX
  8
0
 10
260.453184
 20
388.087984
 42
-0.120085
  0
VERTEX
  8
0
 10
259.611215
 20
388.351692
 42
-0.235674
  0
VERTEX
  8
0
 10
259.278249
 20
388.876528
 42
-0.093738
  0
VERTEX
  8
0
 10
259.352223
 20
389.750000
 42
0.029774
  0
VERTEX
  8
0
 10
259.578048
 20
390.799780
 42
0.004463
  0
VERTEX
  8
0
 10
259.886425
 20
392.935035
 42
0.005002
  0
VERTEX
  8
0
 10
260.203235
 20
395.466537
 42
0.004298
  0
VERTEX
  8
0
 10
260.486913
 20
398.135225
 42
0.000000
  0
VERTEX
  8
0
 10
261.134605
 20
404.770451
 42
0.000000
  0
VERTEX
  8
0
 10
254.016316
 20
407.563216
 42
-0.006267
  0
VERTEX
  8
0
 10
251.256157
 20
408.686250
 42
-0.009152
  0
VERTEX
  8
0
 10
248.856546
 20
409.749959
 42
-0.005246
  0
VERTEX
  8
0
 10
246.874638
 20
410.697694
 42
-0.141095
  0
VERTEX
  8
0
 10
246.447038
 20
411.085694
 42
-0.305732
  0
VERTEX
  8
0
 10
246.491699
 20
412.206131
 42
-0.006666
  0
VERTEX
  8
0
 10
249.946393
 20
416.782920
 42
-0.012334
  0
VERTEX
  8
0
 10
253.429086
 20
421.049525
 42
-0.088062
  0
VERTEX
  8
0
 10
255.483170
 20
422.730643
 42
-0.083054
  0
VERTEX
  8
0
 10
257.639137
 20
423.504169
 42
-0.037840
  0
VERTEX
  8
0
 10
260.626017
 20
423.813234
 42
-0.034061
  0
VERTEX
  8
0
 10
263.337829
 20
423.702988
 42
-0.382715
  0
SEQEND
  0
POLYLINE
  8
0
 66
1
 70
1
  0
VERTEX
  8
0
 10
335.890144
 20
422.888451
 42
-0.101272
  0
VERTEX
  8
0
 10
338.534132
 20
421.313313
 42
-0.025314
  0
VERTEX
  8
0
 10
342.091059
 20
417.725252
 42
-0.022541
  0
VERTEX
  8
0
 10
345.251086
 20
413.859993
 42
-0.161450
  0
VERTEX
  8
0
 10
346.000000
 20
411.601106
 42
-0.252913
  0
VERTEX
  8
0
 10
345.703036
 20
411.051572
 42
-0.018018
  0
VERTEX
  8
0
 10
344.164062
 20
410.120909
 42
-0.021908
  0
VERTEX
  8
0
 10
342.144899
 20
409.110312
 42
-0.014549
  0
VERTEX
  8
0
 10
339.750000
 20
408.122670
 42
0.011721
  0
VERTEX
  8
0
 10
337.278899
 20
407.119919
 42
0.014382
  0
VERTEX
  8
0
 10
335.023047
 20
406.064267
 42
0.012855
  0
VERTEX
  8
0
 10
333.191986
 20
405.082517
 42
0.093402
  0
VERTEX
  8
0
 10
332.434842
 20
404.439419
 42
0.132830
  0
VERTEX
  8
0
 10
332.001110
 20
403.458409
 42
0.034899
  0
VERTEX
  8
0
 10
331.858402
 20
401.730575
 42
0.026277
  0
VERTEX
  8
0
 10
331.954640
 20
399.320195
 42
0.010525
  0
VERTEX
  8
0
 10
332.328675
 20
396.038824
 42
-0.009119
  0
VERTEX
  8
0
 10
332.651110
 20
393.279130
 42
-0.013560
  0
VERTEX
  8
0
 10
332.823544
 20
390.852984
 42
-0.008581
  0
VERTEX
  8
0
 10
332.877034
 20
388.848116
 42
-0.201386
  0
VERTEX
  8
0
 10
332.666667
 20
388.333333
 42
-0.201386
  0
VERTEX
  8
0
 10
332.151884
 20
388.122966
 42
-0.008581
  0
VERTEX
  8
0
 10
330.147016
 20
388.176456
 42
-0.013560
  0
VERTEX
  8
0
 10
327.720870
 20
388.348890
 42
-0.009119
  0
VERTEX
  8
0
 10
324.961176
 20
388.671325
 42
0.018755
  0
VERTEX
  8
0
 10
319.637879
 20
389.189538
 42
0.130823
  0
VERTEX
  8
0
 10
317.099447
 20
388.673303
 42
0.156020
  0
VERTEX
  8
0
 10
315.376463
 20
387.001428
 42
0.030049
  0
VERTEX
  8
0
 10
313.537322
 20
383.000000
 42
0.000098
  0
VERTEX
  8
0
 10
312.802191
 20
381.107744
 42
0.000088
  0
VERTEX
  8
0
 10
312.039869
 20
379.143326
 42
0.000088
  0
VERTEX
  8
0
 10
311.355707
 20
377.378472
 42
0.000275
  0
VERTEX
  8
0
 10
310.895996
 20
376.190047
 42
-0.086594
  0
VERTEX
  8
0
 10
310.175752
 20
374.992038
 42
-0.303825
  0
VERTEX
  8
0
 10
309.350236
 20
374.766400
 42
-0.079397
  0
VERTEX
  8
0
 10
308.000291
 20
375.471897
 42
-0.003955
  0
VERTEX
  8
0
 10
304.001957
 20
378.498494
 42
-0.015568
  0
VERTEX
  8
0
 10
301.695097
 20
380.390770
 42
-0.020746
  0
VERTEX
  8
0
 10
299.729886
 20
382.257133
 42
-0.018521
  0
VERTEX
  8
0
 10
298.250557
 20
383.901322
 42
-0.158543
  0
VERTEX
  8
0
 10
297.887018
 20
384.808447
 42
0.001031
  0
VERTEX
  8
0
 10
297.827263
 20
385.676183
 42
0.000335
  0
VERTEX
  8
0
 10
297.735489
 20
386.957794
 42
0.000334
  0
VERTEX
  8
0
 10
297.631612
 20
388.381669
 42
0.000376
  0
VERTEX
  8
0
 10
297.529833
 20
389.750000
 42
-0.014755
  0
VERTEX
  8
0
 10
297.473110
 20
390.996067
 42
-0.024614
  0
VERTEX
  8
0
 10
297.507998
 20
392.045313
 42
-0.021990
  0
VERTEX
  8
0
 10
297.609063
 20
392.840439
 42
-0.365141
  0
VERTEX
  8
0
 10
297.798424
 20
393.000000
 42
-0.140428
  0
VERTEX
  8
0
 10
298.124791
 20
392.906494
 42
-0.006249
  0
VERTEX
  8
0
 10
299.123400
 20
392.265625
 42
-0.010116
  0
VERTEX
  8
0
 10
300.295855
 20
391.457829
 42
-0.007020
  0
VERTEX
  8
0
 10
301.588887
 20
390.500000
 42
0.011903
  0
VERTEX
  8
0
 10
302.908096
 20
389.542586
 42
0.015541
  0
VERTEX
  8
0
 10
304.160965
 20
388.734375
 42
0.013124
  0
VERTEX
  8
0
 10
305.232041
 20
388.127376
 42
0.122949
  0
VERTEX
  8
0
 10
305.742212
 20
388.000000
 42
0.241767
  0
VERTEX
  8
0
 10
306.196079
 20
388.233084
 42
0.014624
  0
VERTEX
  8
0
 10
307.077706
 20
389.542188
 42
0.019237
  0
VERTEX
  8
0
 10
308.060054
 20
391.238274
 42
0.012820
  0
VERTEX
  8
0
 10
309.058933
 20
393.250000
 42
-0.020549
  0
VERTEX
  8
0
 10
310.136821
 20
395.339154
 42
-0.033688
  0
VERTEX
  8
0
 10
311.235318
 20
396.998514
 42
-0.038099
  0
VERTEX
  8
0
 10
312.247746
 20
398.133752
 42
-0.209297
  0
VERTEX
  8
0
 10
313.000000
 20
398.411522
 42
-0.012154
  0
VERTEX
  8
0
 10
313.858566
 20
398.339904
 42
-0.002203
  0
VERTEX
  8
0
 10
315.448175
 20
398.161225
 42
-0.002372
  0
VERTEX
  8
0
 10
317.307778
 20
397.934951
 42
-0.002147
  0
VERTEX
  8
0
 10
319.227831
 20
397.683691
 42
0.000000
  0
VERTEX
  8
0
 10
323.955662
 20
397.044338
 42
0.000000
  0
VERTEX
  8
0
 10
323.316309
 20
401.772169
 42
-0.002147
  0
VERTEX
  8
0
 10
323.065049
 20
403.692222
 42
-0.002372
  0
VERTEX
  8
0
 10
322.838775
 20
405.551825
 42
-0.002203
  0
VERTEX
  8
0
 10
322.660096
 20
407.141434
 42
-0.012154
  0
VERTEX
  8
0
 10
322.588478
 20
408.000000
 42
-0.209297
  0
VERTEX
  8
0
 10
322.866248
 20
408.752254
 42
-0.038099
  0
VERTEX
  8
0
 10
324.001486
 20
409.764682
 42
-0.033688
  0
VERTEX
  8
0
 10
325.660846
 20
410.863179
 42
-0.020549
  0
VERTEX
  8
0
 10
327.750000
 20
411.941067
 42
0.013388
  0
VERTEX
  8
0
 10
329.761661
 20
412.942766
 42
0.019989
  0
VERTEX
  8
0
 10
331.457812
 20
413.933727
 42
0.015641
  0
VERTEX
  8
0
 10
332.760511
 20
414.824959
 42
0.239295
  0
VERTEX
  8
0
 10
333.000000
 20
415.296711
 42
0.128782
  0
VERTEX
  8
0
 10
332.863997
 20
415.815987
 42
0.015516
  0
VERTEX
  8
0
 10
332.247046
 20
416.837467
 42
0.017629
  0
VERTEX
  8
0
 10
331.418332
 20
418.024127
 42
0.013658
  0
VERTEX
  8
0
 10
330.436751
 20
419.257537
 42
-0.016654
  0
VERTEX
  8
0
 10
329.199620
 20
420.831312
 42
-0.080463
  0
VERTEX
  8
0
 10
328.683700
 20
421.841168
 42
-0.174874
  0
VERTEX
  8
0
 10
328.708548
 20
422.560940
 42
-0.157506
  0
VERTEX
  8
0
 10
329.186751
 20
423.136580
 42
-0.063910
  0
VERTEX
  8
0
 10
330.492762
 20
423.747447
 42
-0.086932
  0
VERTEX
  8
0
 10
331.778980
 20
423.924021
 42
-0.059030
  0
VERTEX
  8
0
 10
333.394815
 20
423.671672
 42
-0.015647
  0
SEQEND
  0
ENDSEC
  0
EOF
